<svg xmlns="http://www.w3.org/2000/svg" viewBox="0 0 333.51 97.76"><defs><style>.cls-1{fill:#231f20;}</style></defs><title>logo-black</title><g id="Layer_2" data-name="Layer 2"><g id="Layer_1-2" data-name="Layer 1"><path class="cls-1" d="M145.66,61.3a10.32,10.32,0,0,1-3,1.83,13.76,13.76,0,0,1-5.55,1,14.44,14.44,0,0,1-10.2-3.6Q123,56.93,123,49.6a15.14,15.14,0,0,1,4-10.34,13,13,0,0,1,10.19-4.49,22.54,22.54,0,0,1,4.63.44,15.15,15.15,0,0,1,3.17,1v8.14a13.48,13.48,0,0,0-3.6-1.86,12.13,12.13,0,0,0-3.64-.51,6.23,6.23,0,0,0-4.92,2c-1.18,1.31-1.77,3.3-1.77,5.94s.7,4.4,2.1,5.63a7.24,7.24,0,0,0,5,1.87,10.49,10.49,0,0,0,4.28-.78,14.69,14.69,0,0,0,3.29-2Z"/><path class="cls-1" d="M177.21,49.44q0,6.72-3.84,10.69t-10.56,4q-7.22,0-10.81-4t-3.6-10.66a15,15,0,0,1,3.88-10.36q3.87-4.3,10.53-4.31t10.54,4Q177.22,42.72,177.21,49.44Zm-7.88,0a10.26,10.26,0,0,0-1.73-5.88A5.45,5.45,0,0,0,162.82,41q-3.51,0-5,2.35a11,11,0,0,0-1.51,6.1,9.82,9.82,0,0,0,1.81,6A5.74,5.74,0,0,0,163,57.89c2.28,0,3.9-.67,4.89-2S169.33,52.4,169.33,49.44Z"/><path class="cls-1" d="M333.51,63.58h-5.86L326,61l-4.08,2.25a4.84,4.84,0,0,1-1.47.42,12.34,12.34,0,0,1-1.67.14q-6,0-9.09-4a16.14,16.14,0,0,1-3.13-10.09q0-6.57,3.73-10.46a13.17,13.17,0,0,1,9.93-3.9,15,15,0,0,1,3.11.29,8.53,8.53,0,0,1,2.58,1V24.7h7.62Zm-7.62-8.41v-12a4.86,4.86,0,0,0-2.08-1.38,8.33,8.33,0,0,0-3.15-.59,5.75,5.75,0,0,0-4.7,1.86c-1,1.24-1.54,3.2-1.54,5.9s.55,4.79,1.64,6.15a5.44,5.44,0,0,0,4.45,2,7.83,7.83,0,0,0,3.17-.6A7.33,7.33,0,0,0,325.89,55.17Z"/><rect class="cls-1" x="230.86" y="24.62" width="7.78" height="39.1"/><path class="cls-1" d="M269.34,52V36.35l-1.48-.44-4.39,1.58a8.37,8.37,0,0,0-2.63-1.63,10.18,10.18,0,0,0-4.3-.91,12.2,12.2,0,0,0-9.49,4.14,15.11,15.11,0,0,0-3.72,10.51q0,6.7,3.58,10.48A11.93,11.93,0,0,0,256,63.85a4.92,4.92,0,0,0,1.12-.17,3.92,3.92,0,0,0,.95-.32l4.05-2.31,1.66,2.53h5.61V52Zm-16.58,3a8.94,8.94,0,0,1-1.55-5.49c0-2.87.56-4.93,1.66-6.17a5.39,5.39,0,0,1,4.19-1.86,6,6,0,0,1,3,.67,6.56,6.56,0,0,1,2,1.6V55.18a7.31,7.31,0,0,1-2.21,1.41,3.86,3.86,0,0,1-.48.16,9.1,9.1,0,0,1-2.18.26A5.1,5.1,0,0,1,252.76,55Z"/><path class="cls-1" d="M299.64,37.53a8.28,8.28,0,0,0-6.36-2.5,13,13,0,0,0-3,.37,11.59,11.59,0,0,0-2.95,1.2l-2.95,1.69-.3.17H284L282.35,36h-6V47.58h0v16h7.7v-16h0V45.19a15.67,15.67,0,0,1,2.26-1.65,6.59,6.59,0,0,1,3.54-.89,4.27,4.27,0,0,1,3.28,1.16,3.75,3.75,0,0,1,1.07,2.65V63.58H302V44.1A9.27,9.27,0,0,0,299.64,37.53Z"/><path class="cls-1" d="M222.28,37.53A8.21,8.21,0,0,0,216,35a12.22,12.22,0,0,0-3.11.4,10,10,0,0,0-2.76,1.17l-4.17,2.55a7.42,7.42,0,0,0-2.91-3,9,9,0,0,0-4.58-1.1,13.64,13.64,0,0,0-2.93.33,10,10,0,0,0-2.94,1.24l-3,1.85h-.06L187.85,36h-6v.4h0V63.58h7.71v-16h0V45.13a8.44,8.44,0,0,1,2-1.62,6.64,6.64,0,0,1,3.49-.86,4.08,4.08,0,0,1,3.22,1.16,3.89,3.89,0,0,1,1,2.65V63.58h7.7V45.19a7.45,7.45,0,0,1,2.37-1.83,7.07,7.07,0,0,1,3.2-.71,4.11,4.11,0,0,1,3.22,1.16,3.88,3.88,0,0,1,1,2.65V63.58h7.71V44.1A9.35,9.35,0,0,0,222.28,37.53Z"/><polygon class="cls-1" points="58.66 58.66 58.66 55.73 58.66 39.11 39.11 39.11 36.91 39.11 19.55 39.11 19.55 58.66 36.91 58.66 39.11 58.66 39.11 58.66 39.11 78.21 55.36 78.21 58.66 78.21 78.21 78.21 78.21 58.66 58.66 58.66"/><rect class="cls-1" x="76.71" width="1.5" height="19.55"/><rect class="cls-1" x="58.66" width="1.5" height="19.55"/><rect class="cls-1" x="61.67" width="1.5" height="19.55"/><rect class="cls-1" x="64.67" width="1.5" height="19.55"/><rect class="cls-1" x="67.68" width="1.5" height="19.55"/><rect class="cls-1" x="70.69" width="1.5" height="19.55"/><rect class="cls-1" x="73.7" width="1.5" height="19.55"/><rect class="cls-1" x="76.71" y="78.21" width="1.5" height="19.55"/><rect class="cls-1" x="58.66" y="78.21" width="1.5" height="19.55"/><rect class="cls-1" x="61.67" y="78.21" width="1.5" height="19.55"/><rect class="cls-1" x="64.67" y="78.21" width="1.5" height="19.55"/><rect class="cls-1" x="67.68" y="78.21" width="1.5" height="19.55"/><rect class="cls-1" x="70.69" y="78.21" width="1.5" height="19.55"/><rect class="cls-1" x="73.7" y="78.21" width="1.5" height="19.55"/><rect class="cls-1" x="78.21" y="58.66" width="19.55" height="1.5"/><rect class="cls-1" x="78.21" y="76.71" width="19.55" height="1.5"/><rect class="cls-1" x="78.21" y="73.7" width="19.55" height="1.5"/><rect class="cls-1" x="78.21" y="70.69" width="19.55" height="1.5"/><rect class="cls-1" x="78.21" y="67.68" width="19.55" height="1.5"/><rect class="cls-1" x="78.21" y="64.67" width="19.55" height="1.5"/><rect class="cls-1" x="78.21" y="61.67" width="19.55" height="1.5"/><rect class="cls-1" y="39.11" width="19.55" height="1.5"/><rect class="cls-1" y="57.15" width="19.55" height="1.5"/><rect class="cls-1" y="54.15" width="19.55" height="1.5"/><rect class="cls-1" y="51.14" width="19.55" height="1.5"/><rect class="cls-1" y="48.13" width="19.55" height="1.5"/><rect class="cls-1" y="45.12" width="19.55" height="1.5"/><rect class="cls-1" y="42.11" width="19.55" height="1.5"/><rect class="cls-1" x="57.15" y="19.55" width="1.5" height="19.55"/><rect class="cls-1" x="39.11" y="19.55" width="1.5" height="19.55"/><rect class="cls-1" x="42.11" y="19.55" width="1.5" height="19.55"/><rect class="cls-1" x="45.12" y="19.55" width="1.5" height="19.55"/><rect class="cls-1" x="48.13" y="19.55" width="1.5" height="19.55"/><rect class="cls-1" x="51.14" y="19.55" width="1.5" height="19.55"/><rect class="cls-1" x="54.15" y="19.55" width="1.5" height="19.55"/><polygon class="cls-1" points="81.14 19.55 78.21 19.55 58.66 19.55 58.66 39.11 78.21 39.11 81.14 39.11 97.76 39.11 97.76 19.55 81.14 19.55"/></g></g></svg>