<svg width="180" height="180" viewBox="0 0 180 180" fill="none" xmlns="http://www.w3.org/2000/svg">
<path d="M92.0806 22.6225C91.2171 22.5923 90.4565 22.3682 89.7986 21.9503C89.1412 21.5217 88.6345 20.901 88.2786 20.0881C87.9334 19.2755 87.7822 18.2563 87.8249 17.0303C87.8546 16.1775 87.9825 15.4189 88.2084 14.7543C88.4348 14.0792 88.7588 13.5088 89.1807 13.0433C89.6025 12.5777 90.1055 12.2324 90.6897 12.0074C91.2849 11.7721 91.9663 11.6678 92.7338 11.6946C93.2881 11.714 93.7919 11.8064 94.2451 11.9716C94.6986 12.1262 95.0911 12.3481 95.4226 12.6372C95.7647 12.9267 96.0351 13.283 96.2338 13.7062C96.4329 14.1187 96.5551 14.5926 96.6005 15.1279L95.4386 15.3914C95.4179 14.761 95.27 14.2595 94.9948 13.887C94.7306 13.5042 94.3935 13.2256 93.9833 13.0511C93.5731 12.8767 93.1335 12.7813 92.6645 12.7649C92.0035 12.7418 91.4067 12.8703 90.874 13.1505C90.3412 13.4307 89.9142 13.8908 89.5931 14.5306C89.2719 15.1704 89.0931 16.0127 89.0567 17.0574C89.0281 17.8782 89.0945 18.5743 89.2561 19.1456C89.4286 19.7067 89.6635 20.1632 89.9608 20.5151C90.2584 20.8564 90.6018 21.1085 90.991 21.2716C91.3913 21.4243 91.8099 21.5084 92.247 21.5236C92.8333 21.5441 93.3436 21.4499 93.7778 21.241C94.223 21.0217 94.5817 20.6821 94.8539 20.222C95.1368 19.7622 95.328 19.1766 95.4275 18.4649L92.9011 18.3766L92.9362 17.3692L96.6459 17.4989L96.5946 18.97L96.4686 22.5838L95.4133 22.5469L95.8996 19.6181L95.6918 19.6109C95.5283 20.3203 95.2893 20.8989 94.9748 21.3469C94.671 21.7952 94.2805 22.1284 93.8033 22.3465C93.3264 22.554 92.7522 22.646 92.0806 22.6225Z" fill="black"/>
<path d="M101.611 23.3529L101.764 22.3081L104.867 22.7654C105.616 22.8758 106.26 22.7874 106.798 22.5001C107.347 22.2144 107.783 21.7773 108.106 21.1889C108.441 20.602 108.667 19.9076 108.784 19.1055C108.89 18.3879 108.902 17.7536 108.822 17.2026C108.751 16.6531 108.588 16.187 108.332 15.8042C108.077 15.4108 107.724 15.0947 107.274 14.8559C106.826 14.6065 106.28 14.4343 105.636 14.3395L102.993 13.9498L103.146 12.9051L105.774 13.2924C106.924 13.4619 107.833 13.8061 108.501 14.325C109.179 14.8455 109.635 15.5165 109.87 16.3383C110.116 17.1615 110.16 18.1114 110.001 19.1878C109.902 19.8632 109.738 20.4697 109.508 21.0073C109.288 21.5464 109.01 22.0121 108.672 22.4043C108.346 22.7876 107.977 23.0997 107.564 23.3408C107.163 23.5728 106.72 23.7285 106.234 23.8078C105.758 23.8887 105.262 23.891 104.745 23.8148L101.611 23.3529ZM100.93 23.2525L102.465 12.8047L103.637 12.9774L102.101 23.4252L100.93 23.2525Z" fill="black"/>
<path d="M111.945 22.5313L112.249 21.5199L114.823 22.2954C115.864 22.6093 116.704 22.6506 117.341 22.4194C117.992 22.181 118.451 21.6174 118.718 20.7286C118.961 19.9216 118.897 19.245 118.526 18.6989C118.155 18.1528 117.465 17.7274 116.453 17.4227L113.727 16.6011L114.026 15.6051L116.783 16.4359C117.437 16.6329 117.996 16.8849 118.461 17.192C118.936 17.5022 119.302 17.8577 119.56 18.2586C119.832 18.6523 119.995 19.0914 120.05 19.5759C120.105 20.0603 120.048 20.5835 119.879 21.1453C119.655 21.8911 119.291 22.4721 118.788 22.8885C118.297 23.2977 117.68 23.5352 116.936 23.6007C116.203 23.6694 115.351 23.5576 114.381 23.2652L111.945 22.5313ZM110.513 25.5755L113.551 15.462L114.685 15.8036L111.646 25.9171L110.513 25.5755Z" fill="black"/>
<path d="M119.656 29.2717L124.132 19.7076L127.275 21.1831C127.748 21.4052 128.165 21.6478 128.524 21.911C128.884 22.1741 129.182 22.4555 129.419 22.7551C129.656 23.0548 129.823 23.3633 129.922 23.6807C130.03 24.0026 130.072 24.3405 130.048 24.6944C130.028 25.0386 129.935 25.3894 129.767 25.7469C129.609 26.085 129.411 26.3692 129.174 26.5995C128.946 26.8343 128.681 27.0104 128.379 27.1277C128.087 27.2496 127.759 27.3079 127.396 27.3026C127.043 27.3019 126.662 27.235 126.254 27.102L126.179 27.2614C126.456 27.4502 126.683 27.6689 126.861 27.9175C127.053 28.161 127.183 28.4633 127.249 28.8244C127.32 29.1759 127.313 29.6201 127.226 30.1569L126.825 32.6375L125.681 32.1003L126.11 29.8625C126.199 29.4211 126.191 29.0227 126.086 28.6673C125.991 28.3164 125.809 28.001 125.54 27.7213C125.27 27.4416 124.918 27.1998 124.484 26.9958L122.471 26.0506L120.727 29.7748L119.656 29.2717ZM122.905 25.1232L124.889 26.0547C125.816 26.4899 126.588 26.6521 127.205 26.5412C127.822 26.4303 128.287 26.0416 128.599 25.375C128.915 24.6987 128.921 24.0947 128.617 23.5628C128.317 23.0213 127.698 22.5307 126.762 22.091L124.763 21.1526L122.905 25.1232Z" fill="black"/>
<path d="M144.791 45.0223L145.749 44.2232C146.507 44.2585 147.137 44.5663 147.618 45.1447C148.027 45.637 148.333 46.2562 148.55 46.9923C148.766 47.7284 149.009 48.2964 149.306 48.6533C149.664 49.084 150.394 49.4124 151.207 49.4641L150.26 50.2528C149.481 50.2155 148.85 49.9077 148.37 49.3293C147.94 48.8125 147.634 48.1932 147.44 47.4592C147.244 46.7477 146.988 46.1899 146.671 45.8084C146.313 45.3777 145.614 45.0862 144.791 45.0223Z" fill="black"/>
<path d="M155.678 74.7313L156.699 74.4638L157.492 77.4981C157.683 78.2309 158.016 78.7888 158.491 79.1716C158.968 79.5649 159.541 79.7953 160.209 79.863C160.88 79.9409 161.607 79.8773 162.391 79.6719C163.093 79.4882 163.682 79.2514 164.157 78.9615C164.635 78.6819 165.001 78.3493 165.253 77.9635C165.515 77.575 165.668 77.127 165.712 76.6193C165.766 76.1089 165.711 75.539 165.547 74.9094L164.872 72.324L165.894 72.0566L166.564 74.6265C166.858 75.7514 166.897 76.7227 166.68 77.5402C166.466 78.368 166.027 79.0508 165.363 79.5886C164.701 80.1368 163.844 80.5486 162.791 80.8242C162.131 80.9971 161.509 81.0829 160.924 81.0816C160.342 81.0906 159.804 81.0164 159.311 80.8588C158.831 80.7088 158.4 80.4911 158.016 80.2055C157.646 79.9275 157.33 79.5804 157.067 79.1641C156.806 78.7581 156.61 78.3023 156.478 77.7966L155.678 74.7313ZM155.504 74.0656L165.72 71.3909L166.019 72.5365L155.803 75.2112L155.504 74.0656Z" fill="black"/>
<path d="M161.397 85.7702L162.447 85.6546L162.74 88.3265C162.859 89.408 163.15 90.1969 163.612 90.6933C164.086 91.199 164.784 91.4011 165.707 91.2995C166.544 91.2072 167.142 90.8838 167.499 90.3293C167.857 89.7748 167.978 88.9727 167.863 87.923L167.552 85.092L168.585 84.9781L168.9 87.8409C168.975 88.5195 168.961 89.1326 168.861 89.6802C168.761 90.2385 168.577 90.7148 168.309 91.1092C168.053 91.513 167.713 91.8349 167.289 92.0748C166.864 92.3147 166.361 92.4668 165.778 92.5311C165.004 92.6164 164.326 92.5086 163.746 92.2077C163.177 91.9162 162.718 91.441 162.366 90.7822C162.016 90.134 161.785 89.3063 161.675 88.299L161.397 85.7702ZM158.035 85.6417L168.531 84.4851L168.661 85.662L158.164 86.8186L158.035 85.6417Z" fill="black"/>
<path d="M157.323 95.9176L167.843 96.8393L167.737 98.0507L157.217 97.129L157.323 95.9176Z" fill="black"/>
<path d="M156.205 102.583L165.91 108.186L165.597 109.885L154.534 111.646L154.763 110.403L164.729 108.943L164.761 108.77L155.973 103.842L156.205 102.583ZM158.326 104.667L159.286 104.845L158.192 110.777L157.232 110.599L158.326 104.667Z" fill="black"/>
<path d="M147.2 131.807L148.215 132.533C148.373 133.276 148.235 133.965 147.797 134.577C147.425 135.097 146.905 135.551 146.248 135.947C145.592 136.343 145.105 136.722 144.835 137.099C144.51 137.555 144.377 138.346 144.533 139.146L143.532 138.429C143.37 137.664 143.508 136.975 143.945 136.363C144.336 135.816 144.857 135.363 145.517 134.989C146.154 134.62 146.629 134.231 146.917 133.828C147.242 133.372 147.347 132.62 147.2 131.807Z" fill="black"/>
<path d="M122.641 149.109L124.54 160.155L123.034 161.002L114.607 153.624L115.709 153.005L123.203 159.732L123.356 159.646L121.526 149.736L122.641 149.109ZM122.395 152.073L122.872 152.925L117.614 155.88L117.137 155.029L122.395 152.073Z" fill="black"/>
<path d="M112.86 153.578L116.627 163.443L115.492 163.878L111.724 154.013L112.86 153.578Z" fill="black"/>
<path d="M105.05 159.681L105.287 160.743L101.258 161.641L101.021 160.579L105.05 159.681Z" fill="black"/>
<path d="M94.4836 157.448L91.5193 168.253L89.796 168.379L85.2923 158.121L86.5529 158.029L90.4873 167.302L90.6628 167.289L93.207 157.541L94.4836 157.448ZM93.0037 160.027L93.0748 161L87.0589 161.441L86.9878 160.468L93.0037 160.027Z" fill="black"/>
<path d="M79.4063 156.824C80.151 156.879 80.8073 157.044 81.3753 157.321C81.9327 157.597 82.4021 157.979 82.7835 158.467C83.1543 158.954 83.422 159.536 83.5866 160.211C83.7397 160.896 83.7856 161.658 83.7242 162.499C83.662 163.35 83.4996 164.108 83.2371 164.773C82.9632 165.448 82.6062 166.016 82.1662 166.476C81.7262 166.935 81.2149 167.272 80.6325 167.486C80.0386 167.71 79.3852 167.796 78.6725 167.744C78.1299 167.704 77.6358 167.587 77.19 167.394C76.7328 167.211 76.3502 166.958 76.0422 166.636C75.7228 166.324 75.4825 165.954 75.3213 165.525C75.1601 165.096 75.0982 164.626 75.1355 164.115L76.2895 163.911C76.2361 164.495 76.3181 164.983 76.5356 165.373C76.753 165.763 77.0622 166.069 77.4631 166.291C77.8534 166.512 78.2879 166.641 78.7666 166.676C79.224 166.709 79.6668 166.651 80.0949 166.5C80.523 166.35 80.9098 166.105 81.2554 165.767C81.5903 165.428 81.8688 164.983 82.0909 164.433C82.3129 163.882 82.4527 163.213 82.5103 162.426C82.5834 161.426 82.4992 160.602 82.2579 159.953C82.0051 159.314 81.6236 158.826 81.1135 158.489C80.6026 158.163 79.9907 157.974 79.278 157.922C78.5971 157.872 78.0403 157.954 77.6076 158.168C77.1642 158.382 76.8251 158.704 76.5903 159.136C76.3449 159.568 76.189 160.091 76.1226 160.706L75.0367 160.418C75.0862 159.887 75.2083 159.388 75.4028 158.921C75.5966 158.465 75.8716 158.068 76.2278 157.73C76.5833 157.403 77.0237 157.157 77.5491 156.993C78.0745 156.828 78.6936 156.772 79.4063 156.824Z" fill="black"/>
<path d="M71.8038 155.227L69.511 165.535L68.3554 165.277L70.6482 154.969L71.8038 155.227ZM72.9138 165.196L72.6811 166.242L65.1853 164.57L65.4181 163.523L72.9138 165.196Z" fill="black"/>
<path d="M46.0508 145.817L45.2887 146.806C44.5418 146.936 43.8596 146.773 43.2648 146.313C42.7585 145.921 42.3246 145.383 41.9533 144.712C41.582 144.04 41.2212 143.539 40.8542 143.255C40.4112 142.912 39.6267 142.751 38.8222 142.877L39.5745 141.901C40.3439 141.768 41.026 141.932 41.6209 142.392C42.1524 142.803 42.5863 143.341 42.9352 144.015C43.2812 144.667 43.6518 145.156 44.0441 145.459C44.4871 145.802 45.2336 145.934 46.0508 145.817Z" fill="black"/>
<path d="M27.6686 116.225C27.9122 116.699 28.0244 117.152 28.0052 117.581C27.986 118.011 27.8664 118.409 27.6463 118.774C27.4261 119.139 27.1556 119.476 26.8347 119.786L26.9443 119.999L28.8278 118.903L29.3393 119.9L25.7404 121.753L19.4529 124.99L18.9122 123.937L21.174 122.772C21.411 122.65 21.6767 122.526 21.9709 122.398C22.2652 122.271 22.5643 122.153 22.8683 122.044C23.1723 121.935 23.4668 121.832 23.7518 121.733L23.6349 121.505C23.2068 121.606 22.7687 121.651 22.3203 121.642C21.8577 121.629 21.4249 121.509 21.0219 121.285C20.6094 121.066 20.2692 120.695 20.0013 120.173C19.6846 119.556 19.5802 118.944 19.6881 118.337C19.7959 117.729 20.0806 117.163 20.5422 116.637C20.9894 116.107 21.5876 115.649 22.3368 115.263C23.0765 114.882 23.794 114.657 24.4894 114.587C25.1753 114.521 25.7963 114.622 26.3523 114.887C26.9034 115.143 27.3422 115.589 27.6686 116.225ZM26.8174 116.879C26.5982 116.452 26.2993 116.15 25.9207 115.973C25.5277 115.792 25.0789 115.735 24.5742 115.803C24.0646 115.861 23.5206 116.039 22.9421 116.337C22.3921 116.62 21.9379 116.95 21.5796 117.327C21.2118 117.708 20.9779 118.116 20.8777 118.552C20.7775 118.987 20.8419 119.428 21.0709 119.874C21.2365 120.197 21.4515 120.452 21.7158 120.64C21.9706 120.833 22.2533 120.963 22.564 121.031C22.8747 121.099 23.1897 121.129 23.5091 121.12C23.8285 121.112 24.1308 121.07 24.4161 120.995C24.6919 120.925 24.9246 120.841 25.1143 120.744L25.2565 120.67C25.5505 120.519 25.8367 120.306 26.115 120.03C26.379 119.75 26.5949 119.435 26.7627 119.085C26.9306 118.735 27.0315 118.371 27.0656 117.993C27.0853 117.611 27.0025 117.24 26.8174 116.879Z" fill="black"/>
<path d="M27.2866 107.111C27.4277 107.525 27.5148 107.946 27.548 108.374C27.5812 108.802 27.5468 109.214 27.4449 109.61C27.3497 109.992 27.18 110.337 26.9359 110.646L25.9666 110.182C26.2376 109.853 26.4002 109.454 26.4544 108.984C26.5086 108.515 26.4497 108.028 26.2777 107.523C26.0782 106.937 25.7819 106.497 25.3888 106.203C24.9922 105.899 24.4938 105.743 23.8934 105.734C23.283 105.728 22.5741 105.863 21.7666 106.139L20.0543 106.521L20.142 106.779C20.9369 106.631 21.5994 106.608 22.1295 106.708C22.6562 106.799 23.0789 106.981 23.3977 107.256C23.7065 107.533 23.9382 107.9 24.093 108.354C24.2856 108.919 24.3076 109.447 24.1592 109.938C23.9971 110.421 23.6729 110.859 23.1866 111.251C22.6968 111.632 22.0582 111.957 21.2709 112.226L17.834 113.401L17.4625 112.31L20.6723 111.213C21.6615 110.875 22.3417 110.474 22.7129 110.009C23.0842 109.544 23.1683 109.014 22.9654 108.418C22.8553 108.095 22.6799 107.828 22.439 107.617C22.1881 107.41 21.8735 107.264 21.4953 107.179C21.117 107.094 20.6718 107.077 20.1595 107.128C19.6337 107.172 19.0377 107.291 18.3712 107.485L16.085 108.266L15.7032 107.146L21.5021 105.164C22.1077 104.957 22.6683 104.817 23.1837 104.742C23.6957 104.657 24.1661 104.649 24.5948 104.716C25.0201 104.774 25.4071 104.901 25.7557 105.097C26.1009 105.284 26.3995 105.548 26.6513 105.89C26.9098 106.219 27.1216 106.626 27.2866 107.111Z" fill="black"/>
<path d="M22.4743 88.4482C22.4999 89.1518 22.3405 89.7553 21.996 90.2589C21.6408 90.7629 21.1428 91.1547 20.5019 91.4344C19.861 91.714 19.1248 91.869 18.2934 91.8995C17.4619 91.9299 16.7164 91.8291 16.0568 91.5971C15.3973 91.365 14.8722 91.016 14.4816 90.55C14.0906 90.0733 13.8823 89.4832 13.8566 88.7797C13.8345 88.1721 13.9498 87.6768 14.2027 87.294C14.4445 86.9009 14.7641 86.5903 15.1613 86.3623C15.5476 86.124 15.9519 85.9438 16.3744 85.8216L16.3657 85.5817C16.0688 85.6353 15.7505 85.6897 15.411 85.7448C15.0714 85.7999 14.737 85.8495 14.4077 85.8936C14.0674 85.9274 13.764 85.9492 13.4975 85.9589L11.0672 86.0479L11.0234 84.8487L18.0747 84.5906L22.1359 84.4419L22.1768 85.5612L19.9976 85.5129L20.0063 85.7527C20.448 85.8646 20.8544 86.0312 21.2254 86.2524C21.5857 86.4741 21.8791 86.7622 22.1055 87.1168C22.3315 87.4608 22.4544 87.9046 22.4743 88.4482ZM21.412 88.295C21.3972 87.8899 21.288 87.531 21.0845 87.2182C20.8699 86.8952 20.604 86.6274 20.2867 86.4149C19.969 86.1917 19.6268 86.0281 19.2601 85.9241C18.8823 85.8098 18.5282 85.7588 18.1978 85.7709L18.0379 85.7767C17.8247 85.7845 17.5807 85.8255 17.3059 85.8996C17.0204 85.9741 16.7361 86.0805 16.453 86.219C16.1698 86.3574 15.9096 86.5377 15.6722 86.7599C15.4344 86.9714 15.2515 87.2236 15.1234 87.5165C14.9843 87.7991 14.9213 88.1216 14.9346 88.484C14.9532 88.9957 15.1127 89.4168 15.413 89.7474C15.7132 90.078 16.1171 90.3247 16.6248 90.4876C17.1213 90.6402 17.6841 90.705 18.313 90.6819C18.9525 90.6585 19.5089 90.5474 19.9819 90.3487C20.4443 90.1503 20.8027 89.881 21.0572 89.5408C21.3112 89.1899 21.4295 88.7747 21.412 88.295Z" fill="black"/>
<path d="M23.4778 78.0621C23.4079 78.6983 23.2507 79.2497 23.0063 79.7164C22.7524 80.1714 22.4219 80.5427 22.0147 80.8305C21.6086 81.1077 21.1418 81.3031 20.6143 81.4167C20.0879 81.5196 19.5172 81.5372 18.9023 81.4694C18.2661 81.3993 17.6917 81.2556 17.1791 81.0381C16.657 80.8089 16.212 80.513 15.844 80.1505C15.4761 79.7881 15.2117 79.3619 15.0509 78.872C14.8795 78.3809 14.8264 77.8385 14.8917 77.2447C14.9476 76.7358 15.089 76.2792 15.3158 75.875C15.5332 75.4589 15.839 75.117 16.2333 74.8493C16.6276 74.5815 17.1144 74.3991 17.6938 74.302C18.2626 74.2037 18.9216 74.2119 19.6709 74.3267L19.0286 80.759L18.1221 80.6591L18.6999 74.9601L19.3401 75.4331C18.6462 75.303 18.0555 75.3076 17.568 75.4471C17.0817 75.5759 16.7021 75.8077 16.4292 76.1425C16.1575 76.4667 15.9949 76.8727 15.9413 77.3604C15.8842 77.8799 15.9667 78.3505 16.1886 78.772C16.4106 79.1935 16.7644 79.5383 17.25 79.8065C17.7262 80.0628 18.3142 80.2296 19.0139 80.3067C20.0212 80.4177 20.8249 80.2809 21.4252 79.8963C22.016 79.5 22.3621 78.8406 22.4634 77.9181C22.5018 77.5682 22.4985 77.2567 22.4534 76.9834C22.3977 76.709 22.3056 76.4735 22.1769 76.2769C22.0495 76.0697 21.8914 75.8967 21.7028 75.7578C21.5047 75.6072 21.2872 75.4867 21.0504 75.3962L21.4202 74.3746C21.7902 74.5226 22.1179 74.7144 22.4032 74.9497C22.6791 75.1733 22.9074 75.4399 23.088 75.7495C23.2686 76.0592 23.3915 76.4054 23.4568 76.7881C23.522 77.1709 23.529 77.5956 23.4778 78.0621Z" fill="black"/>
<path d="M25.7993 68.9539C25.6512 69.5215 25.4599 70.0007 25.2256 70.3914C25.0017 70.7849 24.7385 71.0964 24.436 71.3259C24.1259 71.5424 23.7921 71.6811 23.4345 71.7418C23.0796 71.7922 22.7074 71.7609 22.318 71.6479L22.399 70.5776C22.7803 70.7215 23.1294 70.7357 23.4462 70.6202C23.7656 70.4943 24.0461 70.2645 24.2876 69.9308C24.5187 69.5944 24.7016 69.1682 24.8363 68.6521C25.0088 67.9916 25.0286 67.451 24.8959 67.0303C24.7632 66.6097 24.4956 66.3466 24.0932 66.2413C23.7836 66.1602 23.5155 66.1948 23.2889 66.3449C23.0623 66.4951 22.8516 66.7321 22.6568 67.056C22.462 67.3799 22.2654 67.753 22.067 68.1751C21.8875 68.5251 21.699 68.8671 21.5015 69.2014C21.304 69.5356 21.0836 69.8307 20.8404 70.0868C20.5999 70.3325 20.3212 70.5132 20.0044 70.6287C19.6903 70.7339 19.3321 70.7338 18.9296 70.6285C18.455 70.5042 18.0797 70.2736 17.8038 69.9368C17.5203 69.5869 17.345 69.1606 17.2778 68.6578C17.203 68.1421 17.2491 67.5642 17.4161 66.9243C17.5859 66.2741 17.8332 65.749 18.1581 65.3489C18.483 64.9488 18.8636 64.6736 19.2997 64.5231C19.7359 64.3727 20.2029 64.3572 20.7009 64.4765L20.6509 65.555C20.2691 65.455 19.9301 65.4655 19.634 65.5865C19.3302 65.6944 19.0746 65.8921 18.8673 66.1796C18.6599 66.4671 18.4997 66.8276 18.3865 67.2611C18.233 67.8494 18.2252 68.3436 18.3633 68.7436C18.5015 69.1436 18.7666 69.395 19.1587 69.4976C19.4579 69.576 19.726 69.5414 19.9629 69.3939C20.1922 69.2335 20.4029 68.9964 20.595 68.6829C20.7768 68.3666 20.9629 68.0128 21.1532 67.6216C21.3435 67.2304 21.5388 66.8625 21.7389 66.518C21.9391 66.1735 22.1595 65.8783 22.4 65.6326C22.6406 65.3868 22.9165 65.2165 23.2279 65.1216C23.542 65.0164 23.9054 65.0178 24.3182 65.1259C24.8444 65.2637 25.2466 65.5178 25.5247 65.8884C25.7952 66.2459 25.9497 66.6888 25.9881 67.2171C26.0266 67.7454 25.9637 68.3243 25.7993 68.9539Z" fill="black"/>
<path d="M28.1987 62.4961L20.6168 59.2693L21.0793 58.1794L28.6612 61.4061L28.1987 62.4961ZM19.4789 58.1416C19.3622 58.4166 19.2207 58.5998 19.0544 58.6913C18.8783 58.7787 18.6774 58.7743 18.4516 58.6782C18.2259 58.5821 18.0882 58.4424 18.0386 58.259C17.9791 58.0714 18.0057 57.845 18.1182 57.5799C18.2348 57.305 18.3812 57.1238 18.5573 57.0365C18.7236 56.945 18.9196 56.9472 19.1454 57.0433C19.3711 57.1394 19.5137 57.2812 19.5732 57.4688C19.6228 57.6522 19.5914 57.8765 19.4789 58.1416Z" fill="black"/>
<path d="M34.9266 56.335C34.477 57.0728 34.0533 57.6452 33.6554 58.0521C33.2631 58.4498 32.8793 58.6903 32.5039 58.7734C32.1431 58.8529 31.7898 58.787 31.444 58.5756C31.0253 58.3197 30.7812 57.9517 30.7115 57.4716C30.6383 56.9768 30.7552 56.3544 31.0623 55.6045L30.8166 55.4543C30.5259 55.9518 30.2493 56.2827 29.9867 56.4473C29.7149 56.6062 29.4653 56.6161 29.2378 56.4771C28.992 56.3269 28.8594 56.0833 28.8399 55.7463C28.8259 55.4003 28.9099 54.914 29.0918 54.2876L28.846 54.1374C28.513 54.684 28.0938 55.0028 27.5886 55.094C27.0889 55.1762 26.5842 55.0615 26.0745 54.7499C25.6012 54.4607 25.2757 54.0929 25.0979 53.6468C24.9166 53.1859 24.881 52.6703 24.9912 52.1001C25.0978 51.5152 25.3453 50.9039 25.7339 50.2663L27.7072 47.0282L28.6082 47.5789L26.9377 49.5207L27.1835 49.6709C27.6126 49.2331 28.0543 48.9593 28.5085 48.8494C28.9592 48.7248 29.412 48.8015 29.8671 49.0797C30.2584 49.3189 30.5349 49.6441 30.6965 50.0554C30.8545 50.452 30.8822 50.919 30.7796 51.4564C30.6679 51.9881 30.415 52.5774 30.0209 53.2241C29.9377 53.3607 29.8471 53.4991 29.7492 53.6393C29.6477 53.7648 29.5177 53.9166 29.3592 54.0948C29.3565 54.4682 29.3734 54.7786 29.41 55.026C29.4467 55.2734 29.5196 55.4304 29.6288 55.4972C29.738 55.5639 29.8716 55.5394 30.0297 55.4235C30.1933 55.2984 30.3536 55.1276 30.5106 54.911C30.6676 54.6945 30.8043 54.4905 30.9209 54.2992L31.8201 52.8236C31.9256 52.6506 32.0843 52.4413 32.2963 52.1959C32.4993 51.9448 32.7431 51.7189 33.028 51.5179C33.3037 51.3114 33.62 51.1922 33.9767 51.1602C34.339 51.1191 34.7295 51.2265 35.1481 51.4824C35.6214 51.7717 35.9148 52.151 36.0285 52.6205C36.1567 53.0865 36.1181 53.6316 35.9124 54.256C35.7215 54.8769 35.3929 55.5699 34.9266 56.335ZM34.0552 55.8587C34.4382 55.2302 34.7109 54.6905 34.8732 54.2396C35.0355 53.7888 35.0839 53.4121 35.0185 53.1096C34.9677 52.8035 34.8057 52.567 34.5327 52.4001C34.2779 52.2444 34.0405 52.1931 33.8208 52.2463C33.601 52.2994 33.4027 52.4095 33.226 52.5766C33.0402 52.738 32.8789 52.9207 32.7421 53.1246C32.6018 53.3139 32.4872 53.4814 32.3984 53.6272L31.4493 55.1847C31.2452 55.8476 31.1886 56.3505 31.2793 56.6935C31.3701 57.0365 31.5338 57.2803 31.7704 57.425C32.0526 57.5974 32.3229 57.6252 32.5816 57.5082C32.8402 57.3913 33.0922 57.1827 33.3375 56.8826C33.5884 56.5734 33.8276 56.2321 34.0552 55.8587ZM29.3556 52.6862C29.7331 52.0668 29.8961 51.5226 29.8446 51.0536C29.7931 50.5846 29.5535 50.2194 29.1258 49.958C28.6798 49.6854 28.2113 49.6241 27.7202 49.774C27.2347 49.9148 26.7949 50.3085 26.4008 50.9552C26.0289 51.5655 25.8814 52.1254 25.9581 52.6349C26.0313 53.1297 26.2864 53.5106 26.7232 53.7776C27.0145 53.9556 27.3165 54.0339 27.6293 54.0126C27.933 53.9857 28.2328 53.8626 28.5287 53.6435C28.8247 53.4243 29.1003 53.1052 29.3556 52.6862Z" fill="black"/>
<path d="M38.014 47.4914L33.9943 44.3462L31.5245 42.4137L32.2232 41.518L34.2347 43.3357L34.3823 43.1464C33.9449 42.6146 33.6379 42.1238 33.4612 41.674C33.2826 41.2092 33.2316 40.763 33.3082 40.3353C33.3764 39.9011 33.5679 39.4822 33.8828 39.0785C34.434 38.372 35.1068 38.0384 35.9014 38.0778C36.6941 38.1021 37.5819 38.4988 38.5648 39.2679L42.2065 42.1173L41.4782 43.0509L37.9121 40.2606C37.1561 39.669 36.5023 39.3538 35.9508 39.3151C35.4058 39.2679 34.9497 39.4798 34.5822 39.9508C34.2608 40.3629 34.1131 40.8297 34.1391 41.3512C34.1717 41.8643 34.3409 42.3759 34.6465 42.8859C34.9521 43.3959 35.3513 43.864 35.844 44.2902L38.7423 46.5579L38.014 47.4914Z" fill="black"/>
<path d="M59.4225 26.3197L58.8934 25.1894C59.1194 24.4646 59.5767 23.9318 60.2574 23.6122C60.8367 23.3403 61.5128 23.1996 62.279 23.1757C63.0451 23.1519 63.6556 23.0597 64.0756 22.8625C64.5826 22.6245 65.0851 21.9997 65.341 21.2256L65.8633 22.3414C65.6295 23.0874 65.1723 23.6203 64.4916 23.9399C63.8833 24.2254 63.2072 24.3661 62.4487 24.3687C61.7116 24.3789 61.1078 24.4856 60.6589 24.6964C60.152 24.9344 59.6929 25.5388 59.4225 26.3197Z" fill="black"/>
</svg>
