<svg width="120" height="120" viewBox="0 0 120 120" fill="none" xmlns="http://www.w3.org/2000/svg">
<path d="M60.2098 8.96731L64.4999 0.981745L65.4305 1.08224L67.8692 9.79442L67.0102 9.70166L66.2383 6.9026L62.3966 6.48776L61.033 9.0562L60.2098 8.96731ZM62.7458 5.82541L66.0386 6.18099L64.8554 1.93743L64.8076 1.93228L62.7458 5.82541Z" fill="#211A1E"/>
<path d="M71.9044 10.5791L74.2835 2.5231L75.0315 2.74401L72.6524 10.8001L71.9044 10.5791Z" fill="#211A1E"/>
<path d="M79.518 9.63621L79.8153 9.00689L83.2115 10.6111L82.9142 11.2404L79.518 9.63621Z" fill="#211A1E"/>
<path d="M85.617 15.8623L93.3168 11.0781L94.0734 11.6291L91.8447 20.3974L91.1462 19.8888L91.8723 17.0775L88.7488 14.8028L86.2863 16.3497L85.617 15.8623ZM89.3816 14.4027L92.0589 16.3524L93.1485 12.0838L93.1097 12.0556L89.3816 14.4027Z" fill="#211A1E"/>
<path d="M101.036 25.5926L101.188 25.4572L101.682 26.0135C100.175 27.3519 98.5782 27.1805 97.1123 25.5293C95.7022 23.9409 95.5749 21.9358 97.7287 20.0238L98.0338 19.7529C100.188 17.8409 102.163 18.2049 103.574 19.7933C105.039 21.4445 105.02 23.0499 103.603 24.3087L103.109 23.7523L103.261 23.6168C104.207 22.7295 104.198 21.5815 103.035 20.2713C101.816 18.8983 100.397 18.7459 98.8089 20.156L98.0371 20.8412C96.4487 22.2513 96.4319 23.6783 97.6508 25.0513C98.8139 26.3615 99.9529 26.5057 101.036 25.5926Z" fill="#211A1E"/>
<path d="M103.285 33.3976L109.987 29.6227L108.467 26.9252L109.084 26.5777L112.494 32.6315L111.877 32.9789L110.369 30.3023L103.667 34.0773L103.285 33.3976Z" fill="#211A1E"/>
<path d="M116.264 49.5865C116.549 51.3395 115.373 52.3331 113.644 52.6143L113.241 52.6798C111.512 52.961 110.082 52.3911 109.797 50.6382C109.587 49.3471 110.202 48.5663 111.109 48.1635L111.101 48.1161L109.549 48.3685L109.432 47.646L118.078 46.2399L118.196 46.9624L114.24 47.6057L114.247 47.6531C115.224 47.7497 116.054 48.2955 116.264 49.5865ZM112.333 47.9158C110.9 48.1489 110.222 48.8426 110.463 50.3232C110.704 51.8037 111.588 52.1584 113.092 51.9137L113.542 51.8406C115.047 51.5959 115.785 50.9774 115.544 49.4969C115.303 48.0163 114.429 47.5749 112.925 47.8195L112.333 47.9158Z" fill="#211A1E"/>
<path d="M108.72 58.5601C108.731 58.2723 108.747 58.1408 108.781 57.8899L109.44 57.914L109.42 58.4536C109.394 59.1852 109.628 59.3498 110.774 59.86L117.213 57.4778L117.183 58.3052L111.768 60.2686L111.766 60.3166L117.029 62.5024L117.001 63.2819L110.782 60.6169C108.867 59.7903 108.687 59.4715 108.72 58.5601Z" fill="#211A1E"/>
<path d="M107.789 76.9643C108.445 75.3266 109.969 75.0707 111.596 75.7218L111.975 75.8734C113.601 76.5245 114.528 77.7615 113.872 79.3992C113.382 80.6246 112.457 80.9653 111.483 80.847L111.465 80.8915L115.186 82.381L114.91 83.0717L106.777 79.8163L107.054 79.1256L108.513 79.7098L108.531 79.6652C107.733 79.0745 107.299 78.1897 107.789 76.9643ZM111.284 76.437C109.869 75.8707 108.928 76.0242 108.371 77.4168C107.809 78.8205 108.324 79.634 109.672 80.1736L110.229 80.3965C111.643 80.9629 112.588 80.7336 113.15 79.3299C113.708 77.9373 113.122 77.1729 111.707 76.6065L111.284 76.437Z" fill="#211A1E"/>
<path d="M103.152 86.6064C104.239 84.9661 105.817 84.9752 107.247 85.9233L107.657 86.1951C109.078 87.1366 109.681 88.616 108.613 90.2264C107.546 91.8367 106.221 91.8802 104.551 90.773L104.381 90.6603L107.013 86.6894L106.703 86.4839C105.593 85.7479 104.564 85.7573 103.742 86.9976C102.986 88.1378 103.218 88.9393 103.822 89.3537L103.935 89.4433L103.524 90.0634C102.504 89.3439 102.158 88.1067 103.152 86.6064ZM107.503 87.0143L105.282 90.365C106.395 91.031 107.254 91.082 108.063 89.8617C108.865 88.6515 108.527 87.7504 107.503 87.0143Z" fill="#211A1E"/>
<path d="M97.078 94.5677C98.1437 93.4951 99.3132 93.0501 100.547 94.2256L100.023 94.7534L99.8953 94.6265C99.1122 93.8823 98.3327 94.2412 97.5461 95.0329C96.7173 95.8671 96.4988 96.5466 96.9755 97.0203L97.0862 97.1302C97.5544 97.5954 97.9446 97.5602 98.681 97.0063L99.8492 96.1371C100.713 95.5064 101.468 95.3937 102.157 96.0788L102.327 96.2479C103.093 97.0092 102.766 98.1387 101.827 99.0836C100.466 100.454 99.4635 100.237 98.5103 99.3403L99.0347 98.8126L99.1709 98.9309C99.8092 99.5313 100.437 99.5463 101.359 98.6184C102.12 97.8523 102.263 97.2324 101.777 96.7503L101.658 96.6319C101.241 96.2175 100.842 96.2951 100.241 96.7468L99.0733 97.616C98.0659 98.3575 97.3194 98.4108 96.5958 97.6918L96.4256 97.5227C95.7105 96.8122 95.9869 95.6658 97.078 94.5677Z" fill="#211A1E"/>
<path d="M91.6582 99.7992L95.3399 104.926L94.7453 105.353L91.0636 100.226L91.6582 99.7992ZM96.1233 105.811L96.6973 106.611L95.898 107.185L95.3241 106.385L96.1233 105.811Z" fill="#211A1E"/>
<path d="M83.345 110.034C82.8344 108.975 83.5519 107.976 84.8275 107.362C85.3139 107.127 85.788 107.005 86.2125 106.974C86.4818 106.538 86.6154 106.207 86.4435 105.85C86.2819 105.515 85.9567 105.365 85.4487 105.61L82.9732 106.803C81.7085 107.413 80.8746 107.175 80.3692 106.127C79.869 105.089 80.2183 104.321 81.483 103.712L83.8504 102.571C85.0179 102.008 85.7004 102.318 86.0338 103.01C86.3308 103.626 86.1452 104.209 85.6113 104.759L85.6321 104.802C86.1819 104.644 86.6461 104.833 86.8857 105.33C87.141 105.86 86.9567 106.362 86.4599 106.934L86.4756 106.967C87.0707 107.013 87.5657 107.294 87.8419 107.867L87.9773 108.148C88.488 109.207 87.7812 110.201 86.4948 110.821C85.4679 111.316 84.4796 111.366 83.8703 110.82L83.8271 110.841C84.209 111.523 84.0742 111.934 83.5229 112.2C83.3067 112.304 83.1453 112.329 83.006 112.316L82.7194 111.721L83.1842 111.497C83.649 111.273 83.8452 111.072 83.4804 110.315L83.345 110.034ZM85.5226 103.47C85.2882 102.983 84.872 102.811 84.137 103.165L81.6615 104.358C80.894 104.728 80.6888 105.187 80.9545 105.738L81.0431 105.922C81.3088 106.473 81.7954 106.598 82.5629 106.229L85.3518 104.884C85.7028 104.369 85.7519 103.945 85.5226 103.47ZM87.2409 108.223C86.8814 107.477 86.1034 107.466 85.1089 107.945C84.1035 108.43 83.6493 109.035 84.0088 109.781L84.0922 109.954C84.4517 110.7 85.2081 110.722 86.2135 110.237C87.208 109.758 87.6838 109.142 87.3243 108.396L87.2409 108.223Z" fill="#211A1E"/>
<path d="M74.9682 115.264C73.6283 115.594 72.6544 115.253 72.2409 113.575L71.2501 109.555L71.9725 109.377L72.9058 113.164C73.259 114.597 73.9511 114.797 75.0812 114.519C76.1998 114.243 76.822 113.558 76.5061 112.277L75.5727 108.49L76.2835 108.315L77.794 114.443L77.0833 114.619L76.7617 113.314L76.7151 113.325C76.6481 114.207 76.2498 114.948 74.9682 115.264Z" fill="#211A1E"/>
<path d="M38.6179 105.984C40.5499 106.95 41.3549 108.748 40.067 111.324L39.8899 111.678C38.6019 114.254 36.6432 114.657 34.7541 113.712C32.7685 112.719 32.1513 111.217 32.9777 109.564L33.6432 109.896L33.5627 110.084C33.0314 111.201 33.4876 112.274 35.0761 113.068C36.7183 113.889 38.0706 113.492 39.0205 111.592L39.482 110.669C40.4265 108.78 39.9435 107.438 38.2584 106.596C36.6376 105.786 35.5107 106 34.4964 107.922L37.0724 109.209L36.7772 109.8L33.6109 108.217L35.4516 104.535L35.8917 104.755L35.2316 106.451L35.2745 106.473C36.1546 105.437 37.3192 105.335 38.6179 105.984Z" fill="#211A1E"/>
<path d="M23.591 106.711C21.8521 105.274 21.4162 103.466 23.251 101.246L23.5109 100.931C25.3457 98.7116 27.2037 98.7994 28.9426 100.237L31.3012 102.186L25.9496 108.661L23.591 106.711ZM30.2489 102.235L28.547 100.828C27.0301 99.5745 25.6918 99.5737 24.3387 101.211L23.6812 102.006C22.328 103.643 22.5807 104.958 24.0976 106.211L25.7995 107.618L30.2489 102.235Z" fill="#211A1E"/>
<path d="M22.6161 94.6789L15.9859 99.8364L13.7903 97.0139C12.7956 95.7352 12.5808 94.4428 13.85 93.4555L14.2952 93.1092C15.5644 92.1219 16.7642 92.648 17.7589 93.9267L19.4756 96.1336L22.1372 94.0632L22.6161 94.6789ZM18.9263 96.5609L17.1432 94.2688C16.4064 93.3216 15.6276 93.1217 14.813 93.7553L14.3489 94.1164C13.5343 94.75 13.546 95.5467 14.2828 96.4939L16.0658 98.7861L18.9263 96.5609Z" fill="#211A1E"/>
<path d="M16.0642 85.926L8.4746 89.5257L6.82901 86.0562C6.18106 84.69 6.26549 83.468 7.63162 82.82L8.05447 82.6195C9.10617 82.1206 9.87579 82.5392 10.3842 83.3871L10.4276 83.3666C10.0539 82.4946 10.1277 81.7822 11.1252 81.3091L11.8625 80.9594C12.3287 80.7383 12.8274 80.5017 13.3181 80.1362L13.6524 80.8409C13.1617 81.2065 12.6629 81.443 12.1967 81.6642L11.6654 81.9162C10.7547 82.3481 10.6522 82.8881 11.0893 83.8097L12.4881 86.7588L15.7299 85.2212L16.0642 85.926ZM11.8484 87.0622L10.5165 84.2541C10.0434 83.2566 9.37996 82.8939 8.52342 83.3002L7.97046 83.5624C7.11392 83.9687 6.96988 84.7011 7.44813 85.7094L8.78003 88.5175L11.8484 87.0622Z" fill="#211A1E"/>
<path d="M2.50072 45.8398C3.10116 43.6652 4.57294 42.5279 7.34907 43.2944L7.74235 43.403C10.5185 44.1695 11.1982 45.9009 10.5977 48.0755L9.78332 51.0251L1.6863 48.7895L2.50072 45.8398ZM9.30846 50.0848L9.89612 47.9565C10.4199 46.0595 9.87331 44.8379 7.82592 44.2726L6.83114 43.9979C4.78375 43.4326 3.68781 44.2006 3.16402 46.0977L2.57636 48.226L9.30846 50.0848Z" fill="#211A1E"/>
<path d="M13.0854 40.0344L5.67759 36.074L7.36356 32.9204C8.12734 31.4918 9.22077 30.77 10.6388 31.5282L11.1362 31.7941C12.5543 32.5522 12.5614 33.8623 11.7977 35.291L10.4794 37.7567L13.4532 39.3465L13.0854 40.0344ZM9.86566 37.4286L11.2348 34.8676C11.8006 33.8093 11.6665 33.0165 10.7564 32.5299L10.2379 32.2527C9.32777 31.7662 8.60462 32.1007 8.03885 33.159L6.66971 35.72L9.86566 37.4286Z" fill="#211A1E"/>
<path d="M18.5347 30.5767L11.9474 25.3643L12.4314 24.7527L19.0187 29.965L18.5347 30.5767Z" fill="#211A1E"/>
<path d="M22.4019 25.4714L19.3962 16.9192L20.0977 16.2996L28.1765 20.3718L27.5289 20.9437L24.9411 19.6269L22.0448 22.1846L23.0225 24.9233L22.4019 25.4714ZM21.791 21.4802L24.2736 19.2878L20.3416 17.3009L20.3057 17.3327L21.791 21.4802Z" fill="#211A1E"/>
</svg>
