<svg width="28" height="28" viewBox="0 0 28 28" fill="none" xmlns="http://www.w3.org/2000/svg">
<path d="M4.66659 23.3334C4.02492 23.3334 3.47561 23.1049 3.01867 22.6479C2.56172 22.191 2.33325 21.6417 2.33325 21V7.00002C2.33325 6.35835 2.56172 5.80905 3.01867 5.3521C3.47561 4.89516 4.02492 4.66669 4.66659 4.66669H23.3333C23.9749 4.66669 24.5242 4.89516 24.9812 5.3521C25.4381 5.80905 25.6666 6.35835 25.6666 7.00002V21C25.6666 21.6417 25.4381 22.191 24.9812 22.6479C24.5242 23.1049 23.9749 23.3334 23.3333 23.3334H4.66659ZM13.9999 15.1667L4.66659 9.33335V21H23.3333V9.33335L13.9999 15.1667ZM13.9999 12.8334L23.3333 7.00002H4.66659L13.9999 12.8334ZM4.66659 9.33335V7.00002V21V9.33335Z" fill="white"/>
</svg>
