<svg width="35" height="24" viewBox="0 0 35 24" fill="none" xmlns="http://www.w3.org/2000/svg">
<path d="M11.6323 0.5H0V12.1717H9.66878H11.6323H23.2646V0.5H11.6323Z" fill="#07C4F4"/>
<path d="M23.2651 12.1718H22.3726V23.8435H23.2651V12.1718Z" fill="#07C4F4"/>
<path d="M12.5248 12.1718H11.6323V23.8435H12.5248V12.1718Z" fill="#07C4F4"/>
<path d="M14.3158 12.1718H13.4233V23.8435H14.3158V12.1718Z" fill="#07C4F4"/>
<path d="M16.1012 12.1718H15.2087V23.8435H16.1012V12.1718Z" fill="#07C4F4"/>
<path d="M17.8915 12.1718H16.999V23.8435H17.8915V12.1718Z" fill="#07C4F4"/>
<path d="M19.6825 12.1718H18.79V23.8435H19.6825V12.1718Z" fill="#07C4F4"/>
<path d="M21.4733 12.1718H20.5808V23.8435H21.4733V12.1718Z" fill="#07C4F4"/>
<path d="M34.8969 0.499939H23.2646V1.39547H34.8969V0.499939Z" fill="#07C4F4"/>
<path d="M34.8969 11.2762H23.2646V12.1718H34.8969V11.2762Z" fill="#07C4F4"/>
<path d="M34.8969 9.4792H23.2646V10.3747H34.8969V9.4792Z" fill="#07C4F4"/>
<path d="M34.8969 7.68219H23.2646V8.57772H34.8969V7.68219Z" fill="#07C4F4"/>
<path d="M34.8969 5.88501H23.2646V6.78054H34.8969V5.88501Z" fill="#07C4F4"/>
<path d="M34.8969 4.088H23.2646V4.98353H34.8969V4.088Z" fill="#07C4F4"/>
<path d="M34.8969 2.29704H23.2646V3.19257H34.8969V2.29704Z" fill="#07C4F4"/>
</svg>
