<svg width="20" height="20" viewBox="0 0 20 20" fill="none" xmlns="http://www.w3.org/2000/svg">
<path d="M18.7854 0C18.8704 0.024292 18.9616 0.042511 19.0466 0.0668031C19.9519 0.321869 20.2921 1.40894 19.6967 2.13162C19.6359 2.2045 19.563 2.27738 19.4962 2.34418C16.9992 4.84019 14.4961 7.34226 11.9991 9.83827C11.9444 9.89293 11.8715 9.92936 11.7803 9.99009C11.8897 10.0812 11.9565 10.1298 12.0112 10.1844C14.5265 12.6987 17.0356 15.2068 19.5509 17.721C19.9033 18.0733 20.0734 18.4802 19.9701 18.9721C19.7696 19.9073 18.676 20.3142 17.9166 19.7251C17.8315 19.6644 17.7586 19.5854 17.6857 19.5126C15.1887 17.0166 12.6856 14.5145 10.1886 12.0185C10.1339 11.9638 10.0914 11.897 10.0306 11.8181C9.95163 11.897 9.89087 11.9456 9.84227 12.0003C7.32702 14.5145 4.8057 17.0287 2.29045 19.549C1.90162 19.9438 1.44596 20.0774 0.917397 19.9316C0.498189 19.8101 0.218717 19.5186 0.0729057 19.1057C0.0546793 19.0449 0.0303774 18.9842 0.00607548 18.9235C0.00607548 18.7777 0.00607548 18.6381 0.00607548 18.4923C0.0972076 18.1036 0.340227 17.8182 0.619699 17.5449C3.08634 15.0914 5.54691 12.6258 8.00748 10.1662C8.06216 10.1116 8.13506 10.0812 8.23835 10.0083C8.12291 9.91722 8.05608 9.87471 8.0014 9.82005C5.53476 7.3787 3.08027 4.91913 0.619699 2.47171C0.340227 2.19236 0.0911321 1.913 0 1.52432C0 1.37857 0 1.23889 0 1.09314C0.103283 0.728761 0.273396 0.400818 0.619699 0.218628C0.801963 0.12146 1.0146 0.0728761 1.2151 0C1.26977 0 1.31838 0 1.37306 0C1.84694 0.0607301 2.17502 0.346161 2.5031 0.674104C4.94544 3.1276 7.39993 5.57502 9.84835 8.02244C9.89695 8.07102 9.95163 8.11961 10.0488 8.2107C10.0974 8.13783 10.1339 8.06495 10.1886 8.01029C12.6309 5.56287 15.0793 3.1276 17.5156 0.674104C17.8376 0.352234 18.1657 0.0607301 18.6456 0C18.6821 0 18.7368 0 18.7854 0Z" fill="white"/>
</svg>
