<svg width="28" height="24" viewBox="0 0 28 24" fill="none" xmlns="http://www.w3.org/2000/svg">
<path d="M0 12.3694C0 11.9083 0 11.4472 0 10.9861C0.0145795 10.9365 0.0437386 10.8868 0.0437386 10.8372C0.211403 8.98571 0.867482 7.3045 1.94637 5.77935C3.89274 3.03409 6.59724 1.35288 9.88493 0.508724C12.1885 -0.0871473 14.5285 -0.115522 16.8758 0.196601C19.2158 0.508724 21.4028 1.23938 23.3418 2.59428C25.6964 4.24002 27.22 6.41779 27.7959 9.20561C27.8834 9.61705 27.9344 10.0427 28 10.4612C28 10.9436 28 11.4189 28 11.8941C27.9854 11.9651 27.9563 12.0289 27.9563 12.0998C27.8178 13.6605 27.3439 15.1147 26.5129 16.4625C24.982 18.9453 22.7368 20.5556 19.9594 21.4777C16.5624 22.6056 13.107 22.6624 9.62249 21.875C9.41838 21.8324 9.30174 21.875 9.14137 21.9956C8.59464 22.407 8.05519 22.8326 7.45743 23.166C5.81723 24.0953 4.00208 24.0315 2.19422 23.9676C2.18693 23.9676 2.18693 23.9534 2.17235 23.9322C2.23067 23.8754 2.2817 23.8116 2.34731 23.7477C2.74095 23.3647 3.1346 22.9816 3.52825 22.5985C4.2062 21.9317 4.62171 21.123 4.81854 20.208C4.86957 19.9881 4.82583 19.8533 4.60713 19.7114C2.50039 18.2927 0.984119 16.4483 0.32075 14.0081C0.167665 13.4689 0.102057 12.9156 0 12.3694Z" fill="white"/>
</svg>
