<svg width="33" height="23" viewBox="0 0 33 23" fill="none" xmlns="http://www.w3.org/2000/svg">
<path d="M32.9165 0H21.9443V0.844705H32.9165V0Z" fill="#35CE8D"/>
<path d="M10.9722 0H0V11.0093H9.1201H10.9722H21.9443V0H10.9722Z" fill="#35CE8D"/>
<path d="M21.9441 11.0094H21.1023V22.0187H21.9441V11.0094Z" fill="#35CE8D"/>
<path d="M11.814 11.0094H10.9722V22.0187H11.814V11.0094Z" fill="#35CE8D"/>
<path d="M13.5032 11.0094H12.6614V22.0187H13.5032V11.0094Z" fill="#35CE8D"/>
<path d="M15.1868 11.0094H14.345V22.0187H15.1868V11.0094Z" fill="#35CE8D"/>
<path d="M16.8763 11.0094H16.0344V22.0187H16.8763V11.0094Z" fill="#35CE8D"/>
<path d="M18.5655 11.0094H17.7236V22.0187H18.5655V11.0094Z" fill="#35CE8D"/>
<path d="M20.2549 11.0094H19.4131V22.0187H20.2549V11.0094Z" fill="#35CE8D"/>
<path d="M32.9165 10.1646H21.9443V11.0093H32.9165V10.1646Z" fill="#35CE8D"/>
<path d="M32.9165 8.46964H21.9443V9.31434H32.9165V8.46964Z" fill="#35CE8D"/>
<path d="M32.9165 6.77452H21.9443V7.61923H32.9165V6.77452Z" fill="#35CE8D"/>
<path d="M32.9165 5.07951H21.9443V5.92422H32.9165V5.07951Z" fill="#35CE8D"/>
<path d="M32.9165 3.38449H21.9443V4.2292H32.9165V3.38449Z" fill="#35CE8D"/>
<path d="M32.9165 1.69502H21.9443V2.53973H32.9165V1.69502Z" fill="#35CE8D"/>
</svg>
