<svg width="35" height="24" viewBox="0 0 35 24" fill="none" xmlns="http://www.w3.org/2000/svg">
<path d="M23.361 0H22.4685V11.6717H23.361V0Z" fill="#35CE8D"/>
<path d="M12.6208 0H11.7283V11.6717H12.6208V0Z" fill="#35CE8D"/>
<path d="M14.4118 0H13.5193V11.6717H14.4118V0Z" fill="#35CE8D"/>
<path d="M16.1972 0H15.3047V11.6717H16.1972V0Z" fill="#35CE8D"/>
<path d="M17.9875 0H17.095V11.6717H17.9875V0Z" fill="#35CE8D"/>
<path d="M19.7787 0H18.8862V11.6717H19.7787V0Z" fill="#35CE8D"/>
<path d="M21.5698 0H20.6772V11.6717H21.5698V0Z" fill="#35CE8D"/>
<path d="M11.6261 11.6717H10.7336V23.3434H11.6261V11.6717Z" fill="#35CE8D"/>
<path d="M0.892502 11.6717H0V23.3434H0.892502V11.6717Z" fill="#35CE8D"/>
<path d="M2.6779 11.6717H1.7854V23.3434H2.6779V11.6717Z" fill="#35CE8D"/>
<path d="M4.46892 11.6717H3.57642V23.3434H4.46892V11.6717Z" fill="#35CE8D"/>
<path d="M6.2592 11.6717H5.3667V23.3434H6.2592V11.6717Z" fill="#35CE8D"/>
<path d="M8.05046 11.6717H7.15796V23.3434H8.05046V11.6717Z" fill="#35CE8D"/>
<path d="M9.84148 11.6717H8.94897V23.3434H9.84148V11.6717Z" fill="#35CE8D"/>
<path d="M25.1039 11.6717H23.3606H11.7283V23.3493H23.3606H25.1039H34.9928V11.6717H25.1039Z" fill="#35CE8D"/>
</svg>
