<svg xmlns="http://www.w3.org/2000/svg" version="1.1" xmlns:xlink="http://www.w3.org/1999/xlink" width="97.76" height="97.76"><svg xmlns="http://www.w3.org/2000/svg" viewBox="0 0 97.76 97.76"><defs><style>.cls-1{fill:#231f20;}</style></defs><title>icon-black</title><g id="SvgjsG1008" data-name="Layer 2"><g id="SvgjsG1007" data-name="Layer 1"><polygon class="cls-1" points="58.66 58.66 58.66 55.73 58.66 39.11 39.11 39.11 36.91 39.11 19.55 39.11 19.55 58.66 36.91 58.66 39.11 58.66 39.11 58.66 39.11 78.21 55.36 78.21 58.66 78.21 78.21 78.21 78.21 58.66 58.66 58.66"></polygon><rect class="cls-1" x="76.71" width="1.5" height="19.55"></rect><rect class="cls-1" x="58.66" width="1.5" height="19.55"></rect><rect class="cls-1" x="61.67" width="1.5" height="19.55"></rect><rect class="cls-1" x="64.67" width="1.5" height="19.55"></rect><rect class="cls-1" x="67.68" width="1.5" height="19.55"></rect><rect class="cls-1" x="70.69" width="1.5" height="19.55"></rect><rect class="cls-1" x="73.7" width="1.5" height="19.55"></rect><rect class="cls-1" x="76.71" y="78.21" width="1.5" height="19.55"></rect><rect class="cls-1" x="58.66" y="78.21" width="1.5" height="19.55"></rect><rect class="cls-1" x="61.67" y="78.21" width="1.5" height="19.55"></rect><rect class="cls-1" x="64.67" y="78.21" width="1.5" height="19.55"></rect><rect class="cls-1" x="67.68" y="78.21" width="1.5" height="19.55"></rect><rect class="cls-1" x="70.69" y="78.21" width="1.5" height="19.55"></rect><rect class="cls-1" x="73.7" y="78.21" width="1.5" height="19.55"></rect><rect class="cls-1" x="78.21" y="58.66" width="19.55" height="1.5"></rect><rect class="cls-1" x="78.21" y="76.71" width="19.55" height="1.5"></rect><rect class="cls-1" x="78.21" y="73.7" width="19.55" height="1.5"></rect><rect class="cls-1" x="78.21" y="70.69" width="19.55" height="1.5"></rect><rect class="cls-1" x="78.21" y="67.68" width="19.55" height="1.5"></rect><rect class="cls-1" x="78.21" y="64.67" width="19.55" height="1.5"></rect><rect class="cls-1" x="78.21" y="61.67" width="19.55" height="1.5"></rect><rect class="cls-1" y="39.11" width="19.55" height="1.5"></rect><rect class="cls-1" y="57.15" width="19.55" height="1.5"></rect><rect class="cls-1" y="54.15" width="19.55" height="1.5"></rect><rect class="cls-1" y="51.14" width="19.55" height="1.5"></rect><rect class="cls-1" y="48.13" width="19.55" height="1.5"></rect><rect class="cls-1" y="45.12" width="19.55" height="1.5"></rect><rect class="cls-1" y="42.11" width="19.55" height="1.5"></rect><rect class="cls-1" x="57.15" y="19.55" width="1.5" height="19.55"></rect><rect class="cls-1" x="39.11" y="19.55" width="1.5" height="19.55"></rect><rect class="cls-1" x="42.11" y="19.55" width="1.5" height="19.55"></rect><rect class="cls-1" x="45.12" y="19.55" width="1.5" height="19.55"></rect><rect class="cls-1" x="48.13" y="19.55" width="1.5" height="19.55"></rect><rect class="cls-1" x="51.14" y="19.55" width="1.5" height="19.55"></rect><rect class="cls-1" x="54.15" y="19.55" width="1.5" height="19.55"></rect><polygon class="cls-1" points="81.14 19.55 78.21 19.55 58.66 19.55 58.66 39.11 78.21 39.11 81.14 39.11 97.76 39.11 97.76 19.55 81.14 19.55"></polygon></g></g></svg><style>@media (prefers-color-scheme: light) { :root { filter: none; } }
@media (prefers-color-scheme: dark) { :root { filter: none; } }
</style></svg>