<?xml version="1.0" encoding="utf-8"?>
<!-- Generator: Adobe Illustrator 21.0.0, SVG Export Plug-In . SVG Version: 6.00 Build 0)  -->
<svg version="1.1" id="Group_389" xmlns="http://www.w3.org/2000/svg" xmlns:xlink="http://www.w3.org/1999/xlink" x="0px" y="0px"
	 viewBox="0 0 179 60.3" style="enable-background:new 0 0 179 60.3;" xml:space="preserve">
<style type="text/css">
	.st0{fill:#414042;}
</style>
<title>bts-logo</title>
<path id="Path_537" class="st0" d="M124,36.4l-12.5-7.1l-0.1-14.4l12.4-7.3l12.6,7.1l0.1,14.4L124,36.4z"/>
<path id="Path_538" class="st0" d="M152.1,36.2L139.7,29l-0.1-14.4L152,7.3l12.6,7.1l0.1,14.4L152.1,36.2z"/>
<path id="Path_539" class="st0" d="M166.6,60.3L154,53.2l-0.1-14.4l12.5-7.3l12.5,7.1L179,53L166.6,60.3z"/>
<path id="Path_540" class="st0" d="M138.4,60.3l-12.5-7.1l-0.1-14.4l12.4-7.3l12.5,7.1l0.1,14.4L138.4,60.3z"/>
<path id="Path_541" class="st0" d="M67.8,52c5.4,0.1,7.7-2,11.7-5.3v9.2c-3.9,2.3-7.4,3.9-12.8,3.9c-4.2,0.1-8.3-1.1-11.7-3.4
	c-0.9-0.6-1.8-1.4-2.4-2.4c-0.7-1-1.3-2.2-1.6-3.3c-0.5-1.4-0.6-4.1-0.6-8V23.6h-5.1c-1.7-3-3.9-5.6-6.6-7.8h11.6L50.1,5.7L60.4,0
	v15.9h19.4c-0.6,0.6-1.2,1.3-1.6,2c-1.2,1.7-2,3.7-2.4,5.7H60.4v21.1C60.4,49.6,62.9,52,67.8,52z"/>
<path id="Path_542" class="st0" d="M44.3,35.6c-0.1-5.4-2.2-10.5-5.9-14.4c-3-3.1-6.9-5.2-11.2-5.9l0,0c-1.3-0.2-2.6-0.3-4-0.4
	c-4.8,0-9.5,1.4-13.5,4V0L0,5.7v50.9c2.7,1.1,5.5,1.8,8.3,2.3c3.3,0.6,6.7,0.9,10,0.9c7.9,0,14.2-2.1,18.9-6.2s7.1-9.6,7.1-16.6
	L44.3,35.6z M30.5,47.8c-2.8,2.8-6.6,4.2-10.6,4.1c-3.5,0-6.9-0.4-10.2-1.4V27.1c3.7-2.8,7.4-4.3,11-4.3c3.7-0.1,7.4,1.3,10,4.1
	c2.6,2.9,4,6.6,3.8,10.5C34.7,41.3,33.2,45.1,30.5,47.8L30.5,47.8z"/>
<path id="Path_543" class="st0" d="M109.8,47.7c0.1,3.4-1.6,6.7-4.3,8.7c-3.2,2.4-7.1,3.6-11,3.4c-2.4,0-4.8-0.2-7.1-0.8
	c-2.7-0.8-5.3-1.8-7.9-3v-9.3c2.4,1.6,5,3,7.7,4.2c2.1,1,4.3,1.5,6.6,1.6c1.7,0,3.4-0.4,4.8-1.4c1.2-0.6,1.9-1.8,2-3.2
	c0-1.2-0.4-2.3-1.3-3.2c-0.8-0.9-2.7-2-5.6-3.6c-5.7-3.1-9.5-5.7-11.2-7.9c-0.6-0.7-1.1-1.5-1.5-2.3c-0.7-1.5-1.2-3.1-1.2-4.8
	c-0.1-3.2,1.4-6.2,4-8.1c1.6-1.2,3.4-2.1,5.3-2.5c1.6-0.4,3.3-0.6,5-0.5c4.7,0.1,9.3,1.3,13.5,3.5V27c-5.2-3.1-9.6-4.5-12.9-4.5
	c-1.5-0.1-2.9,0.3-4.2,1.1c-1,0.6-1.6,1.6-1.6,2.8c0,1.1,0.6,2.2,1.4,2.9c1.6,1.3,3.3,2.4,5.1,3.3l3.2,1.7
	C106,38.3,109.8,42.8,109.8,47.7z"/>
</svg>
