<?xml version="1.0" encoding="utf-8"?>
<!-- Generator: Adobe Illustrator 21.0.0, SVG Export Plug-In . SVG Version: 6.00 Build 0)  -->
<svg version="1.1" id="Layer_1" xmlns="http://www.w3.org/2000/svg" xmlns:xlink="http://www.w3.org/1999/xlink" x="0px" y="0px"
	 viewBox="0 0 129.8 47.2" style="enable-background:new 0 0 129.8 47.2;" xml:space="preserve">
<style type="text/css">
	.st0{fill:#414042;}
</style>
<g>
	<g>
		<path class="st0" d="M14.6,18.6h19.9c1.5,0,2.7,1.4,2.7,3.1s-1.2,3.1-2.7,3.1H14.6c-2.5,0-4.7-1.2-6.3-3.1
			C9.9,19.8,12.1,18.6,14.6,18.6 M14.6,43.4H43v-6.2H14.6c-4.6,0-8.3-4-8.4-9C8.6,30,11.5,31,14.6,31h19.9c4.9,0,8.9-4.2,8.9-9.3
			s-4-9.3-8.9-9.3H14.6c-3.1,0-6,1-8.4,2.8c0.1-5,3.9-9,8.4-9H43V0H14.6C6.6,0,0,7,0,15.5c0,2.2,0.4,4.3,1.2,6.2
			c-0.8,1.9-1.2,4-1.2,6.2C0,36.4,6.6,43.4,14.6,43.4"/>
	</g>
	<g>
		<rect x="69.6" class="st0" width="2.6" height="17"/>
		<g>
			<path class="st0" d="M80.7,6.5c1.8,0,3.2,1.1,3.6,2.9H77C77.4,7.6,78.8,6.5,80.7,6.5 M80.8,17.4c2.1,0,4.8-1.1,6-4.2l0,0H84
				c-0.8,1.6-2.4,1.8-3.3,1.8c-1.7,0-3.6-1.1-3.8-3.3h10.2v-0.5c0-5.2-3.4-7-6.3-7c-4.1,0-6.7,2.6-6.7,6.7
				C74.1,14.8,76.7,17.4,80.8,17.4"/>
			<path class="st0" d="M75.1,32.1c1.8,0,3.2,1.1,3.6,2.9h-7.3C71.8,33.2,73.3,32.1,75.1,32.1 M75.2,43c2.1,0,4.8-1.1,6-4.2l0,0
				h-2.8c-0.8,1.6-2.4,1.8-3.3,1.8c-1.7,0-3.6-1.1-3.8-3.3h10.2v-0.5c0-5.2-3.4-7-6.3-7c-4.1,0-6.7,2.6-6.7,6.7
				C68.5,40.4,71.2,43,75.2,43"/>
			<path class="st0" d="M99.4,32.1c1.8,0,3.2,1.1,3.6,2.9h-7.3C96,33.2,97.5,32.1,99.4,32.1 M99.5,43c2.1,0,4.8-1.1,6-4.2l0,0h-2.8
				c-0.8,1.6-2.4,1.8-3.3,1.8c-1.7,0-3.6-1.1-3.8-3.3h10.2v-0.5c0-5.2-3.4-7-6.3-7c-4.1,0-6.7,2.6-6.7,6.7
				C92.8,40.4,95.4,43,99.5,43"/>
			<path class="st0" d="M97.8,17h3.5l-5.8-7.7l5.6-4.8h-4l-5.3,4.9V0h-2.6v17h2.6v-4.1c0-0.2,0.1-0.4,0.3-0.6l1.4-1.2L97.8,17z"/>
			<path class="st0" d="M127.1,11c0,2.2-1.8,4-4,4H123c-2.2,0-4-1.8-4-4v-0.6c0-2.2,1.8-4,4-4h0.1c2.2,0,4,1.8,4,4V11z M123.6,4
				h-0.9c-3.4,0-6.2,2.8-6.2,6.2v0.9c0,3.4,2.8,6.2,6.2,6.2h0.9c3.4,0,6.2-2.8,6.2-6.2v-0.9C129.8,6.8,127,4,123.6,4"/>
		</g>
		<rect x="83.4" y="25.6" class="st0" width="2.6" height="17"/>
		<g>
			<path class="st0" d="M88.3,44.4c0,0.2-0.2,0.4-0.4,0.4h-1.5l-0.8,2.4h2c1.8,0,3.3-1.5,3.3-3.3v-14h-2.6V44.4z"/>
			<path class="st0" d="M114.7,4.4c-2.6,0-4.8,2.2-4.8,4.8v7.7h2.7V8.6c0-1,0.8-1.8,1.8-1.8h2.1l0.8-2.4H114.7z"/>
			<path class="st0" d="M106,0.9h-2.6v3.5h-2.2v2.3h2.2v6.9c0,1.8,1.5,3.3,3.3,3.3h2l-0.8-2.4h-1.5c-0.2,0-0.4-0.2-0.4-0.4V6.8h3
				l0.8-2.3H106V0.9z"/>
			<path class="st0" d="M89.7,24.2c-0.9,0-1.7,0.7-1.7,1.6s0.8,1.6,1.7,1.6c0.9,0,1.7-0.7,1.7-1.6S90.6,24.2,89.7,24.2"/>
			<path class="st0" d="M54.8,31.7v5c0,3.3,2.7,5.9,5.9,5.9h6.9V40h-7c-1.8,0-3.3-1.5-3.3-3.3v-5.1c0-1.8,1.5-3.3,3.3-3.3h7v-2.6
				h-6.9C57.4,25.8,54.8,28.5,54.8,31.7"/>
			<path class="st0" d="M54.8,6v5c0,3.3,2.7,5.9,5.9,5.9h6.9v-2.6h-7c-1.8,0-3.3-1.5-3.3-3.3V9.6h9.2V7.1h-9.2V5.9
				c0-1.8,1.5-3.3,3.3-3.3h7V0.1h-6.9C57.4,0.1,54.8,2.8,54.8,6"/>
		</g>
	</g>
</g>
</svg>
