<?xml version="1.0" encoding="utf-8"?>
<!-- Generator: Adobe Illustrator 21.0.0, SVG Export Plug-In . SVG Version: 6.00 Build 0)  -->
<svg version="1.1" id="Layer_1" xmlns="http://www.w3.org/2000/svg" xmlns:xlink="http://www.w3.org/1999/xlink" x="0px" y="0px"
	 viewBox="0 0 211.5 65" style="enable-background:new 0 0 211.5 65;" xml:space="preserve">
<style type="text/css">
	.st0{fill:#414042;}
</style>
<g transform="translate(-881.717 -727.089)">
	<g transform="translate(881.717 730.216)">
		<path class="st0" d="M88.9,0.3H69.4C64.2,0.2,58.9,1,53.9,2.6C49.4,4.3,45.3,6.8,43.2,13c-2.2,6.3-10,32.3-12.3,36.1
			c-1.2,1.9-3.2,5.8-8.8,5.8H0v1.8h22.7c5.3,0.1,10.5-0.7,15.5-2.3c4.5-1.7,8.6-4.2,10.7-10.4C51.1,37.6,59,11.3,61.2,8
			c1.2-1.9,3.2-5.9,8.8-5.9h18.8L88.9,0.3z"/>
		<path class="st0" d="M91.9,34.8H70.6v1.9h9.9v3.2c0.1,3-0.2,5.9-0.7,8.8c-0.5,2-1.8,3.7-3.6,4.7c-1.7,1-3.6,1.5-5.6,1.5v1.8h0
			c5.2,0,10.2-1.6,14.4-4.6c4.6-3.1,6.9-8.1,6.9-15.2h0L91.9,34.8z"/>
		<path class="st0" d="M12.3,23c-0.1,0.4-0.3,0.7-0.5,1c-0.3,0.5-0.7,1-1.2,1.4C9.9,26.2,9,26.7,8,27c-1.9,0.4-3.8,0.6-5.8,0.6H0
			v1.9c2.7-0.1,5.4,0.1,8,0.6c1,0.3,1.9,0.8,2.7,1.5c0.4,0.4,0.8,0.9,1.2,1.4c0.2,0.3,0.4,0.7,0.5,1c0.7,2,1.1,4.2,1.2,6.3h2.2V16.7
			h-2.2C13.5,18.8,13.1,21,12.3,23"/>
		<path class="st0" d="M31.9,0.3H0v1.8h14c5.3,0,9,0.8,11.3,2.5c2.3,1.7,3.7,4.5,4.5,8.3h2.1V0.3z"/>
		<path class="st0" d="M211.5,56.8V45.1h-2V47c-0.7-1.4-2.1-2.2-3.7-2.1c-3.2,0-5.7,2.3-5.8,6.1c0,3.9,2.6,6.1,5.8,6.1
			c1.5,0.1,3-0.7,3.7-2.1v1.9H211.5z M209.4,51C209.3,51,209.4,51,209.4,51c0,2-1,4.5-3.5,4.5c-2.5,0-3.6-2.3-3.6-4.5
			s1.1-4.5,3.6-4.5C208.3,46.4,209.4,48.9,209.4,51C209.4,50.9,209.4,50.9,209.4,51 M199.8,56.8l-5.1-6.9l4.5-4.8h-2.5l-3.5,4
			c-0.3,0.4-0.7,0.9-1,1.3h-0.1V39.6H190v17.2h2.1v-4.4l1.1-1.2l4,5.6L199.8,56.8z M182,48c0-0.9,0.7-1.6,1.9-1.6
			c0.8,0,1.7,0.2,2.4,0.7l0.5-1.5c-0.9-0.5-1.8-0.8-2.8-0.7c-2.5,0-4,1.5-4,3.4c0,1.4,1,2.5,3.1,3.3c1.5,0.6,2.2,1.1,2.2,2.2
			c0,1-0.7,1.7-2.2,1.7c-1,0-2-0.3-2.8-0.8l-0.5,1.6c1,0.6,2.1,0.8,3.3,0.8c2.7,0,4.4-1.5,4.4-3.5c0-1.8-1.1-2.8-3.1-3.5
			C182.6,49.4,182,49,182,48 M181.6,34.1c0-3.6-2.3-6-5.6-6c-3.2,0-5.8,2.3-5.8,6.2c0,3.3,2,5.5,4.6,5.9v-1.7
			c-1.5-0.5-2.4-2.2-2.4-4.3c0-2.2,1.1-4.5,3.6-4.5c2.5,0,3.5,2.5,3.5,4.5c0,2.2-1,3.9-2.5,4.4v1.7
			C179.3,39.8,181.6,37.9,181.6,34.1 M168.4,30c0.3,0,0.5,0,0.7,0.1v-2c-0.2,0-0.4-0.1-0.6-0.1c-1.5,0.1-2.8,1.1-3.3,2.6h-0.1
			l-0.1-2.3h-1.9c0.1,1.1,0.1,2.3,0.1,3.7l0,8h2.1v-6.2c0-0.3,0-0.7,0.1-1C165.7,31.2,167,30.1,168.4,30 M166.2,44.8
			c-1.6,0-3.1,0.8-3.9,2.2h0l-0.1-1.9h-1.9c0.1,1,0.1,1.9,0.1,3.2v8.5h2.1v-7.1c0-0.3,0-0.7,0.1-1c0.4-1.3,1.5-2.1,2.9-2.2
			c2,0,2.7,1.6,2.7,3.5v6.7h2.1v-7C170.3,45.8,167.8,44.8,166.2,44.8 M157,29.9h3v-1.6h-3v-2.8l-2.1,0.7v2.2h-1.8v1.6h1.8v6.4
			c-0.1,1.1,0.2,2.2,0.8,3.1c0.6,0.6,1.4,0.9,2.3,0.9c0.6,0,1.3-0.1,1.9-0.3l-0.1-1.6c-0.4,0.1-0.8,0.2-1.2,0.1
			c-1.2,0-1.6-0.8-1.6-2.3L157,29.9z M152.3,40l-5.1-6.9l4.5-4.8h-2.5l-3.5,4c-0.3,0.4-0.7,0.9-1,1.3h0V22.8h-2.1V40h2.1v-4.4
			l1.1-1.2l4,5.6L152.3,40z M143.9,44.8c-1.5,0.1-2.8,1.1-3.3,2.6h-0.1l-0.1-2.3h-1.9c0.1,1.1,0.1,2.3,0.1,3.7l0,8h2.1v-6.2
			c0-0.3,0-0.7,0.1-1c0.1-1.5,1.4-2.6,2.9-2.7c0.3,0,0.5,0,0.8,0v-2C144.3,44.8,144.1,44.8,143.9,44.8 M140.1,34.6
			c0-0.1,0-0.1,0-0.2c0.1-1.2-0.2-2.4-0.7-3.6c-0.4-0.9-1.1-1.6-2-2c-0.9-0.5-1.9-0.7-2.9-0.7c-1.5-0.1-3,0.5-4,1.6
			c-1.1,1.3-1.6,2.9-1.5,4.5c-0.1,1.8,0.5,3.6,1.8,4.8c1,0.9,2.4,1.3,3.7,1.3c1.5,0.1,2.9-0.5,4-1.6c0.6-0.6,1.1-1.4,1.3-2.3h-2.2
			c-0.1,0.4-0.4,0.8-0.6,1.1c-1.2,1.4-3.3,1.5-4.7,0.3c-0.1-0.1-0.2-0.2-0.3-0.3c-1.3-2.1-1.3-4.7,0-6.7c1.2-1.4,3.3-1.5,4.7-0.3
			c0.1,0.1,0.2,0.2,0.3,0.3c0.5,0.6,0.8,1.3,0.9,2.1h-5.1v1.6L140.1,34.6L140.1,34.6z M124.7,40h2.1V22.8h-2.1V40z M124.5,51
			c0,3.7,2.5,6,5.6,6h0c2.8,0,5.8-1.9,5.8-6.3c0-3.6-2.3-6-5.6-6C127.1,44.8,124.5,47.1,124.5,51 M126.7,51c0-2.2,1.1-4.5,3.6-4.5
			c2.5,0,3.5,2.5,3.5,4.5c0,2.7-1.5,4.6-3.6,4.6h0C128.1,55.5,126.7,53.5,126.7,51 M122.1,34.6c0-0.1,0-0.1,0-0.2
			c0.1-1.2-0.2-2.4-0.7-3.6c-0.4-0.9-1.1-1.6-2-2c-0.9-0.5-1.9-0.7-2.9-0.7c-1.5-0.1-3,0.5-4,1.6c-1.1,1.3-1.6,2.9-1.5,4.5
			c-0.1,1.8,0.5,3.6,1.8,4.8c1,0.9,2.4,1.3,3.7,1.3c1.5,0.1,2.9-0.5,4-1.6c0.6-0.6,1.1-1.4,1.3-2.3h-2.2c-0.1,0.4-0.4,0.8-0.6,1.1
			c-1.2,1.4-3.3,1.5-4.7,0.3c-0.1-0.1-0.2-0.2-0.3-0.3c-1.3-2.1-1.3-4.7,0-6.7c1.2-1.4,3.3-1.5,4.7-0.3c0.1,0.1,0.2,0.2,0.3,0.3
			c0.5,0.6,0.8,1.3,0.9,2.1h-5.1v1.6L122.1,34.6L122.1,34.6z M111.1,51c-0.1,1.7,0.4,3.3,1.5,4.5c1.1,1.1,2.5,1.6,4,1.6
			c1,0,2-0.2,2.9-0.7c0.9-0.5,1.6-1.2,2-2c0.5-1.1,0.7-2.3,0.7-3.6c0-0.1,0-0.1,0-0.2h-7.2v1.6h5c-0.1,0.8-0.4,1.5-0.9,2.1
			c-1.2,1.4-3.3,1.5-4.7,0.3c-0.1-0.1-0.2-0.2-0.3-0.3c-1.3-2.1-1.3-4.7,0-6.7c1.2-1.4,3.3-1.5,4.7-0.3c0.1,0.1,0.2,0.2,0.3,0.3
			c0.3,0.3,0.5,0.7,0.6,1.1h2.2c-0.2-0.9-0.7-1.6-1.3-2.3c-1-1.1-2.5-1.6-4-1.6c-1.4,0-2.7,0.4-3.7,1.3
			C111.6,47.4,110.9,49.2,111.1,51 M147.8,46.4c-1.1,1.3-1.6,2.9-1.5,4.6c-0.1,1.8,0.5,3.6,1.8,4.8c1,0.9,2.4,1.3,3.7,1.3
			c1.5,0.1,2.9-0.5,4-1.6c0.6-0.6,1.1-1.4,1.3-2.3h-2.2c-0.1,0.4-0.4,0.8-0.6,1.1c-1.2,1.4-3.3,1.5-4.7,0.3
			c-0.1-0.1-0.2-0.2-0.3-0.3c-1.3-2.1-1.3-4.7,0-6.7c1.2-1.4,3.3-1.5,4.7-0.3c0.1,0.1,0.2,0.2,0.3,0.3c0.5,0.6,0.8,1.3,0.9,2.1h-5.1
			v1.6h7.2c0-0.1,0-0.1,0-0.2c0.1-1.2-0.2-2.4-0.7-3.6c-0.4-0.9-1.1-1.6-2-2c-0.9-0.5-1.9-0.7-2.9-0.7
			C150.3,44.8,148.8,45.3,147.8,46.4 M173.8,59.3c-0.6,0.6-1.5,0.9-2.3,0.9l0.2,1.7c1.3,0,2.6-0.5,3.6-1.3c1-1.1,1.4-2.5,1.4-4.8
			V45.1h-2.1v9.8C174.7,57.7,174.4,58.7,173.8,59.3"/>
		<path class="st0" d="M168.5,0c-1.6,0-3.1,0.8-3.9,2.2h-0.1l-0.1-1.9h-1.9c0.1,1,0.1,1.9,0.1,3.2V12h2.1V4.9c0-0.3,0-0.7,0.1-1
			c0.4-1.3,1.5-2.1,2.9-2.2c2,0,2.7,1.6,2.7,3.5V12h2.1V5C172.6,1,170.1,0,168.5,0"/>
		<path class="st0" d="M113.5,3.2c0-0.9,0.7-1.6,1.9-1.6c0.8,0,1.7,0.2,2.4,0.7l0.5-1.5c-0.9-0.5-1.8-0.8-2.8-0.7
			c-2.5,0-4,1.5-4,3.4c0,1.4,1,2.5,3.1,3.3c1.5,0.6,2.2,1.1,2.2,2.2c0,1-0.7,1.7-2.2,1.7c-1,0-2-0.3-2.8-0.8l-0.5,1.6
			c1,0.6,2.1,0.8,3.3,0.8c2.7,0,4.3-1.4,4.3-3.5c0-1.8-1.1-2.8-3.1-3.5C114.1,4.6,113.5,4.2,113.5,3.2"/>
		<path class="st0" d="M183.9,6.2c0,2-1,4.5-3.6,4.5c-2.5,0-3.6-2.3-3.6-4.5s1.1-4.5,3.6-4.5C182.9,1.6,183.9,4.1,183.9,6.2
			C183.9,6.1,183.9,6.1,183.9,6.2C183.9,6.2,183.9,6.2,183.9,6.2 M184,0.3v1.9c-0.7-1.4-2.1-2.2-3.7-2.1c-3.2,0-5.7,2.3-5.8,6.1
			c0,3.9,2.6,6.1,5.8,6.1c1.5,0.1,3-0.8,3.7-2.1V12h2V0.3L184,0.3z"/>
		<path class="st0" d="M140.3,10.6c-0.9,1.1-2.2,1.7-3.6,1.7c-1.3,0.1-2.6-0.5-3.4-1.6c-0.6-0.9-0.8-2-0.7-3.1V0.3h2v7.4
			c0,2,0.9,3,2.6,3c1,0,1.9-0.4,2.6-1.2c0.4-0.5,0.6-1.2,0.6-1.9V0.3h2v11.8h-2L140.3,10.6z"/>
		<path class="st0" d="M146.5,6.1c0,2.7,1.4,4.5,3.5,4.5s3.5-1.8,3.5-4.4s-1.4-4.4-3.5-4.4C147.9,1.7,146.5,3.5,146.5,6.1
			 M146.7,1.7c0.9-1.1,2.2-1.7,3.7-1.7c1.5,0,3,0.7,4,1.9c1.8,2.5,1.8,5.9,0,8.5c-1,1.2-2.4,1.9-4,1.9c-1.4,0-2.8-0.6-3.7-1.7v7.3
			h-2V0.3h2L146.7,1.7z"/>
	</g>
	<rect x="1039.6" y="730.5" class="st0" width="2" height="11.8"/>
	<g transform="translate(1002.987 727.089)">
		<path class="st0" d="M6.6,3.5l-3.4,4c-0.3,0.4-0.7,0.9-1,1.3h0V0H0v15.1h2.1v-4.4l1.1-1.2l4,5.6h2.6L4.6,8.3l4.5-4.8L6.6,3.5z"/>
	</g>
</g>
</svg>
