<?xml version="1.0" encoding="utf-8"?>
<!-- Generator: Adobe Illustrator 21.0.0, SVG Export Plug-In . SVG Version: 6.00 Build 0)  -->
<svg version="1.1" id="Layer_1" xmlns="http://www.w3.org/2000/svg" xmlns:xlink="http://www.w3.org/1999/xlink" x="0px" y="0px"
	 viewBox="0 0 349.7 95.9" style="enable-background:new 0 0 349.7 95.9;" xml:space="preserve">
<style type="text/css">
	.st0{fill:#414042;}
</style>
<path class="st0" d="M52,23.5l15.2,15.2L50.9,54.9h-12V42.8l6.1-6.1L31.1,23L52,2.1H0v91.6h73.3V2.1L52,23.5z M6.1,26.5h16.4
	l12.1,12.1v16.3H18.3L6.1,42.8V26.5z M34.6,75.4L22.4,87.6H6.2V71.2L18.3,59h16.3V75.4z M67.2,87.6H50.9L38.7,75.4V59.1h16.4
	l12.1,12.2C67.2,71.3,67.2,87.6,67.2,87.6z"/>
<path class="st0" d="M334.3,41.5l-13.6-6.9c-3-1.5-7.7-4.1-7.7-8.3c0-6.2,5.3-8.2,10.1-8.2c4.9,0,11.2,1.9,16.1,4.2
	c0.8,0.4,1.5,0.7,2.1,0.7c1.1,0,1.8-0.7,2.4-2.4l3.7-10.3c0.2-0.8,0.5-1.5,0.5-2c0-1.2-0.7-2.1-2.6-3C337.8,1.7,330.5,0,322,0
	c-13.8,0-29,9.5-29,26.5c0,11.1,5.8,19.4,14.5,23.9l15.9,8.2c3.7,1.9,7.2,4.4,7.2,9.4c0,6.5-6.3,9.4-11.2,9.4
	c-5.5,0-11.5-1.3-16.9-3.5l-5.1-2.1l-2.1,7.1l-2.1,7.1c-0.2,0.8-0.5,1.6-0.5,2.3c0,1.2,0.6,2.1,2.5,2.8c7.7,3,17,4.8,24.7,4.8
	c16.2,0,29.8-11.1,29.8-30.2C349.7,53.4,343.7,46.3,334.3,41.5z"/>
<polygon class="st0" points="188.8,75.5 188.8,1.9 168.5,1.9 168.5,93.8 220.5,93.8 220.5,75.5 "/>
<path class="st0" d="M103.9,1.9v91.9h57.2V75.5h-37V57.1H153c2.6,0,4-1.3,4-4.1V42.6c0-2.3-1.1-3.8-4.1-3.8h-28.7V20.4h37V2.1V1.9
	H103.9z"/>
<path class="st0" d="M227.3,1.9v91.9h57.2V75.5h-37V57.1h28.9c2.6,0,4-1.3,4-4.1V42.6c0-2.3-1.1-3.8-4.1-3.8h-28.7V20.4h37V2.1V1.9
	H227.3z"/>
</svg>
