<?xml version="1.0" encoding="utf-8"?>
<!-- Generator: Adobe Illustrator 21.0.0, SVG Export Plug-In . SVG Version: 6.00 Build 0)  -->
<svg version="1.1" id="Layer_1" xmlns="http://www.w3.org/2000/svg" xmlns:xlink="http://www.w3.org/1999/xlink" x="0px" y="0px"
	 viewBox="0 0 277.7 74.5" style="enable-background:new 0 0 277.7 74.5;" xml:space="preserve">
<style type="text/css">
	.st0{fill:#414042;}
</style>
<title>ELJ-logo2018-hor</title>
<desc>Created with Sketch.</desc>
<g id="Page-1">
	<g id="ELJ-logo2018-hor">
		<path id="Fill-1" class="st0" d="M21,28.4l20.7,17.8l-0.1,0.1L20.7,34.8L21,28.4z M20.5,39l28.8,12.7l0.1-0.1L16,18.4l-0.1,0
			l0.8,14.2l-8.9-4.9L26.5,0.1L26.4,0L0,17.6l0,0.1L20,7L20,7l0,0.1L1.4,30.6L17,37.4l2.1,37.1l0.1,0L20.5,39z"/>
		<path id="Fill-2" class="st0" d="M88.4,44.5v-2h-9.5v-5.9h8.9v-2h-8.9v-5.3h9.5v-2H76.4v17.3H88.4z M97.7,44.7v-1.8h-1.1
			c-1.2,0-1.7-0.6-1.7-2V27.3h-2.3v13.7c0,2.6,1.5,3.7,3.6,3.7H97.7z M111.8,38.9v-0.7c0-3.7-2.1-6.6-5.7-6.6c-3.7,0-6,3-6,6.5
			c0,3.8,2.5,6.5,6.8,6.5c1.4,0,2.8-0.2,4.2-0.7l-0.4-1.7c-1.1,0.3-2.5,0.5-3.7,0.5c-2.8,0-4.4-1.5-4.5-3.9H111.8z M109.6,37.2h-7.2
			c0.2-2.3,1.6-3.7,3.7-3.7C108.2,33.5,109.4,35,109.6,37.2z M126.6,44.5l-6.9-6.5l6.6-6.1h-2.9L118,37v-9.8h-2.3v17.3h2.3v-5.4
			l5.8,5.4H126.6z M135.2,44.5l-0.2-1.7c-0.4,0.1-0.9,0.1-1.2,0.1c-0.9,0-1.5-0.4-1.5-1.9v-7.4h2.5v-1.7h-2.5v-3.6H130v3.6h-1.7v1.7
			h1.7v7.4c0,2.7,1.3,3.7,3.4,3.7C133.9,44.7,134.6,44.7,135.2,44.5z M145.4,33.7v-2c-1.9,0-3.6,1.3-4.3,2.7v-2.5h-2.3v12.6h2.3
			v-6.1C141.1,36.1,143,33.7,145.4,33.7z M159.6,38.2c0-3.5-2.4-6.5-6.1-6.5c-3.7,0-6.1,3-6.1,6.5c0,3.5,2.4,6.5,6.1,6.5
			C157.2,44.7,159.6,41.7,159.6,38.2z M157.3,38.2c0,2.8-1.5,4.7-3.9,4.7c-2.4,0-3.8-1.9-3.8-4.7c0-2.8,1.5-4.7,3.8-4.7
			C155.8,33.5,157.3,35.4,157.3,38.2z M181.5,44.5v-2h-8.8V27.3h-2.4v17.3H181.5z M187.3,45.3V31.9h-2.3v13.3c0,1.4-0.4,2.1-1.6,2.1
			c-0.5,0-1-0.1-1.4-0.1l-0.1,1.8c0.5,0.1,1.4,0.2,1.9,0.2C185.9,49.1,187.3,47.9,187.3,45.3z M185.1,29.8h2.3V27h-2.3V29.8z
			 M202.6,44.5V31.9h-2.3v6.7c0,2.5-1.8,4.1-3.6,4.1c-1.9,0-2.7-1-2.7-2.9v-7.9h-2.3v8.2c0,2.8,1.4,4.6,4.3,4.6c1.9,0,3.5-1,4.4-2.4
			v2.2H202.6z M219.3,38.2c0-3.2-1.7-6.5-5.5-6.5c-1.7,0-3.1,0.8-4,2.3v-6.7h-2.3v17.3h2.3v-2.1c0.9,1.4,2.3,2.3,4,2.3
			C217.5,44.7,219.3,41.3,219.3,38.2z M217,38.2c0,2.6-1.2,4.7-3.6,4.7c-2.3,0-3.6-2.1-3.6-4.7c0-2.6,1.3-4.6,3.6-4.6
			C215.7,33.6,217,35.6,217,38.2z M228.1,44.7v-1.8H227c-1.2,0-1.7-0.6-1.7-2V27.3H223v13.7c0,2.6,1.5,3.7,3.6,3.7H228.1z
			 M234.3,45.3V31.9H232v13.3c0,1.4-0.4,2.1-1.6,2.1c-0.5,0-1-0.1-1.4-0.1l-0.1,1.8c0.5,0.1,1.4,0.2,1.9,0.2
			C232.9,49.1,234.3,47.9,234.3,45.3z M232,29.8h2.3V27H232V29.8z M248.5,44.5v-8.5c0-2.8-1.9-4.4-5.5-4.4c-1.4,0-2.9,0.2-4.3,0.5
			l0.2,1.8c1.4-0.3,2.6-0.3,3.9-0.3c2.6,0,3.4,1,3.4,2.5v1.3h-4c-2.6,0-4.1,1.3-4.1,3.6c0,2.4,1.7,3.7,4.3,3.7
			c1.8,0,3.2-0.6,3.9-1.7v1.5H248.5z M246.2,39.8c0,1.9-1.3,3.2-3.5,3.2c-1.5,0-2.4-0.6-2.4-1.9c0-1.4,0.8-2,2.4-2h3.5V39.8z
			 M263.6,44.5v-8.2c0-2.8-1.4-4.7-4.3-4.7c-1.9,0-3.5,1-4.4,2.4v-2.2h-2.3v12.6h2.3v-6.7c0-2.5,1.8-4.1,3.6-4.1
			c1.9,0,2.7,1,2.7,2.9v7.9H263.6z M277.7,44.5v-8.5c0-2.8-1.9-4.4-5.5-4.4c-1.4,0-2.9,0.2-4.3,0.5l0.2,1.8c1.4-0.3,2.6-0.3,3.9-0.3
			c2.6,0,3.4,1,3.4,2.5v1.3h-4c-2.6,0-4.1,1.3-4.1,3.6c0,2.4,1.7,3.7,4.3,3.7c1.8,0,3.2-0.6,3.9-1.7v1.5H277.7z M275.5,39.8
			c0,1.9-1.3,3.2-3.5,3.2c-1.5,0-2.4-0.6-2.4-1.9c0-1.4,0.8-2,2.4-2h3.5V39.8z"/>
	</g>
</g>
</svg>
