<?xml version="1.0" encoding="utf-8"?>
<!-- Generator: Adobe Illustrator 21.0.0, SVG Export Plug-In . SVG Version: 6.00 Build 0)  -->
<svg version="1.1" id="Layer_1" xmlns="http://www.w3.org/2000/svg" xmlns:xlink="http://www.w3.org/1999/xlink" x="0px" y="0px"
	 viewBox="0 0 97.1 66.2" style="enable-background:new 0 0 97.1 66.2;" xml:space="preserve">
<style type="text/css">
	.st0{fill:none;stroke:#D0D2D3;stroke-width:0.2362;stroke-miterlimit:3.8637;}
	.st1{fill:#414042;}
	.st2{fill:#FFFFFF;}
</style>
<g>
	<g>
		<path class="st0" d="M48.5,30.1"/>
		<g>
			<g>
				<g>
					<path class="st1" d="M24.3,41.8V6.4c0-3.6,2.9-6.4,6.4-6.4h35.4c3.6,0,6.4,2.9,6.4,6.4v35.4c0,3.6-2.9,6.4-6.4,6.4H30.8
						C27.2,48.2,24.3,45.4,24.3,41.8L24.3,41.8z"/>
					<path class="st1" d="M48.5,24.1"/>
				</g>
			</g>
			<g>
				<path class="st2" d="M50.9,11.9h7.6c2.7,0,5,2.2,5,5v14c0,2.7-2.2,5-5,5h-4.9l1.2-4.7h2.5c0.8,0,1.5-0.7,1.5-1.5V18.1
					c0-0.8-0.7-1.5-1.5-1.5h-6.1l-1.6,5.2l3.8-0.6c1-0.1,1.4,0.6,1.1,1.4l-2.9,8.8c-0.3,1-1.7,5.2-2.2,6.9c-0.1,0.3-0.4,0.6-0.7,0.6
					c-0.4,0-0.7-0.3-0.7-0.7c0-0.1,1.1-11.2,1.4-12.2l-4.7,0.9c-1.2,0.2-1.6-0.6-1.3-1.7l1.7-8.4h-5.3c-0.8,0-1.5,0.7-1.5,1.5v11.5
					c0,0.9,0.7,1.5,1.5,1.5h3.6L42.3,36h-3.8c-2.7,0-5-2.2-5-5V17c0-2.7,2.2-5,5-5L50.9,11.9L50.9,11.9z"/>
			</g>
		</g>
		<path class="st1" d="M54.5,65.1v-3.7h-0.9c-0.1,0-0.2,0.1-0.2,0.2v1v3.6h-1.3v-4.9c0.1-0.6,0.6-1.1,1.2-1.1h3.6
			c0.6,0,1.1,0.5,1.2,1.1v0.1v1.2v3.6h-1.2v-3.6v-1c0-0.1-0.1-0.2-0.2-0.2h-0.9v3.7H54.5z M8.1,60.1v3.5v1.2h4.2V66H6.9v-6h1.2V60.1
			z M25.9,61.3l-1.7,1.4l1.7,2.7v0.8h-1.1v-0.4l-1.5-2.4l-1.6,1.1v1.7h-1.2v-6h1.2V63l3.1-2.1v-0.6h1.1V61.3z M27,60.1h5.7v1.3h-2.3
			v1.2v3.5h-1.2v-4.7H27V60.1z M38.2,65.7l-1-2h-2v2.4H34v-6h4.3c0.7,0,1.2,0.5,1.2,1.2v1.2c0,0.5-0.4,1-0.9,1.2l0.9,1.7v0.7h-1.1
			v-0.4H38.2z M35.1,62.5h2.8c0.1,0,0.2-0.1,0.2-0.2v-0.7c0-0.1-0.1-0.2-0.2-0.2h-2.8V62.5z M44.9,64.6V64v-2.5
			c0-0.1-0.1-0.2-0.2-0.2h-2.5c-0.1,0-0.2,0.1-0.2,0.2v3c0,0.1,0.1,0.2,0.2,0.2h2.5C44.8,64.8,44.9,64.7,44.9,64.6z M46.2,61.3v3.3
			v0.3c0,0.7-0.5,1.2-1.2,1.2h-3.1c-0.7,0-1.2-0.5-1.2-1.2v-3.6c0-0.7,0.5-1.2,1.2-1.2H45C45.6,60.1,46.2,60.7,46.2,61.3z
			 M61.4,60.1h1.5l1.8,5.2V66h-1.2v-0.4l-0.3-0.9h-1.9H61l-0.3,0.9V66h-1.2v-0.7L61.4,60.1z M61.5,63.6h1.3l-0.7-1.9L61.5,63.6z
			 M70.7,65.7l-1-2h-2v2.4h-1.2v-6h4.3c0.7,0,1.2,0.5,1.2,1.2v1.2c0,0.5-0.4,1-0.9,1.2l0.9,1.7v0.7h-1.1v-0.4H70.7z M67.6,62.5h2.8
			c0.1,0,0.2-0.1,0.2-0.2v-0.7c0-0.1-0.1-0.2-0.2-0.2h-2.8V62.5z M73.9,60.1h1.2v6h-1.2V60.1z M82.1,63.1c0.4,0.2,0.7,0.6,0.7,1.1
			v0.7c0,0.7-0.5,1.2-1.2,1.2h-4.3v-6h4.3c0.7,0,1.2,0.5,1.2,1.2V62C82.8,62.5,82.5,62.9,82.1,63.1L82.1,63.1z M81.6,64.6V64
			c0-0.1-0.1-0.2-0.2-0.2h-2.8v1.1h2.8C81.5,64.8,81.6,64.7,81.6,64.6z M78.6,62.5h2.8c0.1,0,0.2-0.1,0.2-0.2v-0.7
			c0-0.1-0.1-0.2-0.2-0.2h-2.8V62.5z M88.5,64.6V64v-2.5c0-0.1-0.1-0.2-0.2-0.2h-2.5c-0.1,0-0.2,0.1-0.2,0.2v3
			c0,0.1,0.1,0.2,0.2,0.2h2.5C88.4,64.8,88.5,64.7,88.5,64.6z M89.8,61.3v3.3v0.3c0,0.7-0.5,1.2-1.2,1.2h-3.1
			c-0.7,0-1.2-0.5-1.2-1.2v-3.6c0-0.7,0.5-1.2,1.2-1.2h3.1C89.2,60.1,89.8,60.7,89.8,61.3z M95.8,65.7l-1-2h-2v2.4h-1.2v-6h4.3
			c0.7,0,1.2,0.5,1.2,1.2v1.2c0,0.5-0.4,1-0.9,1.2l0.9,1.7v0.7H96v-0.4H95.8z M92.7,62.5h2.8c0.1,0,0.2-0.1,0.2-0.2v-0.7
			c0-0.1-0.1-0.2-0.2-0.2h-2.8V62.5z M4.4,63.7H1.2v0.9c0,0.1,0.1,0.2,0.2,0.2h1h3v1.3H1.1C0.5,66,0,65.5,0,64.9v-3.6
			c0-0.6,0.5-1.1,1.1-1.2h0.1h1.2h3v1.2h-3h-1c-0.1,0-0.2,0.1-0.2,0.2v0.9h3.2V63.7z M18,63.7h-3.2v0.9c0,0.1,0.1,0.2,0.2,0.2h1h3
			v1.3h-4.3c-0.6,0-1.1-0.6-1.1-1.2v-3.6c0-0.6,0.5-1.1,1.1-1.2h0.1H16h3v1.2h-3h-1c-0.1,0-0.2,0.1-0.2,0.2v0.9H18V63.7z"/>
	</g>
</g>
</svg>
