<svg xmlns="http://www.w3.org/2000/svg" fill="none" viewBox="0 0 137 56">
  <path fill="#112433" d="M105.59 39.0945c-2.324 0-3.663-1.4793-3.663-3.5573 0-2.078 1.339-3.5572 3.663-3.5572 2.325 0 3.663 1.5145 3.663 3.5572 0 2.078-1.338 3.5573-3.663 3.5573zm0-8.1359c-3.311 0-4.896 2.1837-4.896 4.5786 0 2.395 1.585 4.5787 4.896 4.5787s4.896-2.1837 4.896-4.5787c0-2.3949-1.585-4.5786-4.896-4.5786zm-4.684.0705c-.176-.0353-.388-.0705-.74-.0705-2.0426 0-2.8527 1.2327-3.3106 2.2541h-.0352v-1.9723h-1.2327v8.6641h1.2327V35.502c0-2.4654 1.6201-3.2755 2.9585-3.2755.3523 0 .7393.0353 1.1273.1057v-1.3031zm-9.1223-2.5359H90.551v2.712h-1.8666v.9157h1.8666v5.7056c0 1.4089.3875 2.1485 2.3246 2.1485.3874 0 .8805-.0352 1.3383-.1057v-1.0214c-.2465.0353-.5987.1057-1.1975.1057-.9861 0-1.2327-.3522-1.2327-1.0918v-5.7057h2.4302v-.9157h-2.4302v-2.7472zm-3.5924 2.712h-1.8315l-5.283 4.1912v-7.5019h-1.2327v11.9748h1.2327v-3.0994l1.9371-1.4792 3.8742 4.5786h1.6202l-4.5787-5.3887 4.2617-3.2754zm-14.5107.7748c1.6553 0 3.205.8101 3.5572 2.9233h-7.1145c.2466-2.1132 1.9724-2.9233 3.5573-2.9233zm-.1057-1.0214c-3.2402 0-4.7195 2.1837-4.7195 4.5786 0 2.1132 1.1975 4.5787 4.7195 4.5787 2.8528 0 4.1912-1.5145 4.6491-3.029h-1.2327c-.4579 1.3384-1.3736 2.0076-3.4164 2.0076-2.1836 0-3.4868-1.4793-3.4868-3.2755h8.3472c.0352-3.8742-2.6415-4.8604-4.8604-4.8604zm-7.3258-3.0641v11.9748h1.2327V27.8945h-1.2327zm-9.6503 10.8478v-4.473h7.9245v-1.127h-7.9245v-4.0151h8.2063v-1.1271h-9.439v11.8692h9.5799v-1.127h-8.3472zM31.6277 1.33846c0-.528303-.4579-.986165-.9862-.986165H0V30.0077h30.6415c.5283 0 .9862-.4579.9862-.9862s-.4579-.9862-.9862-.9862H1.97233V2.32462H30.6415c.5636 0 .9862-.45786.9862-.98616zM6.58617 14.1586c-.56352 0-.98616.4579-.98616.9862s.45786.9861.98616.9861H24.7246c.5283 0 .9861-.4578.9861-.9861s-.4578-.9862-.9861-.9862H6.58617zM73.7522 43.7083h-1.2327v1.8314h1.2327v-1.8314zM133.907 52.3372c0 1.7962-1.937 2.6767-3.592 2.6767-1.339 0-2.501-.3874-2.501-1.761 0-1.0566.81-1.4792 2.254-1.5849 2.43-.2113 3.311-.317 3.839-.6339v1.3031zm1.796 2.4654c-.493 0-.669-.2465-.669-.9509v-4.5434c0-1.6554-1.057-2.5711-3.945-2.5711-2.958 0-3.944 1.127-4.12 2.9233h1.127c.07-1.4088 1.021-1.9019 2.958-1.9019 2.043 0 2.853.4226 2.853 1.6905 0 .8453-.317 1.0214-3.029 1.1623-1.902.0704-4.297.3874-4.297 2.712 0 1.9371 1.867 2.6063 3.346 2.6063 2.818 0 3.663-1.1623 4.05-1.7258h.036c0 .6692.07 1.5144 1.338 1.5144.387 0 .775-.0704 1.021-.1408v-.8453c-.211.0704-.457.0704-.669.0704zm-9.65-7.7836h-1.832l-5.283 4.2264v-7.5371h-1.232v11.9748h1.232v-3.0994l1.938-1.4792 3.874 4.5786h1.62l-4.579-5.3887 4.262-3.2754zm-13.278 3.6981c-2.606-.3522-3.205-.5636-3.205-1.4441 0-1.1974 1.233-1.4792 2.5-1.4792 1.797 0 2.677.3874 2.959 1.7962h1.127c-.141-1.7962-1.303-2.8176-4.121-2.8176-2.5 0-3.733 1.0566-3.733 2.5711s.951 2.1484 3.628 2.4302c2.712.2817 3.31.6692 3.31 1.5144 0 1.3032-1.162 1.6554-2.888 1.6554-2.219 0-3.029-.4931-3.24-1.9371h-1.127c0 2.078 1.62 2.9937 4.367 2.9937 2.712 0 4.121-1.0214 4.121-2.7472.07-1.7258-1.057-2.1836-3.698-2.5358zm-9.052-1.7258l-.035-1.9723h-1.233l.036 8.6641h1.232v-4.4025c0-2.4654 1.62-3.2755 2.959-3.2755.352 0 .739.0352 1.127.1057v-1.268c-.176-.0352-.388-.0704-.74-.0704-2.078 0-2.888 1.2327-3.346 2.2189zm-7.3959 5.917c-2.3246 0-3.6629-1.5145-3.6629-3.5573 0-2.078 1.3383-3.5572 3.6629-3.5572 2.3245 0 3.6629 1.5145 3.6629 3.5572 0 2.078-1.3384 3.5573-3.6629 3.5573zm0-8.1359c-3.3107 0-4.8956 2.1837-4.8956 4.5786 0 2.395 1.5849 4.5787 4.8956 4.5787 3.3107 0 4.8959-2.1837 4.8959-4.5787 0-2.3949-1.5852-4.5786-4.8959-4.5786zm-9.7208 0c-1.7258 0-2.9937 1.0214-3.3811 1.9019-.2818-.8805-1.1271-1.9019-3.0994-1.9019-1.9723 0-2.9233.951-3.4164 1.8667h-.0352v-1.5849h-1.2327v8.6641h1.2327v-4.8604c0-2.0075 1.3032-2.9937 3.0642-2.9937 1.6905 0 2.4654.9158 2.4654 2.0428v5.8466h1.2327v-5.107c0-1.6905 1.0214-2.7824 2.9585-2.7824 1.7962 0 2.5711.8101 2.5711 2.395v5.4944h1.2327v-5.917c-.0353-1.8667-1.1623-3.0642-3.5925-3.0642zm-14.0881.2466v8.6641h1.2327V47.019h-1.2327zm-5.0364 1.9723l-.0353-1.9723h-1.2327v8.6641h1.2327v-4.4025c0-2.4654 1.6202-3.2755 2.9585-3.2755.3522 0 .7397.0352 1.1271.1057v-1.268c-.1761-.0352-.3874-.0704-.7396-.0704-2.0428 0-2.8529 1.2327-3.3107 2.2189zm-6.1283.5635h-4.7548V44.941H61.6c1.4088 0 2.395.5283 2.395 2.2893 0 1.4088-.5988 2.3245-2.6415 2.3245zm.3874-5.7409h-6.4101v11.8692h1.2327v-5.0013h4.6139c2.6767 0 4.1207-1.1974 4.1207-3.4515.0352-2.5007-1.7258-3.4164-3.5572-3.4164z"></path>
  <path fill="#112433" d="M59.3109 15.1447c0-.5283-.4579-.9862-.9862-.9862H45.4694V.986164C45.4694.457862 45.0115 0 44.4832 0s-.9862.457862-.9862.986164V14.1585H30.6417c-.5283 0-.9862.4579-.9862.9862 0 .5635.4579.9861.9862.9861H43.497v13.1724c0 .5283.4579.9861.9862.9861.5635 0 .9862-.4578.9862-.9861V16.1308h12.8553c.5636 0 .9862-.4226.9862-.9861zM50.4354 2.32444h12.8553V15.1446c0 .5635.4579.9861.9862.9861.5635 0 .9862-.4578.9862-.9861V.316895H50.4354c-.5283 0-.9862.457862-.9862.986165 0 .56352.4227 1.02138.9862 1.02138z"></path>
</svg>