<?xml version="1.0" encoding="utf-8"?>
<!-- Generator: Adobe Illustrator 21.0.0, SVG Export Plug-In . SVG Version: 6.00 Build 0)  -->
<svg version="1.1" id="Layer_1" xmlns="http://www.w3.org/2000/svg" xmlns:xlink="http://www.w3.org/1999/xlink" x="0px" y="0px"
	 viewBox="0 0 195.8 35.8" style="enable-background:new 0 0 195.8 35.8;" xml:space="preserve">
<style type="text/css">
	.st0{fill:#414042;}
</style>
<g>
	<path class="st0" d="M19,2.3C15.9,0.7,12.8,0,9.5,0C6,0,3.1,0.8,0,2.3L0.7,13c0.3,5.3,4,9.6,8.9,11c5.1-1.5,8.5-5.8,8.9-11L19,2.3
		L19,2.3z M9.5,8.3l1.9,3.9l1.4-1.8l3.2,4.3c-0.1,1-0.8,1.7-2.1,1.7c-1,0-1.1-0.6-2.2-0.6s-1.2,0.6-2.2,0.6s-1.1-0.6-2.2-0.6
		S6,16.4,5.1,16.4c-1.4,0-1.9-0.5-2.1-1.6l3.2-4.3l1.4,1.8L9.5,8.3L9.5,8.3z M11.7,17.3c-1,0-1.1,0.6-2.2,0.6c-1,0-1.2-0.6-2.2-0.6
		c-1.1,0-1,0.6-2.2,0.6c-0.3,0-0.5-0.1-0.8-0.2c-0.2-0.3-0.3-0.6-0.5-0.8c0.4,0.2,0.7,0.4,1.3,0.4c1,0,1.1-0.6,2.2-0.6
		s1.1,0.6,2.2,0.6s1.2-0.6,2.2-0.6c1.1,0,1.1,0.6,2.2,0.6c0.5,0,0.9-0.2,1.3-0.3c-0.2,0.3-0.3,0.5-0.5,0.8c-0.2,0.1-0.5,0.2-0.8,0.2
		C12.8,17.9,12.8,17.3,11.7,17.3L11.7,17.3z M14,18.7c-1.2,1.4-2.7,2.5-4.4,3.1c-1.8-0.6-3.3-1.7-4.5-3.1c1.3,0,1.3-0.6,2.2-0.6
		s1.1,0.6,2.2,0.6s1.2-0.6,2.2-0.6S12.8,18.7,14,18.7L14,18.7z M18.3,2.7l-0.6,10.2c-0.3,4.9-3.7,8.9-8.1,10.3
		C5,21.9,1.7,17.7,1.4,12.9L0.8,2.7c0.1-0.1,0.4-0.2,0.6-0.3L2,12.9c0.3,4.6,3.4,8.3,7.5,9.7c4.4-1.5,7.2-5.3,7.5-9.7l0.7-10.4
		C17.9,2.5,18.1,2.6,18.3,2.7L18.3,2.7z M9.5,4.6l0.3,0.8l0.8-0.1L10.1,6l0.5,0.7L9.9,6.5L9.5,7.2L9.2,6.5H8.3l0.5-0.7L8.4,5.2
		l0.8,0.1L9.5,4.6L9.5,4.6z M7.2,1.5l0.3,0.8l0.8-0.1L7.9,2.8l0.5,0.7L7.5,3.4L7.2,4.1L6.9,3.4L6,3.5l0.5-0.7L6,2.1l0.8,0.1L7.2,1.5
		L7.2,1.5z M11.8,1.5l0.3,0.8L13,2.1l-0.5,0.7L13,3.5l-0.8-0.1l-0.3,0.8l-0.3-0.8l-0.9,0.1l0.5-0.7l-0.5-0.7l0.8,0.1L11.8,1.5
		L11.8,1.5z"/>
	<g>
		<path class="st0" d="M39.2,9.5h-0.8V2.4h2.3c0.4,0,0.8,0,1.1,0.1s0.5,0.2,0.7,0.3c0.2,0.2,0.3,0.4,0.4,0.6C43,3.6,43.1,4,43.1,4.3
			c0,0.6-0.1,1.1-0.4,1.4c-0.2,0.3-0.6,0.5-1.1,0.6l1.7,3.2h-0.9l-1.6-3.1h-1.6V9.5z M39.2,5.8h1.5c0.3,0,0.5,0,0.7-0.1
			c0.2,0,0.4-0.1,0.5-0.2s0.2-0.2,0.3-0.4c0.1-0.2,0.1-0.4,0.1-0.7c0-0.3,0-0.5-0.1-0.7S42,3.4,41.9,3.3c-0.1-0.1-0.3-0.2-0.5-0.2
			C41.2,3,40.9,3,40.6,3h-1.5v2.8H39.2z"/>
		<path class="st0" d="M44.7,9.5V2.4H49V3h-3.5v2.6h3.1v0.6h-3.1v2.6H49v0.6h-4.3V9.5z"/>
		<path class="st0" d="M51.2,9.5h-0.8V2.4h2.2c0.4,0,0.8,0,1.1,0.1s0.5,0.2,0.7,0.3c0.2,0.2,0.3,0.4,0.4,0.6c0.1,0.3,0.1,0.6,0.1,1
			c0,0.8-0.2,1.3-0.6,1.7c-0.4,0.3-1,0.5-1.8,0.5H51v2.9H51.2z M51.2,5.9h1.4c0.3,0,0.5,0,0.7-0.1c0.2,0,0.4-0.1,0.5-0.2
			s0.2-0.3,0.3-0.4c0.1-0.2,0.1-0.4,0.1-0.8c0-0.3,0-0.5-0.1-0.7s-0.2-0.3-0.3-0.4c-0.1-0.1-0.3-0.2-0.5-0.2C53.2,3,52.9,3,52.6,3
			h-1.4C51.2,3,51.2,5.9,51.2,5.9z"/>
		<path class="st0" d="M61.1,7c0,0.5-0.1,0.9-0.2,1.2c-0.1,0.3-0.3,0.6-0.5,0.8s-0.5,0.4-0.8,0.5s-0.7,0.1-1.1,0.1
			c-0.8,0-1.4-0.2-1.8-0.6c-0.4-0.4-0.6-1-0.6-1.9V2.4h0.8v4.7c0,0.7,0.1,1.2,0.4,1.5C57.6,8.8,58,9,58.6,9s1-0.1,1.3-0.5
			c0.3-0.3,0.4-0.8,0.4-1.5V2.4h0.8V7z"/>
		<path class="st0" d="M67.6,7.6c0,0.7-0.2,1.2-0.6,1.5s-1,0.5-1.8,0.5h-2.3V2.4h2.3c0.8,0,1.4,0.2,1.7,0.5c0.4,0.3,0.5,0.8,0.5,1.4
			c0,0.8-0.3,1.4-0.9,1.6l0,0c0.3,0.1,0.6,0.3,0.8,0.6C67.5,6.7,67.6,7.1,67.6,7.6z M66.7,4.3c0-0.5-0.1-0.8-0.4-1
			C66,3.1,65.7,3,65.2,3h-1.6v2.5h1.6c0.4,0,0.8-0.1,1-0.3C66.5,5.1,66.7,4.8,66.7,4.3z M66.8,7.5c0-0.5-0.1-0.8-0.4-1
			c-0.2-0.2-0.6-0.3-1.1-0.3h-1.7v2.7h1.7c0.5,0,0.9-0.1,1.1-0.3C66.7,8.3,66.8,8,66.8,7.5z"/>
		<path class="st0" d="M69.1,9.5V2.4h0.8v6.5h3.3v0.6H69.1z"/>
		<path class="st0" d="M74.4,9.5V2.4h0.8v7.2h-0.8V9.5z"/>
		<path class="st0" d="M77.2,2.4H78v3.2h0.7L81,2.4h0.9l-2.6,3.5l2.6,3.7H81l-2.4-3.4H78v3.4h-0.8V2.4z"/>
		<path class="st0" d="M86.5,7.8h-3L83,9.5h-0.8l2.4-7.2h1L88,9.5h-0.8L86.5,7.8z M83.7,7.1h2.6L85,3l0,0L83.7,7.1z"/>
		<path class="st0" d="M95.4,7.6c0,0.4,0,0.7-0.1,0.9C95.1,8.8,95,9,94.8,9.2s-0.4,0.3-0.7,0.3c-0.3,0.1-0.7,0.1-1.1,0.1
			s-0.7,0-1-0.1s-0.6-0.1-0.9-0.2l0.2-0.6c0.3,0.1,0.6,0.2,0.9,0.2C92.5,9,92.9,9,93.2,9s0.5,0,0.7-0.1c0.2,0,0.3-0.1,0.5-0.2
			c0.1-0.1,0.2-0.2,0.3-0.4s0.1-0.4,0.1-0.6s0-0.4-0.1-0.5c0-0.1-0.1-0.3-0.2-0.4S94.2,6.6,94,6.5c-0.2-0.1-0.4-0.2-0.7-0.3
			C93,6.1,92.7,6,92.4,5.9c-0.2-0.1-0.5-0.2-0.6-0.4c-0.2-0.2-0.3-0.3-0.4-0.6c-0.1-0.2-0.1-0.5-0.1-0.8c0-0.6,0.2-1.1,0.5-1.4
			c0.4-0.3,0.9-0.5,1.7-0.5c0.3,0,0.6,0,0.9,0.1s0.6,0.1,0.9,0.2L95,3.2C94.7,3.1,94.4,3,94.2,3c-0.3-0.1-0.5-0.1-0.9-0.1
			c-0.5,0-0.9,0.1-1.1,0.3s-0.3,0.5-0.3,0.9c0,0.2,0,0.4,0.1,0.5c0,0.2,0.1,0.3,0.2,0.4s0.3,0.2,0.4,0.3c0.2,0.1,0.4,0.1,0.6,0.2
			c0.4,0.1,0.8,0.3,1,0.4c0.3,0.1,0.5,0.3,0.6,0.4c0.2,0.2,0.3,0.3,0.3,0.6C95.3,7.1,95.4,7.3,95.4,7.6z"/>
		<path class="st0" d="M96.8,9.5V2.4h0.8v6.5h3.3v0.6H96.8z"/>
		<path class="st0" d="M104.5,9.6c-0.5,0-0.9-0.1-1.2-0.2c-0.3-0.1-0.6-0.3-0.9-0.6c-0.2-0.3-0.4-0.7-0.5-1.1
			c-0.1-0.5-0.2-1.1-0.2-1.7c0-0.7,0.1-1.3,0.2-1.8s0.3-0.9,0.5-1.1s0.5-0.5,0.9-0.6c0.3-0.1,0.8-0.2,1.2-0.2c0.5,0,0.9,0.1,1.2,0.2
			c0.3,0.1,0.6,0.3,0.9,0.6c0.2,0.3,0.4,0.7,0.5,1.1c0.1,0.5,0.2,1.1,0.2,1.7c0,0.7-0.1,1.3-0.2,1.8s-0.3,0.9-0.5,1.1
			c-0.2,0.3-0.5,0.5-0.9,0.6C105.3,9.6,104.9,9.6,104.5,9.6z M104.5,9c0.4,0,0.7-0.1,0.9-0.2c0.2-0.1,0.5-0.3,0.6-0.5
			c0.2-0.2,0.3-0.6,0.3-0.9c0.1-0.4,0.1-0.9,0.1-1.4c0-0.6,0-1-0.1-1.4s-0.2-0.7-0.3-0.9c-0.1-0.2-0.3-0.4-0.6-0.5
			c-0.2-0.1-0.6-0.2-0.9-0.2c-0.4,0-0.7,0.1-0.9,0.2c-0.2,0.1-0.5,0.3-0.6,0.5c-0.2,0.2-0.3,0.5-0.3,0.9c-0.1,0.4-0.1,0.9-0.1,1.4
			c0,0.6,0,1,0.1,1.4s0.2,0.7,0.3,0.9c0.1,0.2,0.3,0.4,0.6,0.5C103.8,8.9,104.1,9,104.5,9z"/>
		<path class="st0" d="M107.9,2.4h0.8l1.9,6.4l0,0l1.9-6.4h0.7L111,9.6h-1.1L107.9,2.4z"/>
		<path class="st0" d="M114.4,9.5V2.4h4.3V3h-3.5v2.6h3.1v0.6h-3.1v2.6h3.5v0.6h-4.3V9.5z"/>
		<path class="st0" d="M120.9,3.2L120.9,3.2v6.4h-0.7V2.4h1.1l3.2,6.3l0,0V2.4h0.7v7.2h-1.1L120.9,3.2z"/>
		<path class="st0" d="M127.2,9.5V2.4h0.8v7.2h-0.8V9.5z"/>
		<path class="st0" d="M131,2.4V9c0,0.3,0,0.6-0.1,0.9c-0.1,0.3-0.2,0.5-0.3,0.7s-0.3,0.4-0.5,0.5s-0.5,0.3-0.9,0.4l-0.2-0.6
			c0.2-0.1,0.4-0.1,0.6-0.2c0.2-0.1,0.3-0.2,0.4-0.4c0.1-0.1,0.2-0.3,0.2-0.5s0.1-0.4,0.1-0.6V2.4H131z"/>
		<path class="st0" d="M136.4,7.8h-3l-0.6,1.7H132l2.3-7.2h1l2.4,7.2H137L136.4,7.8z M133.6,7.1h2.6L134.9,3l0,0L133.6,7.1z"/>
		<path class="st0" d="M39.8,14.4l1.5,3.2l0,0l1.4-3.2h1.6v7.2H43v-5.3l0,0L41.8,19h-1.2l-1.2-2.8l0,0v5.3h-1.2v-7.2L39.8,14.4
			L39.8,14.4z"/>
		<path class="st0" d="M45.9,21.5v-7.2h1.4v7.2H45.9z"/>
		<path class="st0" d="M50.1,16.1L50.1,16.1v5.4h-1.2v-7.2h1.8l2.4,5.5l0,0v-5.5h1.2v7.2h-1.9L50.1,16.1z"/>
		<path class="st0" d="M55.9,21.5v-7.2h1.4v7.2H55.9z"/>
		<path class="st0" d="M63.2,19.4c0,0.4,0,0.7-0.1,1s-0.3,0.5-0.5,0.7s-0.5,0.3-0.8,0.4s-0.7,0.1-1.2,0.1c-0.4,0-0.8,0-1.1-0.1
			s-0.7-0.1-0.9-0.2l0.2-1.2c0.3,0.1,0.6,0.2,0.9,0.2c0.3,0.1,0.7,0.1,1,0.1c0.2,0,0.3,0,0.5,0c0.1,0,0.3-0.1,0.4-0.1
			c0.1-0.1,0.2-0.2,0.2-0.3c0.1-0.1,0.1-0.3,0.1-0.4s0-0.3-0.1-0.4c0-0.1-0.1-0.2-0.2-0.3c-0.1-0.1-0.2-0.1-0.4-0.2
			s-0.3-0.1-0.6-0.2s-0.6-0.2-0.9-0.3c-0.3-0.1-0.5-0.2-0.6-0.4c-0.2-0.2-0.3-0.4-0.4-0.6c-0.1-0.2-0.1-0.5-0.1-0.9
			c0-0.8,0.2-1.3,0.6-1.6c0.4-0.3,1-0.5,1.8-0.5c0.3,0,0.7,0,1,0.1s0.6,0.2,0.9,0.3l-0.2,1.2c-0.2-0.1-0.5-0.2-0.8-0.2
			c-0.3-0.1-0.6-0.1-0.9-0.1c-0.2,0-0.3,0-0.4,0c-0.1,0-0.2,0.1-0.3,0.1c-0.1,0.1-0.2,0.1-0.2,0.2C60,15.9,60,16,60,16.2
			c0,0.2,0,0.3,0.1,0.4s0.1,0.2,0.2,0.3c0.1,0.1,0.2,0.1,0.4,0.2s0.3,0.1,0.6,0.2c0.4,0.1,0.7,0.2,0.9,0.3c0.3,0.1,0.5,0.2,0.6,0.4
			c0.2,0.2,0.3,0.3,0.3,0.6C63.2,18.8,63.2,19.1,63.2,19.4z"/>
		<path class="st0" d="M66.9,15.6v6h-1.4v-6h-1.9v-1.2h5.1v1.2H66.9z"/>
		<path class="st0" d="M74.8,16.5c0,0.5-0.1,0.9-0.3,1.3c-0.2,0.3-0.5,0.6-0.9,0.7l1.6,3h-1.6l-1.4-2.8h-1.1v2.8h-1.4v-7.2h2.5
			c0.5,0,0.9,0,1.2,0.1c0.3,0.1,0.6,0.2,0.8,0.4c0.2,0.2,0.3,0.4,0.4,0.7S74.8,16.1,74.8,16.5z M73.4,16.5c0-0.4-0.1-0.6-0.3-0.8
			c-0.2-0.1-0.5-0.2-0.9-0.2h-1v2h1c0.2,0,0.4,0,0.6-0.1c0.2,0,0.3-0.1,0.4-0.2s0.2-0.2,0.2-0.3C73.3,16.9,73.4,16.7,73.4,16.5z"/>
		<path class="st0" d="M80.6,19.4c0,0.4,0,0.7-0.1,1s-0.3,0.5-0.5,0.7s-0.5,0.3-0.8,0.4s-0.7,0.1-1.2,0.1c-0.4,0-0.8,0-1.1-0.1
			c-0.3-0.1-0.7-0.1-0.9-0.2l0.2-1.2c0.3,0.1,0.6,0.2,0.9,0.2c0.3,0.1,0.7,0.1,1,0.1c0.2,0,0.3,0,0.5,0c0.1,0,0.3-0.1,0.4-0.1
			c0.1-0.1,0.2-0.2,0.2-0.3c0.1-0.1,0.1-0.3,0.1-0.4s0-0.3-0.1-0.4c0-0.1-0.1-0.2-0.2-0.3c-0.1-0.1-0.2-0.1-0.4-0.2
			c-0.2-0.1-0.3-0.1-0.6-0.2c-0.3-0.1-0.6-0.2-0.9-0.3c-0.3-0.1-0.5-0.2-0.6-0.4c-0.2-0.2-0.3-0.4-0.4-0.6S76,16.7,76,16.3
			c0-0.8,0.2-1.3,0.6-1.6s1-0.5,1.8-0.5c0.3,0,0.7,0,1,0.1s0.6,0.2,0.9,0.3l-0.2,1.2c-0.2-0.1-0.5-0.2-0.8-0.2
			c-0.3-0.1-0.6-0.1-0.9-0.1c-0.2,0-0.3,0-0.4,0s-0.2,0.1-0.3,0.1c-0.1,0.1-0.2,0.1-0.2,0.2c-0.1,0.1-0.1,0.2-0.1,0.4
			c0,0.2,0,0.3,0.1,0.4s0.1,0.2,0.2,0.3c0.1,0.1,0.2,0.1,0.4,0.2c0.2,0.1,0.3,0.1,0.6,0.2c0.4,0.1,0.7,0.2,0.9,0.3
			c0.3,0.1,0.5,0.2,0.6,0.4c0.2,0.2,0.3,0.3,0.3,0.6C80.6,18.8,80.6,19.1,80.6,19.4z"/>
		<path class="st0" d="M84.3,15.6v6H83v-6h-1.9v-1.2h5.1v1.2H84.3z"/>
		<path class="st0" d="M90.5,21.5h-2.1l-1.9-7.2H88l1.5,6l0,0l1.5-6h1.4L90.5,21.5z"/>
		<path class="st0" d="M95.9,21.6c-0.5,0-0.9-0.1-1.3-0.2s-0.7-0.3-0.9-0.6c-0.2-0.3-0.4-0.7-0.5-1.1S93,18.7,93,18s0.1-1.3,0.2-1.8
			s0.3-0.9,0.5-1.1c0.2-0.3,0.5-0.5,0.9-0.6s0.8-0.2,1.3-0.2s0.9,0.1,1.3,0.2c0.4,0.1,0.7,0.3,0.9,0.6c0.2,0.3,0.4,0.7,0.5,1.1
			c0.1,0.5,0.2,1.1,0.2,1.8c0,0.7-0.1,1.3-0.2,1.8s-0.3,0.9-0.5,1.1c-0.2,0.3-0.5,0.5-0.9,0.6C96.9,21.6,96.4,21.6,95.9,21.6z
			 M95.9,20.4c0.3,0,0.5,0,0.7-0.1s0.3-0.2,0.5-0.4c0.1-0.2,0.2-0.5,0.2-0.8s0.1-0.7,0.1-1.2s0-0.9-0.1-1.2c0-0.3-0.1-0.6-0.2-0.8
			s-0.3-0.3-0.5-0.4c-0.2-0.1-0.4-0.1-0.7-0.1c-0.3,0-0.5,0-0.7,0.1s-0.3,0.2-0.4,0.4s-0.2,0.4-0.2,0.8c0,0.3-0.1,0.7-0.1,1.2
			s0,0.9,0.1,1.2c0,0.3,0.1,0.6,0.2,0.8c0.1,0.2,0.3,0.3,0.4,0.4C95.4,20.4,95.6,20.4,95.9,20.4z"/>
		<path class="st0" d="M101.9,21.5v-1.2l3.2-4.8H102v-1.2h4.6v1.2l-3.2,4.8h3.3v1.2H101.9z"/>
		<path class="st0" d="M111.5,20h-2.4l-0.4,1.5h-1.5l2.2-7.2h1.9l2.2,7.2H112L111.5,20z M109.4,18.8h1.8l-0.9-3.2h-0.1L109.4,18.8z"
			/>
		<path class="st0" d="M119.8,21.5h-2.1l-1.9-7.2h1.5l1.5,6l0,0l1.5-6h1.4L119.8,21.5z"/>
		<path class="st0" d="M122.6,21.5v-7.2h1.4v7.2H122.6z"/>
		<path class="st0" d="M129.9,19.4c0,0.4,0,0.7-0.1,1s-0.3,0.5-0.5,0.7s-0.5,0.3-0.8,0.4s-0.7,0.1-1.2,0.1c-0.4,0-0.8,0-1.1-0.1
			c-0.3-0.1-0.7-0.1-0.9-0.2l0.2-1.2c0.3,0.1,0.6,0.2,0.9,0.2c0.3,0.1,0.7,0.1,1,0.1c0.2,0,0.3,0,0.5,0c0.1,0,0.3-0.1,0.4-0.1
			c0.1-0.1,0.2-0.2,0.2-0.3c0.1-0.1,0.1-0.3,0.1-0.4s0-0.3-0.1-0.4c0-0.1-0.1-0.2-0.2-0.3c-0.1-0.1-0.2-0.1-0.4-0.2
			c-0.2-0.1-0.3-0.1-0.6-0.2c-0.3-0.1-0.6-0.2-0.9-0.3c-0.3-0.1-0.5-0.2-0.6-0.4c-0.2-0.2-0.3-0.4-0.4-0.6s-0.1-0.5-0.1-0.9
			c0-0.8,0.2-1.3,0.6-1.6s1-0.5,1.8-0.5c0.3,0,0.7,0,1,0.1c0.3,0.1,0.6,0.2,0.9,0.3l-0.2,1.2c-0.2-0.1-0.5-0.2-0.8-0.2
			c-0.3-0.1-0.6-0.1-0.9-0.1c-0.2,0-0.3,0-0.4,0s-0.2,0.1-0.3,0.1c-0.1,0.1-0.2,0.1-0.2,0.2c-0.1,0.1-0.1,0.2-0.1,0.4
			c0,0.2,0,0.3,0.1,0.4s0.1,0.2,0.2,0.3c0.1,0.1,0.2,0.1,0.4,0.2c0.2,0.1,0.3,0.1,0.6,0.2c0.4,0.1,0.7,0.2,0.9,0.3
			c0.3,0.1,0.5,0.2,0.6,0.4c0.2,0.2,0.3,0.3,0.3,0.6C129.9,18.8,129.9,19.1,129.9,19.4z"/>
		<path class="st0" d="M133.6,21.6c-0.5,0-0.9-0.1-1.3-0.2c-0.4-0.1-0.7-0.3-0.9-0.6c-0.2-0.3-0.4-0.7-0.5-1.1
			c-0.1-0.5-0.2-1.1-0.2-1.8c0-0.7,0.1-1.3,0.2-1.8c0.1-0.5,0.3-0.9,0.5-1.1c0.2-0.3,0.5-0.5,0.9-0.6s0.8-0.2,1.3-0.2
			s0.9,0.1,1.3,0.2c0.4,0.1,0.7,0.3,0.9,0.6s0.4,0.7,0.5,1.1c0.1,0.5,0.2,1.1,0.2,1.8c0,0.7-0.1,1.3-0.2,1.8
			c-0.1,0.5-0.3,0.9-0.5,1.1c-0.2,0.3-0.5,0.5-0.9,0.6C134.5,21.6,134.1,21.6,133.6,21.6z M133.6,20.4c0.3,0,0.5,0,0.7-0.1
			s0.3-0.2,0.5-0.4c0.1-0.2,0.2-0.5,0.2-0.8s0.1-0.7,0.1-1.2s0-0.9-0.1-1.2c0-0.3-0.1-0.6-0.2-0.8c-0.1-0.2-0.3-0.3-0.5-0.4
			c-0.2-0.1-0.4-0.1-0.7-0.1s-0.5,0-0.7,0.1s-0.3,0.2-0.5,0.4c-0.1,0.2-0.2,0.4-0.2,0.8c0,0.3-0.1,0.7-0.1,1.2s0,0.9,0.1,1.2
			c0,0.3,0.1,0.6,0.2,0.8c0.1,0.2,0.3,0.3,0.5,0.4S133.3,20.4,133.6,20.4z"/>
		<path class="st0" d="M137.8,14.4h1.4v2.9h0.4l1.9-2.9h1.6l-2.4,3.4l2.5,3.7h-1.6l-2-3.1h-0.4v3.1h-1.4V14.4z"/>
		<path class="st0" d="M146.6,21.6c-0.5,0-0.9-0.1-1.3-0.2c-0.4-0.1-0.7-0.3-0.9-0.6c-0.2-0.3-0.4-0.7-0.5-1.1
			c-0.1-0.5-0.2-1.1-0.2-1.8c0-0.7,0.1-1.3,0.2-1.8c0.1-0.5,0.3-0.9,0.5-1.1c0.2-0.3,0.5-0.5,0.9-0.6s0.8-0.2,1.3-0.2
			s0.9,0.1,1.3,0.2c0.4,0.1,0.7,0.3,0.9,0.6s0.4,0.7,0.5,1.1c0.1,0.5,0.2,1.1,0.2,1.8c0,0.7-0.1,1.3-0.2,1.8
			c-0.1,0.5-0.3,0.9-0.5,1.1c-0.2,0.3-0.5,0.5-0.9,0.6C147.6,21.6,147.1,21.6,146.6,21.6z M146.6,20.4c0.3,0,0.5,0,0.7-0.1
			s0.3-0.2,0.5-0.4c0.1-0.2,0.2-0.5,0.2-0.8s0.1-0.7,0.1-1.2s0-0.9-0.1-1.2c0-0.3-0.1-0.6-0.2-0.8c-0.1-0.2-0.3-0.3-0.5-0.4
			c-0.2-0.1-0.4-0.1-0.7-0.1s-0.5,0-0.7,0.1s-0.3,0.2-0.5,0.4c-0.1,0.2-0.2,0.4-0.2,0.8c0,0.3-0.1,0.7-0.1,1.2s0,0.9,0.1,1.2
			c0,0.3,0.1,0.6,0.2,0.8c0.1,0.2,0.3,0.3,0.5,0.4S146.3,20.4,146.6,20.4z"/>
		<path class="st0" d="M157.4,19.4c0,0.4,0,0.7-0.1,1s-0.3,0.5-0.5,0.7s-0.5,0.3-0.8,0.4s-0.7,0.1-1.2,0.1c-0.4,0-0.8,0-1.1-0.1
			s-0.7-0.1-0.9-0.2l0.2-1.2c0.3,0.1,0.6,0.2,0.9,0.2c0.3,0.1,0.7,0.1,1,0.1c0.2,0,0.3,0,0.5,0c0.1,0,0.3-0.1,0.4-0.1
			c0.1-0.1,0.2-0.2,0.2-0.3c0.1-0.1,0.1-0.3,0.1-0.4s0-0.3-0.1-0.4c0-0.1-0.1-0.2-0.2-0.3c-0.1-0.1-0.2-0.1-0.4-0.2
			s-0.3-0.1-0.6-0.2s-0.6-0.2-0.9-0.3c-0.3-0.1-0.5-0.2-0.6-0.4c-0.2-0.2-0.3-0.4-0.4-0.6c-0.1-0.2-0.1-0.5-0.1-0.9
			c0-0.8,0.2-1.3,0.6-1.6c0.4-0.3,1-0.5,1.8-0.5c0.3,0,0.7,0,1,0.1s0.6,0.2,0.9,0.3l-0.2,1.2c-0.2-0.1-0.5-0.2-0.8-0.2
			c-0.3-0.1-0.6-0.1-0.9-0.1c-0.2,0-0.3,0-0.4,0c-0.1,0-0.2,0.1-0.3,0.1c-0.1,0.1-0.2,0.1-0.2,0.2c-0.1,0.1-0.1,0.2-0.1,0.4
			c0,0.2,0,0.3,0.1,0.4s0.1,0.2,0.2,0.3c0.1,0.1,0.2,0.1,0.4,0.2s0.3,0.1,0.6,0.2c0.4,0.1,0.7,0.2,0.9,0.3c0.3,0.1,0.5,0.2,0.6,0.4
			c0.2,0.2,0.3,0.3,0.3,0.6C157.3,18.8,157.4,19.1,157.4,19.4z M153.7,12l1.3,0.8l1.3-0.8l0.5,0.8l-1.9,1.1l-1.8-1L153.7,12z"/>
		<path class="st0" d="M161.1,21.6c-0.5,0-0.9-0.1-1.3-0.2c-0.4-0.1-0.7-0.3-0.9-0.6c-0.2-0.3-0.4-0.7-0.5-1.1
			c-0.1-0.5-0.2-1.1-0.2-1.8c0-0.7,0.1-1.3,0.2-1.8c0.1-0.5,0.3-0.9,0.5-1.1c0.2-0.3,0.5-0.5,0.9-0.6s0.8-0.2,1.3-0.2
			s0.9,0.1,1.3,0.2c0.4,0.1,0.7,0.3,0.9,0.6s0.4,0.7,0.5,1.1c0.1,0.5,0.2,1.1,0.2,1.8c0,0.7-0.1,1.3-0.2,1.8
			c-0.1,0.5-0.3,0.9-0.5,1.1c-0.2,0.3-0.5,0.5-0.9,0.6C162,21.6,161.6,21.6,161.1,21.6z M161.1,20.4c0.3,0,0.5,0,0.7-0.1
			s0.3-0.2,0.5-0.4c0.1-0.2,0.2-0.5,0.2-0.8s0.1-0.7,0.1-1.2s0-0.9-0.1-1.2c0-0.3-0.1-0.6-0.2-0.8c-0.1-0.2-0.3-0.3-0.5-0.4
			c-0.2-0.1-0.4-0.1-0.7-0.1s-0.5,0-0.7,0.1s-0.3,0.2-0.4,0.4c-0.1,0.2-0.2,0.4-0.2,0.8s-0.1,0.7-0.1,1.2s0,0.9,0.1,1.2
			c0,0.3,0.1,0.6,0.2,0.8c0.1,0.2,0.3,0.3,0.4,0.4S160.8,20.4,161.1,20.4z"/>
		<path class="st0" d="M165.2,21.5v-7.2h1.4v6h3v1.2H165.2z"/>
		<path class="st0" d="M175,19.4c0,0.4,0,0.7-0.1,1s-0.3,0.5-0.5,0.7s-0.5,0.3-0.8,0.4s-0.7,0.1-1.2,0.1c-0.4,0-0.8,0-1.1-0.1
			s-0.7-0.1-0.9-0.2l0.2-1.2c0.3,0.1,0.6,0.2,0.9,0.2c0.3,0.1,0.7,0.1,1,0.1c0.2,0,0.3,0,0.5,0c0.1,0,0.3-0.1,0.4-0.1
			c0.1-0.1,0.2-0.2,0.2-0.3c0.1-0.1,0.1-0.3,0.1-0.4s0-0.3-0.1-0.4c0-0.1-0.1-0.2-0.2-0.3c-0.1-0.1-0.2-0.1-0.4-0.2
			s-0.3-0.1-0.6-0.2s-0.6-0.2-0.9-0.3c-0.3-0.1-0.5-0.2-0.6-0.4c-0.2-0.2-0.3-0.4-0.4-0.6c-0.1-0.2-0.1-0.5-0.1-0.9
			c0-0.8,0.2-1.3,0.6-1.6c0.4-0.3,1-0.5,1.8-0.5c0.3,0,0.7,0,1,0.1s0.6,0.2,0.9,0.3l-0.2,1.2c-0.2-0.1-0.5-0.2-0.8-0.2
			c-0.3-0.1-0.6-0.1-0.9-0.1c-0.2,0-0.3,0-0.4,0c-0.1,0-0.2,0.1-0.3,0.1c-0.1,0.1-0.2,0.1-0.2,0.2c-0.1,0.1-0.1,0.2-0.1,0.4
			c0,0.2,0,0.3,0.1,0.4s0.1,0.2,0.2,0.3c0.1,0.1,0.2,0.1,0.4,0.2s0.3,0.1,0.6,0.2c0.4,0.1,0.7,0.2,0.9,0.3c0.3,0.1,0.5,0.2,0.6,0.4
			c0.2,0.2,0.3,0.3,0.3,0.6C175,18.8,175,19.1,175,19.4z"/>
		<path class="st0" d="M178.8,15.6v6h-1.4v-6h-1.9v-1.2h5.1v1.2H178.8z"/>
		<path class="st0" d="M184.9,21.5h-2.1l-1.9-7.2h1.5l1.5,6l0,0l1.5-6h1.4L184.9,21.5z"/>
		<path class="st0" d="M190.4,21.6c-0.5,0-0.9-0.1-1.3-0.2c-0.4-0.1-0.7-0.3-0.9-0.6c-0.2-0.3-0.4-0.7-0.5-1.1
			c-0.1-0.5-0.2-1.1-0.2-1.8c0-0.7,0.1-1.3,0.2-1.8c0.1-0.5,0.3-0.9,0.5-1.1c0.2-0.3,0.5-0.5,0.9-0.6s0.8-0.2,1.3-0.2
			s0.9,0.1,1.3,0.2c0.4,0.1,0.7,0.3,0.9,0.6s0.4,0.7,0.5,1.1c0.1,0.5,0.2,1.1,0.2,1.8c0,0.7-0.1,1.3-0.2,1.8
			c-0.1,0.5-0.3,0.9-0.5,1.1c-0.2,0.3-0.5,0.5-0.9,0.6C191.3,21.6,190.8,21.6,190.4,21.6z M190.3,20.4c0.3,0,0.5,0,0.7-0.1
			s0.3-0.2,0.5-0.4c0.1-0.2,0.2-0.5,0.2-0.8s0.1-0.7,0.1-1.2s0-0.9-0.1-1.2c0-0.3-0.1-0.6-0.2-0.8c-0.1-0.2-0.3-0.3-0.5-0.4
			c-0.2-0.1-0.4-0.1-0.7-0.1s-0.5,0-0.7,0.1s-0.3,0.2-0.4,0.4c-0.1,0.2-0.2,0.4-0.2,0.8c0,0.3-0.1,0.7-0.1,1.2s0,0.9,0.1,1.2
			c0,0.3,0.1,0.6,0.2,0.8c0.1,0.2,0.3,0.3,0.4,0.4C189.8,20.4,190.1,20.4,190.3,20.4z"/>
		<path class="st0" d="M195.3,23l-0.9-0.2l0.3-1.2l-0.4-0.1v-1.4h1.5v1.2L195.3,23z"/>
		<path class="st0" d="M37.8,33.5v-1.2l3.2-4.8h-3v-1.2h4.6v1.2l-3.2,4.8h3.3v1.2H37.8z"/>
		<path class="st0" d="M45.1,28.1L45.1,28.1v5.4h-1.2v-7.2h1.8l2.4,5.5l0,0v-5.5h1.2v7.2h-1.9L45.1,28.1z"/>
		<path class="st0" d="M54.5,32h-2.4l-0.4,1.5h-1.5l2.2-7.2h1.9l2.2,7.2H55L54.5,32z M52.4,30.8h1.8l-0.9-3.2h-0.1L52.4,30.8z"/>
		<path class="st0" d="M58.6,28.1L58.6,28.1v5.4h-1.2v-7.2h1.8l2.4,5.5l0,0v-5.5h1.2v7.2H61L58.6,28.1z"/>
		<path class="st0" d="M67,33.6c-0.5,0-0.9-0.1-1.3-0.2c-0.4-0.1-0.7-0.3-0.9-0.6c-0.2-0.3-0.4-0.7-0.5-1.1
			c-0.1-0.5-0.2-1.1-0.2-1.8c0-0.7,0.1-1.3,0.2-1.8s0.3-0.9,0.5-1.1c0.2-0.3,0.5-0.5,0.9-0.6s0.8-0.2,1.3-0.2s0.9,0.1,1.3,0.2
			s0.7,0.3,0.9,0.6c0.2,0.3,0.4,0.7,0.5,1.1c0.1,0.5,0.2,1.1,0.2,1.8c0,0.7-0.1,1.3-0.2,1.8c-0.1,0.5-0.3,0.9-0.5,1.1
			c-0.2,0.3-0.5,0.5-0.9,0.6C67.9,33.6,67.5,33.6,67,33.6z M67,32.4c0.3,0,0.5,0,0.7-0.1s0.3-0.2,0.5-0.4c0.1-0.2,0.2-0.5,0.2-0.8
			s0.1-0.7,0.1-1.2s0-0.9-0.1-1.2c0-0.3-0.1-0.6-0.2-0.8c-0.1-0.2-0.3-0.3-0.5-0.4s-0.4-0.1-0.7-0.1c-0.3,0-0.5,0-0.7,0.1
			s-0.3,0.2-0.4,0.4c-0.1,0.2-0.2,0.4-0.2,0.8c0,0.3-0.1,0.7-0.1,1.2s0,0.9,0.1,1.2c0,0.3,0.1,0.6,0.2,0.8s0.3,0.3,0.4,0.4
			S66.7,32.4,67,32.4z"/>
		<path class="st0" d="M75.6,31.4c0,0.4,0,0.7-0.1,1c-0.1,0.3-0.3,0.5-0.5,0.7s-0.5,0.3-0.8,0.4c-0.3,0.1-0.7,0.1-1.2,0.1
			c-0.4,0-0.8,0-1.1-0.1c-0.3-0.1-0.7-0.1-0.9-0.2l0.2-1.2c0.3,0.1,0.6,0.2,0.9,0.2c0.3,0.1,0.7,0.1,1,0.1c0.2,0,0.3,0,0.5,0
			c0.1,0,0.3-0.1,0.4-0.1c0.1-0.1,0.2-0.2,0.2-0.3c0.1-0.1,0.1-0.3,0.1-0.5c0-0.1,0-0.3-0.1-0.4c0-0.1-0.1-0.2-0.2-0.3
			c-0.1-0.1-0.2-0.1-0.4-0.2c-0.2-0.1-0.3-0.1-0.6-0.2c-0.3-0.1-0.6-0.2-0.9-0.3c-0.3-0.1-0.5-0.2-0.6-0.4c-0.2-0.2-0.3-0.4-0.4-0.6
			S71,28.6,71,28.2c0-0.8,0.2-1.3,0.6-1.6c0.4-0.3,1-0.5,1.8-0.5c0.3,0,0.7,0,1,0.1s0.6,0.2,0.9,0.3l-0.2,1.2
			c-0.2-0.1-0.5-0.2-0.8-0.2c-0.3-0.1-0.6-0.1-0.9-0.1c-0.2,0-0.3,0-0.4,0s-0.2,0.1-0.3,0.1c-0.1,0.1-0.2,0.1-0.2,0.2
			c-0.1,0.1-0.1,0.2-0.1,0.4c0,0.2,0,0.3,0.1,0.4s0.1,0.2,0.2,0.3c0.1,0.1,0.2,0.2,0.4,0.2c0.2,0.1,0.3,0.1,0.6,0.2
			c0.4,0.1,0.7,0.2,0.9,0.3c0.3,0.1,0.5,0.2,0.6,0.4c0.2,0.2,0.3,0.3,0.3,0.6C75.5,30.8,75.6,31.1,75.6,31.4z"/>
		<path class="st0" d="M79.3,27.6v6h-1.4v-6H76v-1.2h5.1v1.2C81.1,27.6,79.3,27.6,79.3,27.6z"/>
		<path class="st0" d="M84.3,33.5v-7.2h1.4v7.2H84.3z"/>
		<path class="st0" d="M88.5,28.1L88.5,28.1v5.4h-1.2v-7.2h1.8l2.4,5.5l0,0v-5.5h1.2v7.2h-1.9L88.5,28.1z"/>
		<path class="st0" d="M96.5,33.5v-7.2h1.4v7.2H96.5z"/>
		<path class="st0" d="M100.7,28.1L100.7,28.1l-0.1,5.4h-1.2v-7.2h1.8l2.4,5.5l0,0v-5.5h1.2v7.2H103L100.7,28.1z"/>
		<path class="st0" d="M109.1,33.6c-0.5,0-0.9-0.1-1.3-0.2c-0.4-0.1-0.7-0.3-0.9-0.6c-0.2-0.3-0.4-0.7-0.5-1.1
			c-0.1-0.5-0.2-1.1-0.2-1.8c0-0.7,0.1-1.3,0.2-1.8s0.3-0.9,0.5-1.1c0.2-0.3,0.5-0.5,0.9-0.6s0.8-0.2,1.3-0.2s0.9,0.1,1.3,0.2
			s0.7,0.3,0.9,0.6c0.2,0.3,0.4,0.7,0.5,1.1c0.1,0.5,0.2,1.1,0.2,1.8c0,0.7-0.1,1.3-0.2,1.8c-0.1,0.5-0.3,0.9-0.5,1.1
			c-0.2,0.3-0.5,0.5-0.9,0.6C110,33.6,109.6,33.6,109.1,33.6z M109.1,32.4c0.3,0,0.5,0,0.7-0.1s0.3-0.2,0.5-0.4
			c0.1-0.2,0.2-0.5,0.2-0.8s0.1-0.7,0.1-1.2s0-0.9-0.1-1.2c0-0.3-0.1-0.6-0.2-0.8c-0.1-0.2-0.3-0.3-0.5-0.4s-0.4-0.1-0.7-0.1
			c-0.3,0-0.5,0-0.7,0.1s-0.3,0.2-0.5,0.4c-0.1,0.2-0.2,0.4-0.2,0.8c0,0.3-0.1,0.7-0.1,1.2s0,0.9,0.1,1.2c0,0.3,0.1,0.6,0.2,0.8
			s0.3,0.3,0.5,0.4S108.8,32.4,109.1,32.4z"/>
		<path class="st0" d="M116.6,33.5h-2.1l-1.9-7.2h1.5l1.5,6h0.1l1.5-6h1.4L116.6,33.5z"/>
		<path class="st0" d="M123,32h-2.4l-0.4,1.5h-1.5l2.2-7.2h1.9l2.2,7.2h-1.5L123,32z M120.9,30.8h1.8l-0.9-3.2l0,0L120.9,30.8z"/>
		<path class="st0" d="M130.1,27.7c-0.2-0.1-0.4-0.1-0.6-0.2c-0.2,0-0.5-0.1-0.8-0.1s-0.6,0-0.9,0.1c-0.2,0.1-0.4,0.2-0.6,0.4
			c-0.1,0.2-0.2,0.4-0.3,0.7c-0.1,0.3-0.1,0.7-0.1,1.2s0,0.9,0.1,1.2c0.1,0.3,0.2,0.6,0.3,0.8c0.1,0.2,0.3,0.3,0.6,0.4
			c0.2,0.1,0.5,0.1,0.8,0.1s0.5,0,0.8-0.1c0.2,0,0.5-0.1,0.7-0.2l0.2,1.1c-0.3,0.1-0.6,0.2-0.9,0.3c-0.3,0.1-0.6,0.1-1,0.1
			c-0.5,0-1-0.1-1.4-0.2c-0.4-0.1-0.7-0.4-0.9-0.7c-0.2-0.3-0.4-0.7-0.5-1.1c-0.1-0.5-0.2-1-0.2-1.7c0-0.6,0.1-1.2,0.2-1.7
			s0.3-0.8,0.5-1.2c0.2-0.3,0.6-0.5,1-0.7c0.4-0.1,0.9-0.2,1.4-0.2c0.4,0,0.7,0,1,0.1s0.5,0.1,0.8,0.2L130.1,27.7z"/>
		<path class="st0" d="M131.5,33.5v-7.2h1.4v7.2H131.5z"/>
		<path class="st0" d="M133.4,34.5c0.2-0.1,0.4-0.2,0.6-0.2c0.2-0.1,0.3-0.2,0.4-0.3c0.1-0.1,0.2-0.3,0.2-0.4s0.1-0.4,0.1-0.6v-6.5
			h1.4v6.4c0,0.4,0,0.8-0.1,1.1s-0.2,0.6-0.4,0.8s-0.4,0.4-0.7,0.6c-0.3,0.2-0.6,0.3-1.1,0.4L133.4,34.5z"/>
		<path class="st0" d="M137.5,33.5v-7.2h4.6v1.2h-3.2v1.8h2.8v1.2h-2.8v1.8h3.2v1.2H137.5z"/>
	</g>
</g>
</svg>
