<?xml version="1.0" encoding="utf-8"?>
<!-- Generator: Adobe Illustrator 21.0.0, SVG Export Plug-In . SVG Version: 6.00 Build 0)  -->
<svg version="1.1" id="Layer_1" xmlns="http://www.w3.org/2000/svg" xmlns:xlink="http://www.w3.org/1999/xlink" x="0px" y="0px"
	 viewBox="0 0 151.7 53" style="enable-background:new 0 0 151.7 53;" xml:space="preserve">
<style type="text/css">
	.st0{fill:#414141;}
	.st1{clip-path:url(#SVGID_2_);fill:#414141;}
</style>
<g>
	<g>
		<path class="st0" d="M128.4,40.5c0-0.9-0.4-1.7-1.4-1.7s-1.3,0.9-1.3,1.8c0,0.8,0.4,1.7,1.3,1.7C128,42.3,128.4,41.4,128.4,40.5
			 M129.5,42.9c0,1.5-0.9,2.3-2.5,2.3c-1,0-2.2-0.4-2.3-1.6h1.1c0.1,0.6,0.7,0.8,1.2,0.8c0.9,0,1.3-0.5,1.3-1.3v-0.8l0,0
			c-0.3,0.6-0.9,0.9-1.5,0.9c-1.6,0-2.3-1.2-2.3-2.7c0-1.4,0.9-2.6,2.3-2.6c0.6,0,1.2,0.3,1.5,0.8l0,0V38h1.1v4.9H129.5z"/>
		<path class="st0" d="M130.6,38.1h1.1v1l0,0c0.1-0.5,0.8-1.1,1.5-1.1c0.3,0,0.3,0,0.4,0v1.1c-0.2,0-0.3-0.1-0.5-0.1
			c-0.8,0-1.4,0.6-1.4,1.8v2.4h-1.1V38.1z"/>
		<path class="st0" d="M137.7,40.6c0-0.9-0.4-1.8-1.5-1.8c-1,0-1.5,0.9-1.5,1.8c0,0.9,0.4,1.8,1.5,1.8
			C137.2,42.5,137.7,41.5,137.7,40.6 M133.7,40.6c0-1.6,0.9-2.7,2.6-2.7c1.6,0,2.6,1.1,2.6,2.7c0,1.6-0.9,2.7-2.6,2.7
			C134.6,43.4,133.7,42.2,133.7,40.6"/>
		<path class="st0" d="M144.2,43.2h-1.1v-0.7l0,0c-0.3,0.5-0.9,0.9-1.5,0.9c-1.3,0-1.9-0.7-1.9-2v-3.3h1.1v3.1c0,0.9,0.4,1.2,1,1.2
			c0.9,0,1.3-0.6,1.3-1.4v-3h1.1L144.2,43.2L144.2,43.2z"/>
		<path class="st0" d="M147.9,38.8c-1,0-1.4,0.7-1.4,1.8c0,1,0.5,1.8,1.4,1.8c1,0,1.4-0.9,1.4-1.8C149.3,39.7,148.8,38.8,147.9,38.8
			 M145.4,38.1h1.1v0.7l0,0c0.3-0.6,0.9-0.8,1.6-0.8c1.6,0,2.4,1.2,2.4,2.7c0,1.4-0.7,2.7-2.2,2.7c-0.7,0-1.4-0.2-1.7-0.8l0,0v2.6
			h-1.1v-7.1H145.4z"/>
	</g>
	<g>
		<g>
			<defs>
				<path id="SVGID_1_" d="M130.9,21.4H147v10h-16.1V21.4z M132.6,17.3c-0.9,0-1.7,0.1-2.4,0.3c-0.7,0.2-1.4,0.6-2,1.2
					c-0.7,0.6-1.2,1.1-1.5,1.7c-0.4,0.6-0.5,1.4-0.5,2.1v6.9c0,0.8,0.1,1.5,0.3,2.1c0.2,0.6,0.6,1.2,1.1,1.8
					c0.6,0.7,1.3,1.2,1.9,1.5c0.7,0.3,1.5,0.4,2.4,0.4h14c1.6,0,3-0.6,4.1-1.7c0.6-0.6,1-1.2,1.3-1.8c0.3-0.6,0.4-1.3,0.4-2.1V23
					c0-0.7-0.1-1.3-0.3-1.9c-0.2-0.5-0.5-1.1-1-1.7c-0.6-0.8-1.3-1.3-2-1.7c-0.7-0.4-1.5-0.5-2.5-0.5L132.6,17.3L132.6,17.3z
					 M66,17.4c-2,0-3.6,0.1-5.1,1.5c-1.3,1.2-1.8,2.5-1.8,4.1s0.4,2.7,1.5,3.8c1.3,1.3,2.9,1.4,4.7,1.4h18.3v3.1H59.9v4.2l22.2-0.1
					c1.8,0,3.3,0,4.7-1.4c1.2-1.2,1.5-2.6,1.5-4.2s-0.4-2.7-1.5-3.9c-1.3-1.3-2.9-1.4-4.7-1.4H64v-3.2h23.4v-4.1L66,17.4z
					 M90.3,35.6h5.1V17.2h-5.1V35.6z M102.7,28.2h15.1v3.2h-15.1V28.2z M102.6,21.4h15v3.1h-15V21.4z M97.8,17.2v18.2H118
					c1.7,0,3.1-0.6,4.3-1.7c1.2-1.2,1.6-2.5,1.4-4.2c-0.1-0.9-0.3-1.3-0.7-2.2c-0.1-0.3-0.3-0.6-0.6-1.1c0.2-0.4,0.5-0.7,0.6-1
					c0.3-0.8,0.7-1.4,0.7-2.4c0-0.7-0.1-1.1-0.3-1.8c-0.5-1.6-1.4-2.6-2.5-3.2c-0.9-0.4-2.1-0.6-3.8-0.6
					C117.1,17.2,97.8,17.2,97.8,17.2z M11,27c-1.2-1.1-1.8-2.2-1.8-3.9c0-1.7,0.7-3,2.1-4.2c1.6-1.4,3.1-1.5,5.1-1.5l21.7-0.1v4.2
					H14.4v3.2h18.3c1.8,0,3.3,0.1,4.7,1.5c1.2,1.1,1.8,2.3,1.8,3.9s-0.4,3.1-1.7,4.3c-1.4,1.3-2.9,1.4-4.7,1.4l-22.5,0.1v-4.2h24.1
					v-3.2H15.8C14,28.4,12.5,28.3,11,27 M19.3,1c-0.8,0.4-1.5,0.8-2.2,1.3L0,12.2v28.7l17.6,10.2c0.4,0.2,0.7,0.4,1.1,0.6
					c1.7,0.8,3.5,1.3,5.5,1.3s3.9-0.5,5.5-1.3c0.4-0.2,0.7-0.4,1.1-0.6l17.9-10.4V12.4l-17.4-10c-0.6-0.6-1.3-1-2.1-1.4
					c-1.5-0.7-3.2-1-4.9-1C22.5,0,20.8,0.4,19.3,1"/>
			</defs>
			<use xlink:href="#SVGID_1_"  style="overflow:visible;fill:#414141;"/>
			<clipPath id="SVGID_2_">
				<use xlink:href="#SVGID_1_"  style="overflow:visible;"/>
			</clipPath>
			<polygon class="st1" points="155.8,-16.7 163.2,52.4 1.8,69.7 -5.6,0.6 			"/>
		</g>
	</g>
</g>
</svg>
