<?xml version="1.0" encoding="utf-8"?>
<!-- Generator: Adobe Illustrator 21.0.0, SVG Export Plug-In . SVG Version: 6.00 Build 0)  -->
<svg version="1.1" id="Layer_1" xmlns="http://www.w3.org/2000/svg" xmlns:xlink="http://www.w3.org/1999/xlink" x="0px" y="0px"
	 viewBox="0 0 180 170.8" style="enable-background:new 0 0 180 170.8;" xml:space="preserve">
<style type="text/css">
	.st0{display:none;}
	.st1{display:inline;fill:#FFFFFF;}
	.st2{display:inline;}
	.st3{display:inline;fill:url(#SVGID_1_);}
	.st4{display:inline;fill:url(#SVGID_2_);}
	.st5{fill:#414141;}
</style>
<g id="Negativ" class="st0">
	<path class="st1" d="M-10.1,112.8l5.7,0c4.1,0,6.3,1.7,6.3,5.1c0,2.1-1.1,3.8-2.2,4.4l2.9,5h-5l-2.1-4.2h-1.2v4.2h-4.4V112.8z
		 M-4.4,119.6c1.1,0,1.7-0.5,1.7-1.5c0-1-0.6-1.5-1.8-1.5h-1.2v3H-4.4z"/>
	<polygon class="st1" points="16.4,112.8 25.2,112.8 25.2,114.9 18.7,114.9 18.7,119.1 24.5,119.1 24.5,121.1 18.7,121.1 
		18.7,125.3 25.2,125.3 25.2,127.4 16.4,127.4 	"/>
	<path class="st1" d="M39.3,112.8h4.7c4.1,0,5.8,1.9,5.8,5c0,3.2-1.9,4.9-5.8,4.9h-2.4v4.6h-2.3C39.3,127.4,39.3,112.8,39.3,112.8z
		 M44.1,120.7c2.4,0,3.4-1,3.4-2.9c0-1.8-1-2.9-3.4-2.9h-2.5v5.9H44.1z"/>
	<path class="st1" d="M63.5,121.8v-9h2.3v8.9c0,2.4,1.1,3.9,3.9,3.9c2.7,0,3.9-1.4,3.9-3.9v-8.9h2.3v9c0,3.7-2.3,5.8-6.2,5.8
		C65.7,127.6,63.5,125.6,63.5,121.8z"/>
	<path class="st1" d="M90.6,112.8h4.9c3.6,0,4.8,1.5,4.8,3.7c0,1.7-0.7,2.9-2.2,3.3v0.1c1.7,0.4,2.8,1.5,2.8,3.4c0,3-2.2,4-5.3,4
		h-4.9V112.8z M95.5,125.4c1.8,0,3-0.4,3-2.2c0-1.5-1.1-2.2-2.9-2.2h-2.7v4.4C92.9,125.4,95.5,125.4,95.5,125.4z M95.5,119
		c1.4,0,2.4-0.7,2.4-2.1c0-1.4-0.9-2-2.7-2h-2.4v4.2H95.5z"/>
	<polygon class="st1" points="114.9,112.8 117.2,112.8 117.2,125.3 123.2,125.3 123.2,127.4 114.9,127.4 	"/>
	<polygon class="st1" points="136.8,112.8 139.1,112.8 139.1,127.4 136.8,127.4 	"/>
	<polygon class="st1" points="154,112.8 156.3,112.8 156.3,118.9 159.1,118.9 163.2,112.8 165.9,112.8 161,119.9 166.3,127.4 
		163.5,127.4 159.1,121.1 156.3,121.1 156.3,127.4 154,127.4 	"/>
	<polygon class="st1" points="178.8,112.8 188.6,112.8 188.6,116.3 183.2,116.3 183.2,118.3 188,118.3 188,121.9 183.2,121.9 
		183.2,123.9 188.6,123.9 188.6,127.4 178.8,127.4 	"/>
	<path class="st1" d="M-10.1,160.5v-2.2c1.5,0.9,3.5,1.4,5,1.4c2,0,3.1-0.8,3.1-2.1c0-1.8-2-2.1-4-2.7c-2-0.6-3.9-1.6-3.9-4.2
		c0-2.6,2.1-4,5-4c1.8,0,3.3,0.4,4.6,1.1v2.2c-1.2-0.8-2.8-1.2-4.2-1.2c-2,0-3,0.6-3,1.9c0,1.4,1.2,1.8,2.7,2.3
		c2.3,0.7,5.2,1.4,5.2,4.6c0,2.8-2.1,4.3-5.2,4.3C-6.5,161.8-8.6,161.4-10.1,160.5z"/>
	<polygon class="st1" points="14.6,147 16.9,147 16.9,159.4 22.9,159.4 22.9,161.5 14.6,161.5 	"/>
	<path class="st1" d="M35.9,154.2c0-4.4,2.9-7.6,7.4-7.6c4.5,0,7.4,3.2,7.4,7.6c0,4.4-2.9,7.6-7.4,7.6
		C38.8,161.8,35.9,158.6,35.9,154.2z M48.4,154.2c0-3.3-1.9-5.5-5.1-5.5c-3.1,0-5.1,2.2-5.1,5.5c0,3.4,2,5.5,5.1,5.5
		C46.5,159.8,48.4,157.6,48.4,154.2z"/>
	<polygon class="st1" points="63.5,147 66,147 70.6,159.3 70.7,159.3 75.3,147 77.7,147 72,161.5 69.2,161.5 	"/>
	<polygon class="st1" points="91.4,147 100.1,147 100.1,149 93.6,149 93.6,153.2 99.5,153.2 99.5,155.3 93.6,155.3 93.6,159.5 
		100.1,159.5 100.1,161.5 91.4,161.5 	"/>
	<polygon class="st1" points="114.6,147 116.9,147 124.5,157.7 124.7,157.7 124.6,147 126.9,147 126.9,161.5 124.7,161.5 
		116.9,150.8 116.8,150.8 116.9,161.5 114.6,161.5 	"/>
	<polygon class="st1" points="142.2,147 144.4,147 144.4,161.5 142.2,161.5 	"/>
	<path class="st1" d="M158.3,161.6v-2.1c0.5,0.1,0.9,0.2,1.4,0.2c1.5,0,2.6-0.6,2.6-2.9V147h2.3v10c0,3.4-1.6,4.8-4.4,4.8
		C159.4,161.8,158.9,161.7,158.3,161.6z"/>
	<polygon class="st1" points="179.6,147 188.4,147 188.4,149 181.9,149 181.9,153.2 187.7,153.2 187.7,155.3 181.9,155.3 
		181.9,159.5 188.4,159.5 188.4,161.5 179.6,161.5 	"/>
	<rect x="60.6" y="176" class="st1" width="58.1" height="4.4"/>
	<path class="st1" d="M-10.2,92.4v-4.2c1.7,1,3.9,1.7,5.4,1.7c1,0,1.5-0.3,1.5-0.9c0-0.8-1.1-0.9-2.3-1.2c-1.9-0.6-4.5-1.6-4.5-4.8
		c0-2.8,2.2-4.4,5.4-4.4c2,0,3.9,0.4,5.3,0.9v4.2c-1.1-0.7-3.3-1.4-4.7-1.4c-0.8,0-1.3,0.2-1.3,0.8c0,0.7,0.8,0.8,1.6,1.1
		c2,0.6,5.2,1.3,5.2,4.8c0,3.2-2.2,4.7-5.9,4.7C-7,93.6-9.2,92.9-10.2,92.4z"/>
	<path class="st1" d="M19.2,86.1c0-4.3,2.9-7.6,7.8-7.6c4.8,0,7.8,3.3,7.8,7.6c0,4.4-2.9,7.6-7.8,7.6C22.1,93.6,19.2,90.5,19.2,86.1
		z M30.2,86.1c0-2.4-1.4-3.6-3.2-3.6c-1.8,0-3.2,1.2-3.2,3.6c0,2.3,1.3,3.6,3.2,3.6C28.9,89.7,30.2,88.4,30.2,86.1z"/>
	<path class="st1" d="M53.3,78.8h5.6c5,0,7.6,2.7,7.6,7.3c0,4.5-2.6,7.3-7.6,7.3h-5.6C53.3,93.3,53.3,78.8,53.3,78.8z M59,89.5
		c1.8,0,2.8-1.1,2.8-3.4c0-2.4-1.1-3.4-2.8-3.4h-1.3v6.9H59z"/>
	<path class="st1" d="M84.5,92.4v-4.2c1.7,1,3.9,1.7,5.4,1.7c1,0,1.5-0.3,1.5-0.9c0-0.8-1.1-0.9-2.3-1.2c-1.9-0.6-4.5-1.6-4.5-4.8
		c0-2.8,2.2-4.4,5.5-4.4c2,0,3.9,0.4,5.3,0.9v4.2c-1.1-0.7-3.3-1.4-4.7-1.4c-0.8,0-1.3,0.2-1.3,0.8c0,0.7,0.8,0.8,1.6,1.1
		c2,0.6,5.2,1.3,5.2,4.8c0,3.2-2.2,4.7-5.9,4.7C87.7,93.6,85.5,92.9,84.5,92.4z"/>
	<polygon class="st1" points="117.3,82.9 113.6,82.9 113.6,78.8 125.4,78.8 125.4,82.9 121.7,82.9 121.7,93.3 117.3,93.3 	"/>
	<polygon class="st1" points="142.3,78.8 147.1,78.8 149.7,88.1 149.9,88.1 152.5,78.8 157.2,78.8 152.3,93.3 147.2,93.3 	"/>
	<path class="st1" d="M174.6,86.1c0-4.3,2.9-7.6,7.8-7.6c4.8,0,7.8,3.3,7.8,7.6c0,4.4-2.9,7.6-7.8,7.6
		C177.5,93.6,174.6,90.5,174.6,86.1z M185.6,86.1c0-2.4-1.4-3.6-3.2-3.6c-1.8,0-3.2,1.2-3.2,3.6c0,2.3,1.3,3.6,3.2,3.6
		C184.3,89.7,185.6,88.4,185.6,86.1z"/>
	<path class="st1" d="M118.4-3.1c-0.5-0.2-2.1-1-2.1-1c-8.4-3.7-17.5-5.6-26.7-5.6c-9.1,0-18.3,1.9-26.7,5.6c0,0-1.6,0.7-2.1,1
		c-0.2,0.1-0.3,0.3-0.3,0.5l2.1,33.1c0.6,9.2,4.5,17.8,11,24.3c4.4,4.4,9.9,7.7,15.8,9.5c0,0,0.1,0,0.1,0c0.1,0,0.1,0,0.1,0
		c6-1.8,11.4-5.1,15.8-9.5c6.5-6.5,10.4-15.1,11-24.3l2.1-33.1C118.7-2.8,118.6-3,118.4-3.1z M92.6-2.2l2.5,0.3l1-2.3l1,2.3l2.5-0.3
		l-1.5,2l1.5,2l-2.5-0.3l-1,2.3l-1-2.3l-2.5,0.3l1.5-2L92.6-2.2z M89.6,4.4l1,2.3l2.5-0.3l-1.5,2l1.5,2l-2.5-0.3l-1,2.3l-1-2.3
		l-2.5,0.3l1.5-2l-1.5-2l2.5,0.3L89.6,4.4z M79.7-2.2l2.5,0.3l1-2.3l1,2.3l2.5-0.3l-1.5,2l1.5,2l-2.5-0.3l-1,2.3l-1-2.3l-2.5,0.3
		l1.5-2L79.7-2.2z M79.7,21.7l3.9,5.2l6-11.8l6,11.8l3.9-5.2l9.9,13.1c0,0.5,0,1.2-0.2,2c-0.2,0.8-0.6,1.7-1.7,2.9
		c-1.2,1.2-2.9,1.9-4.6,1.9c-1.1,0-2.2-0.3-3.2-0.8c-0.6-0.4-1.2-0.6-1.7-0.7c-0.6-0.2-1.2-0.2-1.8-0.2c-1.2,0-2.3,0.3-3.4,0.9
		c-1,0.6-2.1,0.9-3.3,0.9c-1.1,0-2.3-0.3-3.3-0.9c-1-0.6-2.2-0.9-3.4-0.9c-0.6,0-1.2,0.1-1.8,0.2c-0.6,0.2-1.1,0.4-1.7,0.7
		c-1,0.5-2.1,0.8-3.2,0.8c-1.7,0-3.5-0.7-4.6-1.9c-1.2-1.2-1.5-2.1-1.7-2.9c-0.2-0.9-0.2-1.6-0.2-2L79.7,21.7z M101.2,45.2
		c-0.6-0.1-1.1-0.4-1.6-0.7c-2.1-1.2-4.7-1.2-6.8,0c-1,0.6-2.1,0.9-3.3,0.9c-1.1,0-2.3-0.3-3.3-0.9c-2.1-1.2-4.7-1.2-6.8,0
		c-0.5,0.3-1,0.5-1.6,0.7c-1.5,0.4-3,0.3-4.5-0.4l-0.3-0.1c-0.5-0.8-0.9-1.5-1.3-2.3c0.4,0.1,0.7,0.3,1,0.5c1,0.6,2.2,0.9,3.4,0.9
		c0.6,0,1.2-0.1,1.8-0.2c0.6-0.2,1.1-0.4,1.6-0.7c1-0.6,2.1-0.9,3.3-0.9c1.1,0,2.3,0.3,3.3,0.9c1,0.6,2.2,0.9,3.4,0.9
		c1.2,0,2.4-0.3,3.4-0.9c1-0.6,2.1-0.9,3.3-0.9c1.1,0,2.3,0.3,3.3,0.9c0.5,0.3,1.1,0.5,1.6,0.7c0.6,0.2,1.2,0.2,1.8,0.2
		c1.2,0,2.3-0.3,3.4-0.9c0.3-0.2,0.6-0.3,0.9-0.5c-0.3,0.8-0.8,1.6-1.3,2.3l-0.3,0.1C104.3,45.5,102.7,45.6,101.2,45.2z M104.1,47.5
		c-0.8,1-1.6,1.9-2.5,2.8c-3.3,3.3-7.4,5.9-11.9,7.4c-4.5-1.5-8.6-4.1-12-7.4c-0.9-0.9-1.7-1.8-2.5-2.8c1,0.2,2,0.1,2.9-0.1
		c0.6-0.2,1.1-0.4,1.6-0.7c2-1.1,4.6-1.1,6.5,0c1,0.6,2.2,0.9,3.4,0.9c1.2,0,2.3-0.3,3.4-0.9c2-1.1,4.6-1.1,6.5,0
		c0.5,0.3,1.1,0.5,1.6,0.7C102.1,47.6,103.1,47.6,104.1,47.5L104.1,47.5z M114.8,30.3c-0.5,8.7-4.2,16.8-10.4,23
		c-4.1,4.1-9.2,7.2-14.8,8.9c-5.6-1.7-10.7-4.8-14.8-8.9c-6.1-6.1-9.8-14.3-10.4-23l-2-31.8l1.5-0.6l2,32.3c0.5,8.3,4,16.1,9.9,22
		c3.9,3.9,8.6,6.7,13.7,8.4c5.1-1.6,9.9-4.5,13.7-8.4c5.9-5.9,9.4-13.7,9.9-22l2-32.3c0.5,0.2,1.2,0.5,1.5,0.6L114.8,30.3z"/>
</g>
<g id="Mono" class="st0">
	<path class="st2" d="M-10.1,112.8l5.7,0c4.1,0,6.3,1.7,6.3,5.1c0,2.1-1.1,3.8-2.2,4.4l2.9,5h-5l-2.1-4.2h-1.2v4.2h-4.4V112.8z
		 M-4.4,119.6c1.1,0,1.7-0.5,1.7-1.5c0-1-0.6-1.5-1.8-1.5h-1.2v3H-4.4z"/>
	<polygon class="st2" points="16.4,112.8 25.2,112.8 25.2,114.9 18.7,114.9 18.7,119.1 24.5,119.1 24.5,121.1 18.7,121.1 
		18.7,125.3 25.2,125.3 25.2,127.4 16.4,127.4 	"/>
	<path class="st2" d="M39.3,112.8h4.7c4.1,0,5.8,1.9,5.8,5c0,3.2-1.9,4.9-5.8,4.9h-2.4v4.6h-2.3C39.3,127.4,39.3,112.8,39.3,112.8z
		 M44.1,120.7c2.4,0,3.4-1,3.4-2.9c0-1.8-1-2.9-3.4-2.9h-2.5v5.9H44.1z"/>
	<path class="st2" d="M63.5,121.8v-9h2.3v8.9c0,2.4,1.1,3.9,3.9,3.9c2.7,0,3.9-1.4,3.9-3.9v-8.9h2.3v9c0,3.7-2.3,5.8-6.2,5.8
		C65.7,127.6,63.5,125.6,63.5,121.8z"/>
	<path class="st2" d="M90.6,112.8h4.9c3.6,0,4.8,1.5,4.8,3.7c0,1.7-0.7,2.9-2.2,3.3v0.1c1.7,0.4,2.8,1.5,2.8,3.4c0,3-2.2,4-5.3,4
		h-4.9V112.8z M95.5,125.4c1.8,0,3-0.4,3-2.2c0-1.5-1.1-2.2-2.9-2.2h-2.7v4.4C92.9,125.4,95.5,125.4,95.5,125.4z M95.5,119
		c1.4,0,2.4-0.7,2.4-2.1c0-1.4-0.9-2-2.7-2h-2.4v4.2H95.5z"/>
	<polygon class="st2" points="114.9,112.8 117.2,112.8 117.2,125.3 123.2,125.3 123.2,127.4 114.9,127.4 	"/>
	<polygon class="st2" points="136.8,112.8 139.1,112.8 139.1,127.4 136.8,127.4 	"/>
	<polygon class="st2" points="154,112.8 156.3,112.8 156.3,118.9 159.1,118.9 163.2,112.8 165.9,112.8 161,119.9 166.3,127.4 
		163.5,127.4 159.1,121.1 156.3,121.1 156.3,127.4 154,127.4 	"/>
	<polygon class="st2" points="178.8,112.8 188.6,112.8 188.6,116.3 183.2,116.3 183.2,118.3 188,118.3 188,121.9 183.2,121.9 
		183.2,123.9 188.6,123.9 188.6,127.4 178.8,127.4 	"/>
	<path class="st2" d="M-10.1,160.5v-2.2c1.5,0.9,3.5,1.4,5,1.4c2,0,3.1-0.8,3.1-2.1c0-1.8-2-2.1-4-2.7c-2-0.6-3.9-1.6-3.9-4.2
		c0-2.6,2.1-4,5-4c1.8,0,3.3,0.4,4.6,1.1v2.2c-1.2-0.8-2.8-1.2-4.2-1.2c-2,0-3,0.6-3,1.9c0,1.4,1.2,1.8,2.7,2.3
		c2.3,0.7,5.2,1.4,5.2,4.6c0,2.8-2.1,4.3-5.2,4.3C-6.5,161.8-8.6,161.4-10.1,160.5z"/>
	<polygon class="st2" points="14.6,147 16.9,147 16.9,159.4 22.9,159.4 22.9,161.5 14.6,161.5 	"/>
	<path class="st2" d="M35.9,154.2c0-4.4,2.9-7.6,7.4-7.6c4.5,0,7.4,3.2,7.4,7.6c0,4.4-2.9,7.6-7.4,7.6
		C38.8,161.8,35.9,158.6,35.9,154.2z M48.4,154.2c0-3.3-1.9-5.5-5.1-5.5c-3.1,0-5.1,2.2-5.1,5.5c0,3.4,2,5.5,5.1,5.5
		C46.5,159.8,48.4,157.6,48.4,154.2z"/>
	<polygon class="st2" points="63.5,147 66,147 70.6,159.3 70.7,159.3 75.3,147 77.7,147 72,161.5 69.2,161.5 	"/>
	<polygon class="st2" points="91.4,147 100.1,147 100.1,149 93.6,149 93.6,153.2 99.5,153.2 99.5,155.3 93.6,155.3 93.6,159.5 
		100.1,159.5 100.1,161.5 91.4,161.5 	"/>
	<polygon class="st2" points="114.6,147 116.9,147 124.5,157.7 124.7,157.7 124.6,147 126.9,147 126.9,161.5 124.7,161.5 
		116.9,150.8 116.8,150.8 116.9,161.5 114.6,161.5 	"/>
	<polygon class="st2" points="142.2,147 144.4,147 144.4,161.5 142.2,161.5 	"/>
	<path class="st2" d="M158.3,161.6v-2.1c0.5,0.1,0.9,0.2,1.4,0.2c1.5,0,2.6-0.6,2.6-2.9V147h2.3v10c0,3.4-1.6,4.8-4.4,4.8
		C159.4,161.8,158.9,161.7,158.3,161.6z"/>
	<polygon class="st2" points="179.6,147 188.4,147 188.4,149 181.9,149 181.9,153.2 187.7,153.2 187.7,155.3 181.9,155.3 
		181.9,159.5 188.4,159.5 188.4,161.5 179.6,161.5 	"/>
	<rect x="60.6" y="176" class="st2" width="58.1" height="4.4"/>
	<path class="st2" d="M-10.2,92.4v-4.2c1.7,1,3.9,1.7,5.4,1.7c1,0,1.5-0.3,1.5-0.9c0-0.8-1.1-0.9-2.3-1.2c-1.9-0.6-4.5-1.6-4.5-4.8
		c0-2.8,2.2-4.4,5.4-4.4c2,0,3.9,0.4,5.3,0.9v4.2c-1.1-0.7-3.3-1.4-4.7-1.4c-0.8,0-1.3,0.2-1.3,0.8c0,0.7,0.8,0.8,1.6,1.1
		c2,0.6,5.2,1.3,5.2,4.8c0,3.2-2.2,4.7-5.9,4.7C-7,93.6-9.2,92.9-10.2,92.4z"/>
	<path class="st2" d="M19.2,86.1c0-4.3,2.9-7.6,7.8-7.6c4.8,0,7.8,3.3,7.8,7.6c0,4.4-2.9,7.6-7.8,7.6C22.1,93.6,19.2,90.5,19.2,86.1
		z M30.2,86.1c0-2.4-1.4-3.6-3.2-3.6c-1.8,0-3.2,1.2-3.2,3.6c0,2.3,1.3,3.6,3.2,3.6C28.9,89.7,30.2,88.4,30.2,86.1z"/>
	<path class="st2" d="M53.3,78.8h5.6c5,0,7.6,2.7,7.6,7.3c0,4.5-2.6,7.3-7.6,7.3h-5.6C53.3,93.3,53.3,78.8,53.3,78.8z M59,89.5
		c1.8,0,2.8-1.1,2.8-3.4c0-2.4-1.1-3.4-2.8-3.4h-1.3v6.9H59z"/>
	<path class="st2" d="M84.5,92.4v-4.2c1.7,1,3.9,1.7,5.4,1.7c1,0,1.5-0.3,1.5-0.9c0-0.8-1.1-0.9-2.3-1.2c-1.9-0.6-4.5-1.6-4.5-4.8
		c0-2.8,2.2-4.4,5.5-4.4c2,0,3.9,0.4,5.3,0.9v4.2c-1.1-0.7-3.3-1.4-4.7-1.4c-0.8,0-1.3,0.2-1.3,0.8c0,0.7,0.8,0.8,1.6,1.1
		c2,0.6,5.2,1.3,5.2,4.8c0,3.2-2.2,4.7-5.9,4.7C87.7,93.6,85.5,92.9,84.5,92.4z"/>
	<polygon class="st2" points="117.3,82.9 113.6,82.9 113.6,78.8 125.4,78.8 125.4,82.9 121.7,82.9 121.7,93.3 117.3,93.3 	"/>
	<polygon class="st2" points="142.3,78.8 147.1,78.8 149.7,88.1 149.9,88.1 152.5,78.8 157.2,78.8 152.3,93.3 147.2,93.3 	"/>
	<path class="st2" d="M174.6,86.1c0-4.3,2.9-7.6,7.8-7.6c4.8,0,7.8,3.3,7.8,7.6c0,4.4-2.9,7.6-7.8,7.6
		C177.5,93.6,174.6,90.5,174.6,86.1z M185.6,86.1c0-2.4-1.4-3.6-3.2-3.6c-1.8,0-3.2,1.2-3.2,3.6c0,2.3,1.3,3.6,3.2,3.6
		C184.3,89.7,185.6,88.4,185.6,86.1z"/>
	<path class="st2" d="M118.4-3.1c-0.5-0.2-2.1-1-2.1-1c-8.4-3.7-17.5-5.6-26.7-5.6c-9.1,0-18.3,1.9-26.7,5.6c0,0-1.6,0.7-2.1,1
		c-0.2,0.1-0.3,0.3-0.3,0.5l2.1,33.1c0.6,9.2,4.5,17.8,11,24.3c4.4,4.4,9.9,7.7,15.8,9.5c0,0,0.1,0,0.1,0c0.1,0,0.1,0,0.1,0
		c6-1.8,11.4-5.1,15.8-9.5c6.5-6.5,10.4-15.1,11-24.3l2.1-33.1C118.7-2.8,118.6-3,118.4-3.1z M92.6-2.2l2.5,0.3l1-2.3l1,2.3l2.5-0.3
		l-1.5,2l1.5,2l-2.5-0.3l-1,2.3l-1-2.3l-2.5,0.3l1.5-2L92.6-2.2z M89.6,4.4l1,2.3l2.5-0.3l-1.5,2l1.5,2l-2.5-0.3l-1,2.3l-1-2.3
		l-2.5,0.3l1.5-2l-1.5-2l2.5,0.3L89.6,4.4z M79.7-2.2l2.5,0.3l1-2.3l1,2.3l2.5-0.3l-1.5,2l1.5,2l-2.5-0.3l-1,2.3l-1-2.3l-2.5,0.3
		l1.5-2L79.7-2.2z M79.7,21.7l3.9,5.2l6-11.8l6,11.8l3.9-5.2l9.9,13.1c0,0.5,0,1.2-0.2,2c-0.2,0.8-0.6,1.7-1.7,2.9
		c-1.2,1.2-2.9,1.9-4.6,1.9c-1.1,0-2.2-0.3-3.2-0.8c-0.6-0.4-1.2-0.6-1.7-0.7c-0.6-0.2-1.2-0.2-1.8-0.2c-1.2,0-2.3,0.3-3.4,0.9
		c-1,0.6-2.1,0.9-3.3,0.9c-1.1,0-2.3-0.3-3.3-0.9c-1-0.6-2.2-0.9-3.4-0.9c-0.6,0-1.2,0.1-1.8,0.2c-0.6,0.2-1.1,0.4-1.7,0.7
		c-1,0.5-2.1,0.8-3.2,0.8c-1.7,0-3.5-0.7-4.6-1.9c-1.2-1.2-1.5-2.1-1.7-2.9c-0.2-0.9-0.2-1.6-0.2-2L79.7,21.7z M101.2,45.2
		c-0.6-0.1-1.1-0.4-1.6-0.7c-2.1-1.2-4.7-1.2-6.8,0c-1,0.6-2.1,0.9-3.3,0.9c-1.1,0-2.3-0.3-3.3-0.9c-2.1-1.2-4.7-1.2-6.8,0
		c-0.5,0.3-1,0.5-1.6,0.7c-1.5,0.4-3,0.3-4.5-0.4l-0.3-0.1c-0.5-0.8-0.9-1.5-1.3-2.3c0.4,0.1,0.7,0.3,1,0.5c1,0.6,2.2,0.9,3.4,0.9
		c0.6,0,1.2-0.1,1.8-0.2c0.6-0.2,1.1-0.4,1.6-0.7c1-0.6,2.1-0.9,3.3-0.9c1.1,0,2.3,0.3,3.3,0.9c1,0.6,2.2,0.9,3.4,0.9
		c1.2,0,2.4-0.3,3.4-0.9c1-0.6,2.1-0.9,3.3-0.9c1.1,0,2.3,0.3,3.3,0.9c0.5,0.3,1.1,0.5,1.6,0.7c0.6,0.2,1.2,0.2,1.8,0.2
		c1.2,0,2.3-0.3,3.4-0.9c0.3-0.2,0.6-0.3,0.9-0.5c-0.3,0.8-0.8,1.6-1.3,2.3l-0.3,0.1C104.3,45.5,102.7,45.6,101.2,45.2z M104.1,47.5
		c-0.8,1-1.6,1.9-2.5,2.8c-3.3,3.3-7.4,5.9-11.9,7.4c-4.5-1.5-8.6-4.1-12-7.4c-0.9-0.9-1.7-1.8-2.5-2.8c1,0.2,2,0.1,2.9-0.1
		c0.6-0.2,1.1-0.4,1.6-0.7c2-1.1,4.6-1.1,6.5,0c1,0.6,2.2,0.9,3.4,0.9c1.2,0,2.3-0.3,3.4-0.9c2-1.1,4.6-1.1,6.5,0
		c0.5,0.3,1.1,0.5,1.6,0.7C102.1,47.6,103.1,47.6,104.1,47.5L104.1,47.5z M114.8,30.3c-0.5,8.7-4.2,16.8-10.4,23
		c-4.1,4.1-9.2,7.2-14.8,8.9c-5.6-1.7-10.7-4.8-14.8-8.9c-6.1-6.1-9.8-14.3-10.4-23l-2-31.8l1.5-0.6l2,32.3c0.5,8.3,4,16.1,9.9,22
		c3.9,3.9,8.6,6.7,13.7,8.4c5.1-1.6,9.9-4.5,13.7-8.4c5.9-5.9,9.4-13.7,9.9-22l2-32.3c0.5,0.2,1.2,0.5,1.5,0.6L114.8,30.3z"/>
</g>
<g id="RGB_negativ" class="st0">
	<path class="st1" d="M-10.1,112.8l5.7,0c4.1,0,6.3,1.7,6.3,5.1c0,2.1-1.1,3.8-2.2,4.4l2.9,5h-5l-2.1-4.2h-1.2v4.2h-4.4V112.8z
		 M-4.4,119.6c1.1,0,1.7-0.5,1.7-1.5c0-1-0.6-1.5-1.8-1.5h-1.2v3H-4.4z"/>
	<polygon class="st1" points="16.4,112.8 25.2,112.8 25.2,114.9 18.7,114.9 18.7,119.1 24.5,119.1 24.5,121.1 18.7,121.1 
		18.7,125.3 25.2,125.3 25.2,127.4 16.4,127.4 	"/>
	<path class="st1" d="M39.3,112.8h4.7c4.1,0,5.8,1.9,5.8,5c0,3.2-1.9,4.9-5.8,4.9h-2.4v4.6h-2.3C39.3,127.4,39.3,112.8,39.3,112.8z
		 M44.1,120.7c2.4,0,3.4-1,3.4-2.9c0-1.8-1-2.9-3.4-2.9h-2.5v5.9H44.1z"/>
	<path class="st1" d="M63.5,121.8v-9h2.3v8.9c0,2.4,1.1,3.9,3.9,3.9c2.7,0,3.9-1.4,3.9-3.9v-8.9h2.3v9c0,3.7-2.3,5.8-6.2,5.8
		C65.7,127.6,63.5,125.6,63.5,121.8z"/>
	<path class="st1" d="M90.6,112.8h4.9c3.6,0,4.8,1.5,4.8,3.7c0,1.7-0.7,2.9-2.2,3.3v0.1c1.7,0.4,2.8,1.5,2.8,3.4c0,3-2.2,4-5.3,4
		h-4.9V112.8z M95.5,125.4c1.8,0,3-0.4,3-2.2c0-1.5-1.1-2.2-2.9-2.2h-2.7v4.4C92.9,125.4,95.5,125.4,95.5,125.4z M95.5,119
		c1.4,0,2.4-0.7,2.4-2.1c0-1.4-0.9-2-2.7-2h-2.4v4.2H95.5z"/>
	<polygon class="st1" points="114.9,112.8 117.2,112.8 117.2,125.3 123.2,125.3 123.2,127.4 114.9,127.4 	"/>
	<polygon class="st1" points="136.8,112.8 139.1,112.8 139.1,127.4 136.8,127.4 	"/>
	<polygon class="st1" points="154,112.8 156.3,112.8 156.3,118.9 159.1,118.9 163.2,112.8 165.9,112.8 161,119.9 166.3,127.4 
		163.5,127.4 159.1,121.1 156.3,121.1 156.3,127.4 154,127.4 	"/>
	<polygon class="st1" points="178.8,112.8 188.6,112.8 188.6,116.3 183.2,116.3 183.2,118.3 188,118.3 188,121.9 183.2,121.9 
		183.2,123.9 188.6,123.9 188.6,127.4 178.8,127.4 	"/>
	<path class="st1" d="M-10.1,160.5v-2.2c1.5,0.9,3.5,1.4,5,1.4c2,0,3.1-0.8,3.1-2.1c0-1.8-2-2.1-4-2.7c-2-0.6-3.9-1.6-3.9-4.2
		c0-2.6,2.1-4,5-4c1.8,0,3.3,0.4,4.6,1.1v2.2c-1.2-0.8-2.8-1.2-4.2-1.2c-2,0-3,0.6-3,1.9c0,1.4,1.2,1.8,2.7,2.3
		c2.3,0.7,5.2,1.4,5.2,4.6c0,2.8-2.1,4.3-5.2,4.3C-6.5,161.8-8.6,161.4-10.1,160.5z"/>
	<polygon class="st1" points="14.6,147 16.9,147 16.9,159.4 22.9,159.4 22.9,161.5 14.6,161.5 	"/>
	<path class="st1" d="M35.9,154.2c0-4.4,2.9-7.6,7.4-7.6c4.5,0,7.4,3.2,7.4,7.6c0,4.4-2.9,7.6-7.4,7.6
		C38.8,161.8,35.9,158.6,35.9,154.2z M48.4,154.2c0-3.3-1.9-5.5-5.1-5.5c-3.1,0-5.1,2.2-5.1,5.5c0,3.4,2,5.5,5.1,5.5
		C46.5,159.8,48.4,157.6,48.4,154.2z"/>
	<polygon class="st1" points="63.5,147 66,147 70.6,159.3 70.7,159.3 75.3,147 77.7,147 72,161.5 69.2,161.5 	"/>
	<polygon class="st1" points="91.4,147 100.1,147 100.1,149 93.6,149 93.6,153.2 99.5,153.2 99.5,155.3 93.6,155.3 93.6,159.5 
		100.1,159.5 100.1,161.5 91.4,161.5 	"/>
	<polygon class="st1" points="114.6,147 116.9,147 124.5,157.7 124.7,157.7 124.6,147 126.9,147 126.9,161.5 124.7,161.5 
		116.9,150.8 116.8,150.8 116.9,161.5 114.6,161.5 	"/>
	<polygon class="st1" points="142.2,147 144.4,147 144.4,161.5 142.2,161.5 	"/>
	<path class="st1" d="M158.3,161.6v-2.1c0.5,0.1,0.9,0.2,1.4,0.2c1.5,0,2.6-0.6,2.6-2.9V147h2.3v10c0,3.4-1.6,4.8-4.4,4.8
		C159.4,161.8,158.9,161.7,158.3,161.6z"/>
	<polygon class="st1" points="179.6,147 188.4,147 188.4,149 181.9,149 181.9,153.2 187.7,153.2 187.7,155.3 181.9,155.3 
		181.9,159.5 188.4,159.5 188.4,161.5 179.6,161.5 	"/>
	
		<linearGradient id="SVGID_1_" gradientUnits="userSpaceOnUse" x1="60.5857" y1="-6.248" x2="118.6846" y2="-6.248" gradientTransform="matrix(1 0 0 -1 0 172)">
		<stop  offset="0" style="stop-color:#B8904C"/>
		<stop  offset="0.3543" style="stop-color:#FAE788"/>
		<stop  offset="0.5432" style="stop-color:#E4BD67"/>
		<stop  offset="1" style="stop-color:#E4BD67"/>
	</linearGradient>
	<rect x="60.6" y="176" class="st3" width="58.1" height="4.4"/>
	<path class="st1" d="M-10.2,92.4v-4.2c1.7,1,3.9,1.7,5.4,1.7c1,0,1.5-0.3,1.5-0.9c0-0.8-1.1-0.9-2.3-1.2c-1.9-0.6-4.5-1.6-4.5-4.8
		c0-2.8,2.2-4.4,5.4-4.4c2,0,3.9,0.4,5.3,0.9v4.2c-1.1-0.7-3.3-1.4-4.7-1.4c-0.8,0-1.3,0.2-1.3,0.8c0,0.7,0.8,0.8,1.6,1.1
		c2,0.6,5.2,1.3,5.2,4.8c0,3.2-2.2,4.7-5.9,4.7C-7,93.6-9.2,92.9-10.2,92.4z"/>
	<path class="st1" d="M19.2,86.1c0-4.3,2.9-7.6,7.8-7.6c4.8,0,7.8,3.3,7.8,7.6c0,4.4-2.9,7.6-7.8,7.6C22.1,93.6,19.2,90.5,19.2,86.1
		z M30.2,86.1c0-2.4-1.4-3.6-3.2-3.6c-1.8,0-3.2,1.2-3.2,3.6c0,2.3,1.3,3.6,3.2,3.6C28.9,89.7,30.2,88.4,30.2,86.1z"/>
	<path class="st1" d="M53.3,78.8h5.6c5,0,7.6,2.7,7.6,7.3c0,4.5-2.6,7.3-7.6,7.3h-5.6C53.3,93.3,53.3,78.8,53.3,78.8z M59,89.5
		c1.8,0,2.8-1.1,2.8-3.4c0-2.4-1.1-3.4-2.8-3.4h-1.3v6.9H59z"/>
	<path class="st1" d="M84.5,92.4v-4.2c1.7,1,3.9,1.7,5.4,1.7c1,0,1.5-0.3,1.5-0.9c0-0.8-1.1-0.9-2.3-1.2c-1.9-0.6-4.5-1.6-4.5-4.8
		c0-2.8,2.2-4.4,5.5-4.4c2,0,3.9,0.4,5.3,0.9v4.2c-1.1-0.7-3.3-1.4-4.7-1.4c-0.8,0-1.3,0.2-1.3,0.8c0,0.7,0.8,0.8,1.6,1.1
		c2,0.6,5.2,1.3,5.2,4.8c0,3.2-2.2,4.7-5.9,4.7C87.7,93.6,85.5,92.9,84.5,92.4z"/>
	<polygon class="st1" points="117.3,82.9 113.6,82.9 113.6,78.8 125.4,78.8 125.4,82.9 121.7,82.9 121.7,93.3 117.3,93.3 	"/>
	<polygon class="st1" points="142.3,78.8 147.1,78.8 149.7,88.1 149.9,88.1 152.5,78.8 157.2,78.8 152.3,93.3 147.2,93.3 	"/>
	<path class="st1" d="M174.6,86.1c0-4.3,2.9-7.6,7.8-7.6c4.8,0,7.8,3.3,7.8,7.6c0,4.4-2.9,7.6-7.8,7.6
		C177.5,93.6,174.6,90.5,174.6,86.1z M185.6,86.1c0-2.4-1.4-3.6-3.2-3.6c-1.8,0-3.2,1.2-3.2,3.6c0,2.3,1.3,3.6,3.2,3.6
		C184.3,89.7,185.6,88.4,185.6,86.1z"/>
	
		<linearGradient id="SVGID_2_" gradientUnits="userSpaceOnUse" x1="60.585" y1="144.7099" x2="118.6842" y2="144.7099" gradientTransform="matrix(1 0 0 -1 0 172)">
		<stop  offset="0" style="stop-color:#B8904C"/>
		<stop  offset="0.3543" style="stop-color:#FAE788"/>
		<stop  offset="0.5432" style="stop-color:#E4BD67"/>
		<stop  offset="1" style="stop-color:#E4BD67"/>
	</linearGradient>
	<path class="st4" d="M118.4-3.1c-0.5-0.2-2.1-1-2.1-1c-8.4-3.7-17.5-5.6-26.7-5.6c-9.1,0-18.3,1.9-26.7,5.6c0,0-1.6,0.7-2.1,1
		c-0.2,0.1-0.3,0.3-0.3,0.5l2.1,33.1c0.6,9.2,4.5,17.8,11,24.3c4.4,4.4,9.9,7.7,15.8,9.5c0,0,0.1,0,0.1,0c0.1,0,0.1,0,0.1,0
		c6-1.8,11.4-5.1,15.8-9.5c6.5-6.5,10.4-15.1,11-24.3l2.1-33.1C118.7-2.8,118.6-3,118.4-3.1z M92.6-2.2l2.5,0.3l1-2.3l1,2.3l2.5-0.3
		l-1.5,2l1.5,2l-2.5-0.3l-1,2.3l-1-2.3l-2.5,0.3l1.5-2L92.6-2.2z M89.6,4.4l1,2.3l2.5-0.3l-1.5,2l1.5,2l-2.5-0.3l-1,2.3l-1-2.3
		l-2.5,0.3l1.5-2l-1.5-2l2.5,0.3L89.6,4.4z M79.7-2.2l2.5,0.3l1-2.3l1,2.3l2.5-0.3l-1.5,2l1.5,2l-2.5-0.3l-1,2.3l-1-2.3l-2.5,0.3
		l1.5-2L79.7-2.2z M79.7,21.7l3.9,5.2l6-11.8l6,11.8l3.9-5.2l9.9,13.1c0,0.5,0,1.2-0.2,2c-0.2,0.8-0.6,1.7-1.7,2.9
		c-1.2,1.2-2.9,1.9-4.6,1.9c-1.1,0-2.2-0.3-3.2-0.8c-0.6-0.4-1.2-0.6-1.7-0.7c-0.6-0.2-1.2-0.2-1.8-0.2c-1.2,0-2.3,0.3-3.4,0.9
		c-1,0.6-2.1,0.9-3.3,0.9c-1.1,0-2.3-0.3-3.3-0.9c-1-0.6-2.2-0.9-3.4-0.9c-0.6,0-1.2,0.1-1.8,0.2c-0.6,0.2-1.1,0.4-1.7,0.7
		c-1,0.5-2.1,0.8-3.2,0.8c-1.7,0-3.5-0.7-4.6-1.9c-1.2-1.2-1.5-2.1-1.7-2.9c-0.2-0.9-0.2-1.6-0.2-2L79.7,21.7z M101.2,45.2
		c-0.6-0.1-1.1-0.4-1.6-0.7c-2.1-1.2-4.7-1.2-6.8,0c-1,0.6-2.1,0.9-3.3,0.9c-1.1,0-2.3-0.3-3.3-0.9c-2.1-1.2-4.7-1.2-6.8,0
		c-0.5,0.3-1,0.5-1.6,0.7c-1.5,0.4-3,0.3-4.5-0.4l-0.3-0.1c-0.5-0.8-0.9-1.5-1.3-2.3c0.4,0.1,0.7,0.3,1,0.5c1,0.6,2.2,0.9,3.4,0.9
		c0.6,0,1.2-0.1,1.8-0.2c0.6-0.2,1.1-0.4,1.6-0.7c1-0.6,2.1-0.9,3.3-0.9c1.1,0,2.3,0.3,3.3,0.9c1,0.6,2.2,0.9,3.4,0.9
		c1.2,0,2.4-0.3,3.4-0.9c1-0.6,2.1-0.9,3.3-0.9c1.1,0,2.3,0.3,3.3,0.9c0.5,0.3,1.1,0.5,1.6,0.7c0.6,0.2,1.2,0.2,1.8,0.2
		c1.2,0,2.3-0.3,3.4-0.9c0.3-0.2,0.6-0.3,0.9-0.5c-0.3,0.8-0.8,1.6-1.3,2.3l-0.3,0.1C104.3,45.5,102.7,45.6,101.2,45.2z M104.1,47.5
		c-0.8,1-1.6,1.9-2.5,2.8c-3.3,3.3-7.4,5.9-11.9,7.4c-4.5-1.5-8.6-4.1-12-7.4c-0.9-0.9-1.7-1.8-2.5-2.8c1,0.2,2,0.1,2.9-0.1
		c0.6-0.2,1.1-0.4,1.6-0.7c2-1.1,4.6-1.1,6.5,0c1,0.6,2.2,0.9,3.4,0.9c1.2,0,2.3-0.3,3.4-0.9c2-1.1,4.6-1.1,6.5,0
		c0.5,0.3,1.1,0.5,1.6,0.7C102.1,47.6,103.1,47.6,104.1,47.5L104.1,47.5z M114.8,30.3c-0.5,8.7-4.2,16.8-10.4,23
		c-4.1,4.1-9.2,7.2-14.8,8.9c-5.6-1.7-10.7-4.8-14.8-8.9c-6.1-6.1-9.8-14.3-10.4-23l-2-31.8l1.5-0.6l2,32.3c0.5,8.3,4,16.1,9.9,22
		c3.9,3.9,8.6,6.7,13.7,8.4c5.1-1.6,9.9-4.5,13.7-8.4c5.9-5.9,9.4-13.7,9.9-22l2-32.3c0.5,0.2,1.2,0.5,1.5,0.6L114.8,30.3z"/>
</g>
<g id="RGB">
	<path class="st5" d="M0,110.1l5.1,0c3.7,0,5.7,1.5,5.7,4.6c0,1.9-1,3.4-2,4l2.6,4.5H7l-1.9-3.8H4v3.8H0V110.1z M5.2,116.1
		c1,0,1.5-0.5,1.5-1.3c0-0.9-0.6-1.4-1.6-1.4H4v2.7L5.2,116.1L5.2,116.1z"/>
	<polygon class="st5" points="23.9,110.1 31.8,110.1 31.8,111.9 25.9,111.9 25.9,115.7 31.2,115.7 31.2,117.5 25.9,117.5 
		25.9,121.3 31.8,121.3 31.8,123.1 23.9,123.1 	"/>
	<path class="st5" d="M44.5,110.1h4.2c3.7,0,5.2,1.7,5.2,4.5c0,2.8-1.7,4.4-5.2,4.4h-2.2v4.1h-2V110.1z M48.8,117.1
		c2.2,0,3.1-0.9,3.1-2.6c0-1.6-0.9-2.6-3.1-2.6h-2.2v5.3H48.8z"/>
	<path class="st5" d="M66.2,118.1v-8.1h2v8c0,2.2,1,3.5,3.5,3.5c2.5,0,3.5-1.3,3.5-3.5v-8h2v8.1c0,3.3-2,5.2-5.5,5.2
		C68.2,123.3,66.2,121.5,66.2,118.1z"/>
	<path class="st5" d="M90.5,110.1h4.4c3.2,0,4.3,1.3,4.3,3.3c0,1.5-0.7,2.6-2,3v0.1c1.6,0.4,2.5,1.4,2.5,3.1c0,2.7-2,3.6-4.8,3.6
		h-4.4V110.1z M94.9,121.3c1.7,0,2.7-0.4,2.7-2c0-1.3-1-2-2.6-2h-2.4v4H94.9z M95,115.6c1.3,0,2.2-0.7,2.2-1.9
		c0-1.3-0.9-1.8-2.4-1.8h-2.1v3.7C92.6,115.6,95,115.6,95,115.6z"/>
	<polygon class="st5" points="112.4,110 114.4,110 114.5,121.3 119.8,121.3 119.8,123.1 112.4,123.1 	"/>
	<polygon class="st5" points="132,110.1 134.1,110.1 134.1,123.1 132,123.1 	"/>
	<polygon class="st5" points="147.5,110.1 149.6,110.1 149.6,115.5 152.1,115.5 155.7,110.1 158.2,110.1 153.8,116.4 158.5,123.1 
		156.1,123.1 152.1,117.5 149.6,117.5 149.6,123.1 147.5,123.1 	"/>
	<polygon class="st5" points="169.8,110.1 178.6,110.1 178.6,113.1 173.7,113.1 173.7,115 178,115 178,118.2 173.7,118.2 173.7,120 
		178.6,120 178.6,123.1 169.8,123.1 	"/>
	<path class="st5" d="M0.1,152.9v-2c1.4,0.9,3.2,1.3,4.5,1.3c1.8,0,2.8-0.7,2.8-1.9c0-1.6-1.8-1.8-3.6-2.4c-1.8-0.6-3.5-1.5-3.5-3.8
		c0-2.4,1.9-3.6,4.5-3.6c1.6,0,3,0.3,4.1,1v2c-1.1-0.7-2.6-1.1-3.8-1.1c-1.8,0-2.7,0.6-2.7,1.7c0,1.3,1.1,1.7,2.4,2.1
		c2.1,0.6,4.7,1.3,4.7,4.1c0,2.6-1.9,3.8-4.7,3.8C3.3,154,1.5,153.7,0.1,152.9z"/>
	<polygon class="st5" points="22.3,140.7 24.3,140.7 24.4,151.9 29.7,151.9 29.7,153.8 22.3,153.8 	"/>
	<path class="st5" d="M41.4,147.2c0-3.9,2.6-6.8,6.7-6.8c4.1,0,6.7,2.9,6.7,6.8c0,3.9-2.6,6.8-6.7,6.8
		C44,154.1,41.4,151.2,41.4,147.2z M52.6,147.2c0-3-1.7-5-4.6-5c-2.8,0-4.6,2-4.6,5c0,3,1.8,5,4.6,5
		C50.9,152.2,52.6,150.3,52.6,147.2z"/>
	<polygon class="st5" points="66.2,140.7 68.5,140.7 72.6,151.8 72.7,151.8 76.8,140.7 78.9,140.7 73.8,153.8 71.3,153.8 	"/>
	<polygon class="st5" points="91.2,140.7 99.1,140.7 99.1,142.5 93.3,142.5 93.3,146.3 98.5,146.3 98.5,148.2 93.3,148.2 
		93.3,151.9 99.1,151.9 99.1,153.8 91.2,153.8 	"/>
	<polygon class="st5" points="112.1,140.7 114.2,140.7 121,150.3 121.1,150.3 121.1,140.7 123.1,140.7 123.1,153.8 121.2,153.8 
		114.2,144.2 114.1,144.2 114.1,153.8 112.1,153.8 	"/>
	<polygon class="st5" points="136.9,140.7 138.9,140.7 138.9,153.8 136.9,153.8 	"/>
	<path class="st5" d="M151.3,153.8v-1.9c0.4,0.1,0.8,0.2,1.2,0.2c1.4,0,2.3-0.5,2.3-2.6v-8.7h2v9c0,3-1.4,4.3-3.9,4.3
		C152.4,154,151.9,154,151.3,153.8z"/>
	<polygon class="st5" points="170.5,140.7 178.4,140.7 178.4,142.5 172.5,142.5 172.5,146.3 177.8,146.3 177.8,148.2 172.5,148.2 
		172.5,151.9 178.4,151.9 178.4,153.8 170.5,153.8 	"/>
	<rect x="63.6" y="166.8" class="st5" width="52.2" height="4"/>
	<path class="st5" d="M0,91.7v-3.8c1.5,0.9,3.5,1.5,4.8,1.5c0.9,0,1.3-0.3,1.3-0.8c0-0.7-1-0.8-2-1.1c-1.7-0.5-4-1.4-4-4.3
		c0-2.5,1.9-4,4.9-4c1.8,0,3.5,0.3,4.8,0.8v3.8c-1-0.6-3-1.3-4.3-1.3c-0.8,0-1.2,0.2-1.2,0.7c0,0.6,0.7,0.8,1.4,1
		c1.8,0.5,4.7,1.1,4.7,4.3c0,2.8-1.9,4.2-5.3,4.2C2.9,92.8,0.9,92.1,0,91.7z"/>
	<path class="st5" d="M26.4,86c0-3.9,2.6-6.8,7-6.8c4.4,0,7,2.9,7,6.8c0,4-2.6,6.8-7,6.8C29,92.8,26.4,90,26.4,86z M36.3,86
		c0-2.2-1.2-3.2-2.9-3.2c-1.7,0-2.9,1.1-2.9,3.2c0,2.1,1.2,3.2,2.9,3.2C35.1,89.2,36.3,88.1,36.3,86z"/>
	<path class="st5" d="M57,79.4h5c4.5,0,6.8,2.5,6.8,6.5c0,4.1-2.3,6.5-6.8,6.5h-5V79.4z M62.1,89.1c1.7,0,2.6-1,2.6-3.1
		c0-2.2-1-3.1-2.6-3.1H61v6.2L62.1,89.1L62.1,89.1z"/>
	<path class="st5" d="M85,91.7v-3.8c1.5,0.9,3.5,1.5,4.8,1.5c0.9,0,1.3-0.3,1.3-0.8c0-0.7-1-0.8-2-1.1c-1.7-0.5-4-1.4-4-4.3
		c0-2.5,1.9-4,4.9-4c1.8,0,3.5,0.3,4.8,0.8v3.8c-1-0.6-3-1.3-4.3-1.3c-0.8,0-1.2,0.2-1.2,0.7c0,0.6,0.7,0.8,1.4,1
		c1.8,0.5,4.7,1.1,4.7,4.3c0,2.8-1.9,4.2-5.3,4.2C87.9,92.8,85.9,92.1,85,91.7z"/>
	<polygon class="st5" points="114.5,83.2 111.2,83.2 111.2,79.4 121.8,79.4 121.8,83.2 118.5,83.2 118.5,92.5 114.5,92.5 	"/>
	<polygon class="st5" points="137,79.4 141.3,79.4 143.7,87.8 143.8,87.8 146.2,79.4 150.3,79.4 146,92.5 141.4,92.5 	"/>
	<path class="st5" d="M166,86c0-3.9,2.6-6.8,7-6.8c4.4,0,7,2.9,7,6.8c0,4-2.6,6.8-7,6.8C168.6,92.8,166,90,166,86z M175.9,86
		c0-2.2-1.2-3.2-2.9-3.2c-1.7,0-2.9,1.1-2.9,3.2c0,2.1,1.2,3.2,2.9,3.2C174.7,89.2,175.9,88.1,175.9,86z"/>
	<path class="st5" d="M115.5,5.9C115,5.7,113.6,5,113.6,5c-7.5-3.3-15.8-5-24-5c-8.2,0-16.4,1.7-24,5c0,0-1.4,0.6-1.9,0.9
		c-0.2,0.1-0.3,0.3-0.3,0.4L65.5,36c0.5,8.2,4,16,9.9,21.8c4,4,8.9,6.9,14.2,8.5c0,0,0.1,0,0.1,0c0,0,0.1,0,0.1,0
		c5.4-1.6,10.3-4.5,14.2-8.5c5.8-5.8,9.3-13.6,9.9-21.8l1.9-29.7C115.8,6.2,115.7,6,115.5,5.9z M92.3,6.7L94.6,7l0.9-2.1L96.4,7
		l2.2-0.2l-1.3,1.8l1.3,1.8l-2.2-0.2l-0.9,2.1l-0.9-2.1l-2.2,0.2l1.3-1.8L92.3,6.7z M89.7,12.6l0.9,2.1l2.2-0.2l-1.3,1.8l1.3,1.8
		l-2.2-0.2l-0.9,2.1l-0.9-2.1l-2.2,0.2l1.3-1.8l-1.3-1.8l2.2,0.2L89.7,12.6z M80.7,6.7L83,7l0.9-2.1L84.8,7L87,6.7l-1.3,1.8l1.3,1.8
		l-2.2-0.2l-0.9,2.1L83,10.1l-2.2,0.2L82,8.5L80.7,6.7z M80.7,28.2l3.5,4.6l5.4-10.6l5.4,10.6l3.5-4.6l8.9,11.8c0,0.4,0,1-0.2,1.8
		c-0.2,0.7-0.5,1.5-1.5,2.6c-1,1.1-2.6,1.7-4.2,1.7c-1,0-2-0.3-2.8-0.7c-0.5-0.3-1-0.5-1.5-0.7c-0.5-0.1-1.1-0.2-1.6-0.2
		c-1.1,0-2.1,0.3-3,0.8c-0.9,0.5-1.9,0.8-2.9,0.8c-1,0-2-0.3-2.9-0.8c-0.9-0.5-2-0.8-3-0.8c-0.5,0-1.1,0.1-1.6,0.2
		c-0.5,0.1-1,0.3-1.6,0.7c-0.9,0.5-1.9,0.7-2.8,0.7c-1.6,0-3.1-0.7-4.2-1.7c-1-1.1-1.4-1.9-1.5-2.6c-0.2-0.8-0.2-1.4-0.2-1.8
		L80.7,28.2z M100.1,49.3c-0.5-0.1-1-0.3-1.4-0.6c-1.8-1.1-4.2-1.1-6.1,0c-0.9,0.5-1.9,0.8-2.9,0.8c-1,0-2-0.2-2.9-0.8
		c-1.8-1.1-4.2-1.1-6.1,0c-0.4,0.3-0.9,0.5-1.4,0.6c-1.3,0.3-2.7,0.2-4-0.3L75,48.8c-0.4-0.7-0.8-1.4-1.2-2.1
		c0.3,0.1,0.6,0.3,0.9,0.4c0.9,0.5,2,0.8,3,0.8c0.5,0,1.1-0.1,1.6-0.2c0.5-0.1,1-0.3,1.5-0.6c0.9-0.5,1.9-0.8,2.9-0.8
		c1,0,2,0.3,2.9,0.8c0.9,0.5,2,0.8,3,0.8c1.1,0,2.1-0.3,3-0.8c0.9-0.5,1.9-0.8,2.9-0.8c1,0,2,0.3,2.9,0.8c0.5,0.3,1,0.5,1.5,0.6
		c0.5,0.1,1,0.2,1.6,0.2c1.1,0,2.1-0.3,3-0.8c0.3-0.2,0.6-0.3,0.8-0.4c-0.3,0.7-0.7,1.4-1.1,2.1l-0.3,0.1
		C102.8,49.5,101.4,49.6,100.1,49.3z M102.6,51.3c-0.7,0.9-1.4,1.7-2.2,2.5c-3,3-6.7,5.3-10.7,6.7c-4.1-1.4-7.8-3.7-10.7-6.7
		c-0.8-0.8-1.6-1.7-2.2-2.5c0.9,0.1,1.8,0.1,2.6-0.1c0.5-0.1,1-0.3,1.5-0.6c1.8-1,4.1-1,5.9,0c0.9,0.5,2,0.8,3,0.8
		c1.1,0,2.1-0.3,3-0.8c1.8-1,4.1-1,5.9,0c0.5,0.3,0.9,0.5,1.5,0.6C100.9,51.4,101.7,51.5,102.6,51.3L102.6,51.3z M112.3,35.9
		c-0.5,7.8-3.8,15.1-9.3,20.6c-3.7,3.7-8.3,6.5-13.3,8c-5-1.5-9.6-4.3-13.3-8C70.8,51,67.5,43.7,67,35.9L65.2,7.4l1.3-0.6l1.8,29
		c0.5,7.4,3.6,14.5,8.9,19.8c3.5,3.5,7.7,6,12.3,7.5c4.6-1.5,8.9-4,12.3-7.5c5.3-5.3,8.5-12.3,8.9-19.8l1.8-29
		c0.4,0.2,1.1,0.4,1.3,0.6L112.3,35.9z"/>
</g>
</svg>
