<?xml version="1.0" encoding="utf-8"?>
<!-- Generator: Adobe Illustrator 21.0.0, SVG Export Plug-In . SVG Version: 6.00 Build 0)  -->
<svg version="1.1" id="Layer_1" xmlns="http://www.w3.org/2000/svg" xmlns:xlink="http://www.w3.org/1999/xlink" x="0px" y="0px"
	 viewBox="0 0 138.8 34.3" style="enable-background:new 0 0 138.8 34.3;" xml:space="preserve">
<style type="text/css">
	.st0{fill:#414042;}
</style>
<g>
	<g>
		<path class="st0" d="M14.6,14.2c0,1.2,0.4,2.8,1.7,4c2.1,2,4.9,2,6.7,1.1c2.2-1.2,7.1-4.7,2-19.4C25,6.9,14.6,7.6,14.6,14.2
			L14.6,14.2z"/>
		<path class="st0" d="M19.3,6.1C19,4.2,18.5,2.4,17.6,0c0,6.9-10.3,7.6-10.3,14.2c0,1.2,0.4,2.8,1.7,4c2.1,2,4.9,2,6.7,1.1
			C11.5,15,13,10,19.3,6.1L19.3,6.1z"/>
		<path class="st0" d="M12,6.1c-0.3-1.8-0.9-3.7-1.7-6.1C10.3,6.9,0,7.6,0,14.2c0,3.4,2.8,4.9,2.8,4.9s-0.7,2.5-0.3,5.5l1.3-0.2
			c-0.6-2.2-0.3-4.7-0.2-4.9c1.7,0.7,3.4,0.5,4.7-0.2C4.2,15,5.7,10,12,6.1L12,6.1z"/>
		<path class="st0" d="M39.2,16.8c-0.6,0.3-1.3,0.5-2.2,0.5c-0.9,0-1.7-0.2-2.3-0.7c-0.6-0.5-1.1-1.1-1.3-1.8l-1.7,0.7
			c0.2,0.7,0.6,1.4,1.1,1.9c0.5,0.5,1.1,0.9,1.8,1.2c0.7,0.3,1.5,0.4,2.4,0.4c1,0,1.9-0.2,2.7-0.5c0.8-0.3,1.3-0.8,1.7-1.3
			c0.4-0.6,0.6-1.2,0.6-2c0-0.6-0.1-1.2-0.4-1.6c-0.3-0.5-0.7-0.9-1.3-1.2c-0.6-0.4-1.3-0.6-2.2-0.9l-1.6-0.4
			c-0.8-0.2-1.3-0.5-1.7-0.7c-0.4-0.3-0.6-0.7-0.6-1.3c0-0.6,0.2-1,0.7-1.3c0.5-0.3,1.2-0.5,2-0.5c0.8,0,1.5,0.2,2,0.5
			c0.6,0.4,1,0.9,1.2,1.7l1.7-0.6c-0.2-0.7-0.6-1.3-1-1.8c-0.5-0.5-1-0.8-1.7-1.1c-0.7-0.3-1.4-0.4-2.3-0.4c-0.9,0-1.8,0.2-2.5,0.5
			c-0.7,0.3-1.3,0.7-1.7,1.3C32.2,7.9,32,8.5,32,9.2c0,0.6,0.1,1.1,0.4,1.6c0.3,0.5,0.6,0.9,1.2,1.2c0.5,0.3,1.2,0.6,1.9,0.8
			l1.6,0.4c0.7,0.2,1.2,0.4,1.6,0.6c0.4,0.2,0.7,0.4,0.9,0.7c0.2,0.3,0.3,0.6,0.3,0.9C40,16,39.7,16.4,39.2,16.8L39.2,16.8z"/>
		<path class="st0" d="M45.6,14.2h2.9c1,0,1.9-0.2,2.6-0.5c0.7-0.3,1.3-0.8,1.7-1.5c0.4-0.6,0.6-1.4,0.6-2.2c0-1.3-0.4-2.4-1.3-3.1
			c-0.9-0.8-2.1-1.1-3.6-1.1h-4.9v13.1h1.9V14.2z M48.4,7.5c0.9,0,1.7,0.2,2.2,0.6c0.5,0.4,0.8,1,0.8,1.9s-0.3,1.4-0.8,1.9
			c-0.5,0.4-1.3,0.6-2.2,0.6h-2.8v-5L48.4,7.5L48.4,7.5z"/>
		<path class="st0" d="M60.3,18.8h7.1v-1.7h-7.1v-4h6.3v-1.7h-6.3V7.5h7.1V5.8h-7.1h-1.1h-0.8v13.1h0.8H60.3z"/>
		<path class="st0" d="M70.2,18.5c0.4,0.2,0.9,0.3,1.4,0.3h1v-1.6h-0.8c-0.4,0-0.6-0.1-0.8-0.3c-0.2-0.2-0.2-0.5-0.2-0.8V5.8H69
			v10.5c0,0.5,0.1,1,0.3,1.4C69.5,18,69.8,18.3,70.2,18.5L70.2,18.5z"/>
		<path class="st0" d="M80.5,15.8c-0.2,0.4-0.4,0.7-0.7,0.9c-0.3,0.2-0.6,0.4-0.9,0.5c-0.3,0.1-0.7,0.2-1.1,0.2
			c-0.5,0-1-0.1-1.4-0.4c-0.4-0.2-0.8-0.6-1-1.1c-0.2-0.4-0.3-0.9-0.4-1.4h7.1c0-0.1,0-0.2,0-0.3V14c0-1-0.2-1.8-0.6-2.5
			c-0.4-0.7-0.9-1.3-1.6-1.7c-0.7-0.4-1.4-0.6-2.3-0.6c-0.7,0-1.3,0.1-1.9,0.3c-0.6,0.2-1,0.6-1.5,1c-0.4,0.4-0.7,1-1,1.6
			c-0.2,0.6-0.3,1.3-0.3,2c0,1,0.2,1.8,0.6,2.6c0.4,0.7,1,1.3,1.7,1.7c0.7,0.4,1.5,0.6,2.4,0.6c0.6,0,1.1-0.1,1.6-0.2
			c0.5-0.2,1-0.4,1.4-0.8c0.4-0.4,0.8-0.8,1.1-1.4L80.5,15.8L80.5,15.8z M75.6,11.6c0.2-0.3,0.5-0.5,0.9-0.7
			c0.3-0.1,0.7-0.2,1.1-0.2c0.8,0,1.4,0.3,1.9,0.8c0.3,0.4,0.6,0.9,0.7,1.6H75c0-0.2,0.1-0.4,0.1-0.5C75.2,12.2,75.4,11.9,75.6,11.6
			L75.6,11.6z"/>
		<path class="st0" d="M85.5,18.4c0.7,0.4,1.5,0.6,2.4,0.6c0.6,0,1.2-0.1,1.8-0.3c0.6-0.2,1.1-0.5,1.5-0.9c0.5-0.4,0.8-1,1.1-1.6
			l-1.6-0.7c-0.3,0.7-0.7,1.2-1.1,1.5c-0.5,0.3-1,0.4-1.6,0.4c-0.5,0-1-0.1-1.4-0.4c-0.4-0.2-0.8-0.6-1-1.1
			c-0.3-0.5-0.4-1.1-0.4-1.8c0-0.5,0.1-1,0.2-1.4c0.2-0.4,0.4-0.8,0.6-1c0.3-0.3,0.6-0.5,0.9-0.6c0.3-0.1,0.7-0.2,1.1-0.2
			c0.6,0,1.2,0.1,1.6,0.4c0.5,0.3,0.9,0.8,1.1,1.5l1.6-0.7c-0.3-0.7-0.6-1.2-1.1-1.7c-0.5-0.4-1-0.7-1.5-0.9
			c-0.6-0.2-1.1-0.3-1.8-0.3c-0.7,0-1.3,0.1-1.9,0.4c-0.6,0.2-1.1,0.6-1.5,1s-0.8,1-1,1.6c-0.2,0.6-0.3,1.3-0.3,2
			c0,1,0.2,1.8,0.6,2.6C84.2,17.4,84.8,18,85.5,18.4L85.5,18.4z"/>
		<path class="st0" d="M94.3,15.9c0,0.6,0.1,1.1,0.3,1.5c0.2,0.4,0.5,0.8,1,1c0.4,0.2,1,0.4,1.6,0.4h1.2v-1.6h-1
			c-0.4,0-0.7-0.1-0.9-0.4c-0.2-0.2-0.3-0.6-0.3-1.1v-4.9h2.2V9.3h-2.2V6.2l-1.9,1.1v2h-1.8v1.5h1.8L94.3,15.9L94.3,15.9z"/>
		<path class="st0" d="M101.6,13.8c0-0.8,0.2-1.5,0.6-1.9c0.4-0.5,0.9-0.7,1.6-0.7h0.9V9.2h-0.5c-0.6,0-1.1,0.1-1.5,0.4
			c-0.4,0.3-0.8,0.7-1.1,1.3V9.3h-1.8v9.5h1.8L101.6,13.8L101.6,13.8z"/>
		<path class="st0" d="M107.8,9.3H106v9.5h1.8V9.3z"/>
		<path class="st0" d="M106,7.4c0.2,0.2,0.5,0.3,0.9,0.3s0.7-0.1,0.9-0.3c0.3-0.2,0.4-0.5,0.4-0.9s-0.1-0.7-0.4-0.9
			c-0.2-0.2-0.6-0.3-0.9-0.3s-0.6,0.1-0.9,0.3c-0.2,0.2-0.4,0.5-0.4,0.9C105.7,6.9,105.8,7.2,106,7.4z"/>
		<path class="st0" d="M116.9,15.4c-0.3,0.7-0.7,1.2-1.1,1.5c-0.5,0.3-1,0.4-1.6,0.4c-0.5,0-1-0.1-1.4-0.4c-0.4-0.2-0.8-0.6-1-1.1
			c-0.3-0.5-0.4-1.1-0.4-1.8c0-0.5,0.1-1,0.2-1.4c0.2-0.4,0.4-0.8,0.6-1c0.3-0.3,0.6-0.5,0.9-0.6c0.3-0.1,0.7-0.2,1.1-0.2
			c0.6,0,1.2,0.1,1.6,0.4c0.5,0.3,0.9,0.8,1.1,1.5l1.6-0.7c-0.2-0.7-0.6-1.2-1.1-1.7c-0.5-0.4-1-0.7-1.5-0.9
			c-0.6-0.2-1.1-0.3-1.8-0.3c-0.7,0-1.3,0.1-1.9,0.4c-0.6,0.2-1.1,0.6-1.5,1c-0.4,0.4-0.8,1-1,1.6c-0.2,0.6-0.3,1.3-0.3,2
			c0,1,0.2,1.8,0.6,2.6c0.4,0.7,1,1.3,1.7,1.7c0.7,0.4,1.5,0.6,2.4,0.6c0.6,0,1.2-0.1,1.8-0.3c0.6-0.2,1.1-0.5,1.5-0.9
			c0.5-0.4,0.8-1,1.1-1.6L116.9,15.4L116.9,15.4z"/>
		<path class="st0" d="M121.7,9.3h-1.8v9.5h1.8V9.3z"/>
		<path class="st0" d="M119.9,7.4c0.2,0.2,0.5,0.3,0.9,0.3c0.4,0,0.7-0.1,0.9-0.3c0.2-0.2,0.4-0.5,0.4-0.9s-0.1-0.7-0.4-0.9
			c-0.3-0.2-0.6-0.3-0.9-0.3c-0.3,0-0.6,0.1-0.9,0.3c-0.2,0.2-0.4,0.5-0.4,0.9C119.5,6.9,119.6,7.2,119.9,7.4z"/>
		<path class="st0" d="M126.5,6.2l-1.9,1.1v2h-1.8v1.5h1.8v5c0,0.6,0.1,1.1,0.3,1.5c0.2,0.4,0.5,0.8,1,1c0.4,0.2,1,0.4,1.6,0.4h1.2
			v-1.6h-1c-0.4,0-0.7-0.1-0.9-0.4c-0.2-0.2-0.3-0.6-0.3-1.1v-4.9h2.2V9.3h-2.2L126.5,6.2L126.5,6.2z"/>
		<path class="st0" d="M136.8,9.3l-2.2,4.5c-0.1,0.3-0.3,0.7-0.5,1.2c-0.2-0.5-0.4-0.9-0.5-1.2l-2.1-4.5h-2.1l3.8,7.7l-2.4,4.9h2
			l6-12.6H136.8L136.8,9.3z"/>
		<path class="st0" d="M41.5,29.2v1.7c-0.4-0.6-0.7-1-1-1.4L34.2,21h-1.8v13.1h1.9v-9.8c0.4,0.6,0.7,1,1,1.4l6.3,8.5h1.7V21h-1.9
			V29.2z"/>
		<path class="st0" d="M52.5,25.1c-0.7-0.4-1.6-0.6-2.5-0.6c-0.7,0-1.3,0.1-1.9,0.4c-0.6,0.2-1.1,0.6-1.5,1c-0.4,0.4-0.8,1-1,1.6
			c-0.2,0.6-0.4,1.3-0.4,2c0,1,0.2,1.8,0.6,2.6c0.4,0.7,1,1.3,1.7,1.7c0.7,0.4,1.6,0.6,2.5,0.6c0.7,0,1.3-0.1,1.9-0.4
			c0.6-0.2,1.1-0.6,1.5-1s0.8-1,1-1.6c0.2-0.6,0.4-1.3,0.4-2c0-1-0.2-1.8-0.6-2.6C53.8,26,53.3,25.5,52.5,25.1z M52.8,30.7
			c-0.2,0.4-0.4,0.8-0.6,1c-0.3,0.3-0.6,0.5-0.9,0.6c-0.4,0.1-0.8,0.2-1.2,0.2c-0.6,0-1.1-0.1-1.5-0.4c-0.4-0.3-0.8-0.6-1.1-1.1
			c-0.3-0.5-0.4-1.1-0.4-1.8c0-0.5,0.1-1,0.2-1.4c0.1-0.4,0.3-0.7,0.6-1c0.3-0.3,0.6-0.5,0.9-0.6c0.4-0.1,0.8-0.2,1.2-0.2
			c0.6,0,1.1,0.1,1.5,0.4c0.4,0.3,0.8,0.6,1.1,1.1c0.3,0.5,0.4,1.1,0.4,1.8C53,29.9,52.9,30.3,52.8,30.7L52.8,30.7z"/>
		<path class="st0" d="M59.4,24.9c-0.4,0.3-0.8,0.7-1.1,1.3v-1.5h-1.8v9.5h1.8V29c0-0.8,0.2-1.5,0.6-1.9c0.4-0.5,0.9-0.7,1.6-0.7
			h0.9v-1.9h-0.5C60.3,24.4,59.8,24.6,59.4,24.9L59.4,24.9z"/>
		<path class="st0" d="M65.5,21.5l-1.9,1.1v2h-1.8v1.5h1.8v5c0,0.6,0.1,1.1,0.3,1.5c0.2,0.4,0.5,0.8,1,1c0.4,0.2,1,0.4,1.6,0.4h1.2
			v-1.6h-1c-0.4,0-0.7-0.1-0.9-0.4c-0.2-0.2-0.3-0.6-0.3-1.1v-4.9h2.2v-1.5h-2.2L65.5,21.5L65.5,21.5z"/>
		<path class="st0" d="M75.6,24.9c-0.5-0.3-1.1-0.4-1.8-0.4c-0.7,0-1.3,0.2-1.8,0.5c-0.4,0.2-0.7,0.6-1,1.1v-5h-1.8v13.1h1.8v-5.6
			c0-0.8,0.2-1.4,0.7-1.8c0.4-0.4,1-0.6,1.7-0.6c0.6,0,1.1,0.2,1.5,0.6c0.4,0.4,0.6,1,0.6,1.7v5.7h1.9v-6c0-0.7-0.2-1.4-0.5-2
			C76.5,25.6,76.1,25.2,75.6,24.9L75.6,24.9z"/>
		<path class="st0" d="M97.8,21l-2.4,8.3c-0.1,0.3-0.2,0.5-0.2,0.8C95,30.4,95,30.7,94.9,31c-0.2-0.7-0.4-1.3-0.5-1.7L91.6,21h-1.8
			l-2.7,8.3c-0.1,0.3-0.2,0.5-0.3,0.8c-0.1,0.3-0.2,0.6-0.3,0.9c-0.2-0.7-0.4-1.3-0.5-1.7L83.7,21h-2l4,13.1h1.8l2.7-8.3
			c0.1-0.4,0.3-0.9,0.5-1.6c0.2,0.7,0.4,1.2,0.5,1.6l2.7,8.3h1.8l4-13.1H97.8z"/>
		<path class="st0" d="M106.5,25c-0.7-0.4-1.4-0.6-2.3-0.6c-0.7,0-1.3,0.1-1.9,0.3c-0.6,0.2-1,0.6-1.5,1c-0.4,0.4-0.7,1-1,1.6
			c-0.2,0.6-0.3,1.3-0.3,2c0,1,0.2,1.8,0.6,2.6c0.4,0.7,1,1.3,1.7,1.7c0.7,0.4,1.5,0.6,2.4,0.6c0.6,0,1.1-0.1,1.6-0.2
			c0.5-0.2,1-0.4,1.4-0.8c0.4-0.4,0.8-0.8,1.1-1.4l-1.4-0.9c-0.2,0.4-0.4,0.7-0.7,0.9c-0.3,0.2-0.6,0.4-0.9,0.5
			c-0.3,0.1-0.7,0.2-1.1,0.2c-0.5,0-1-0.1-1.4-0.4c-0.4-0.2-0.8-0.6-1-1.1c-0.2-0.4-0.3-0.9-0.3-1.4h7.1c0-0.1,0-0.2,0-0.3v-0.2
			c0-1-0.2-1.8-0.6-2.5C107.7,26,107.2,25.5,106.5,25L106.5,25z M102.2,26.9c0.2-0.3,0.5-0.5,0.9-0.7c0.3-0.1,0.7-0.2,1.1-0.2
			c0.8,0,1.4,0.3,1.9,0.8c0.3,0.4,0.6,0.9,0.7,1.6h-5.2c0-0.2,0.1-0.4,0.1-0.5C101.8,27.5,102,27.1,102.2,26.9L102.2,26.9z"/>
		<path class="st0" d="M114.6,28.7l-0.9-0.2c-0.4-0.1-0.7-0.2-1-0.3c-0.3-0.1-0.5-0.2-0.7-0.4c-0.2-0.2-0.3-0.4-0.3-0.6
			c0-0.3,0.2-0.6,0.5-0.8c0.3-0.2,0.8-0.3,1.3-0.3c0.5,0,1,0.1,1.5,0.4c0.4,0.2,0.7,0.7,0.9,1.2l1.5-0.6c-0.2-0.6-0.4-1.1-0.8-1.4
			c-0.4-0.4-0.8-0.7-1.4-0.9c-0.5-0.2-1.1-0.3-1.8-0.3c-0.7,0-1.3,0.1-1.9,0.3c-0.5,0.2-1,0.5-1.3,1c-0.3,0.4-0.5,0.9-0.5,1.4
			c0,0.7,0.2,1.3,0.7,1.8c0.5,0.5,1.2,0.8,2.2,1.1l1,0.2c0.7,0.1,1.2,0.3,1.5,0.5c0.3,0.2,0.5,0.5,0.5,0.8s-0.2,0.6-0.6,0.9
			c-0.4,0.2-0.9,0.3-1.6,0.3c-0.4,0-0.7-0.1-1.1-0.2c-0.4-0.1-0.7-0.3-0.9-0.6c-0.3-0.3-0.4-0.6-0.6-1l-1.5,0.7
			c0.2,0.6,0.5,1.1,0.9,1.5c0.4,0.4,0.9,0.7,1.4,0.8c0.5,0.2,1.1,0.3,1.7,0.3c0.8,0,1.5-0.1,2.1-0.4c0.6-0.2,1-0.6,1.4-1
			c0.3-0.4,0.5-0.9,0.5-1.5c0-0.7-0.2-1.3-0.7-1.7C116.4,29.3,115.6,28.9,114.6,28.7L114.6,28.7z"/>
		<path class="st0" d="M121.6,21.5l-1.9,1.1v2H118v1.5h1.8v5c0,0.6,0.1,1.1,0.3,1.5c0.2,0.4,0.5,0.8,1,1c0.4,0.2,1,0.4,1.6,0.4h1.2
			v-1.6h-1c-0.4,0-0.7-0.1-0.9-0.4c-0.2-0.2-0.3-0.6-0.3-1.1v-4.9h2.2v-1.5h-2.2L121.6,21.5L121.6,21.5z"/>
	</g>
</g>
</svg>
