<?xml version="1.0" encoding="utf-8"?>
<!-- Generator: Adobe Illustrator 21.0.0, SVG Export Plug-In . SVG Version: 6.00 Build 0)  -->
<svg version="1.1" id="Layer_1" xmlns="http://www.w3.org/2000/svg" xmlns:xlink="http://www.w3.org/1999/xlink" x="0px" y="0px"
	 viewBox="0 0 304.6 82.2" style="enable-background:new 0 0 304.6 82.2;" xml:space="preserve">
<style type="text/css">
	.st0{fill:#414042;}
</style>
<path class="st0" d="M96.4,21c1.5-0.2,2.5-1,3.3-2c1.8-2.2,2.7-4.7,3.1-7.4c0.5-3.3-0.5-4.5-3.9-4.1c-4.5,0.5-8.1,3-11.8,5.3
	c-1.3,0.8-2.2,2.9-4.2,1.3c-1.7,0.9-1.5-0.6-1.8-1.4c-1.8-5-4.6-9.2-9.3-11.9c-1.9-1.1-3.4-0.9-4.3,1c-1.9,3.8-2.1,7.8-0.1,11.7
	c0.5,0.9,0.3,1.1-0.3,1.7c-1.7,1.5-2.5,3.5-2,5.8c0.7,3.4,2.8,5.8,6.1,6.8c3.4,1.1,6.1-0.4,8.2-3.1c1.1,1.4,1.1,1.4,2.6,0.7
	c2.4,6.1,5.9,7.9,10.8,5.6C97.3,28.7,98.7,25.1,96.4,21z M276.1,58.7c-0.6,0-0.7,0.4-1,0.6c-1.8,1.5-3.7,3.1-5.2,4.9
	c-2.5,3-5.4,5.7-8.2,8.4c-0.8,0.8-0.8,1.3,0,2c2.2,2.1,4.4,4.3,6.5,6.5c0.7,0.7,1.1,0.7,1.8,0c1.5-1.6,3-3.2,4.6-4.7
	c0.6-0.6,1.3-1,2.2-0.1c1.6,1.7,3.4,3.2,5,4.9c0.7,0.8,1.3,0.7,1.9,0c1.6-1.7,3.3-3.3,4.9-5c0.7-0.7,1.1-0.7,1.7,0
	c1.6,1.7,3.3,3.3,4.9,5c0.7,0.7,1.2,0.9,1.9,0c2.2-2.3,4.4-4.5,6.7-6.7c0.6-0.6,0.7-1,0-1.6c-4.6-4.5-9.1-9.1-13.7-13.7
	c-0.7-0.7-1-0.6-1.6,0c-1.7,1.7-3.4,3.4-5.1,5.1c-0.7,0.8-1.2,0.7-1.9,0c-1.6-1.7-3.2-3.2-4.8-4.8C276.6,59.2,276.3,58.9,276.1,58.7
	z M218.3,66c0.1,2-0.3,4.2,0.2,6.3c1.2,5.4,4.9,8.1,10,9.4c8.2,2.2,16.6-2.6,17.8-10.6c0.5-3.6,0.2-7.4,0.2-11
	c0-1.1-0.8-0.9-1.4-0.9c-3,0-6,0.1-9,0c-1.3,0-1.6,0.5-1.5,1.6c0.1,2.2,0,4.4,0,6.6c0,1.3-0.7,2.2-1.9,2.2c-1.3,0-2-0.8-2-2.2
	c0-2.2-0.1-4.3-0.1-6.5c0-1.2-0.2-1.7-1.6-1.7c-3.1,0.1-6.1,0.1-9.2,0c-1.1,0-1.5,0.3-1.5,1.5C218.3,62.4,218.3,64.1,218.3,66z
	 M25.5,37.6c-3.3,0-4.2,1-3.7,3.6c0.4,2.4,1.4,4.7,3.4,6.1c1.4,1,2,2,1.5,3.7c-0.3,0.8,0.1,1.6,0.5,2.3c1,2.2,3.9,3.6,6.9,3.4
	c2.5-0.2,4.3-1.8,5.1-4.3c0.3-1.1,2.4-1.8,3.3-1.1c2.4,1.8,4.8,2,7,0.5c1.8-1.3,2.8-3.2,3.1-5.4c0.3-2-0.3-3.6-2.3-4.6
	c-0.4-0.2-0.3-0.4-0.1-0.7c1.3-1.9,1.3-4,0.8-6.2c-0.4-1.7-0.4-4-2.5-4.6c-2.3-0.7-3.5,1.3-4.8,2.8c-1.9,2.3-3.3,5-4.4,7.8
	c-0.6,1.5-2.5,2-3.7,1C32.4,39.3,28.9,37.7,25.5,37.6z M152.9,73.7c-0.2-0.3-0.4-0.6-0.6-0.8c-4.6-4.6-9.2-9.2-13.8-13.8
	c-0.5-0.5-0.8-0.5-1.3,0c-4.6,4.6-9.2,9.2-13.8,13.8c-0.5,0.5-0.6,0.9,0,1.5c2.3,2.3,4.6,4.6,6.9,6.9c0.6,0.6,1,0.6,1.6-0.1
	c1.6-1.7,3.3-3.3,4.9-5c0.8-0.9,1.3-0.8,2,0.1c1.5,1.7,3.2,3.2,4.8,4.9c0.7,0.8,1.2,0.7,1.9,0c2.2-2.2,4.4-4.4,6.6-6.7
	C152.4,74.3,152.7,74,152.9,73.7z M92.1,59.6L92.1,59.6c-3.2,0-6.4,0.1-9.6,0c-1.4,0-1.7,0.4-1.6,1.7c0.1,1.6,0,3.2,0,4.8
	c0,1.4-0.5,3.1,0.3,4.1c0.7,0.8,2.4,0.3,3.7,0.2c1,0,1.4,0.4,1.4,1.4c0,2.6,0,5.3,0,7.9c0,1,0.3,1.4,1.4,1.4c2.9-0.1,5.8-0.1,8.7,0
	c1.1,0,1.4-0.4,1.4-1.4c-0.1-1.7,0-3.3,0-5c0-1.4-0.4-3.1,0.2-3.9c0.7-0.9,2.5-0.3,3.9-0.3c0.9,0,1.3-0.3,1.3-1.2
	c-0.1-2.8-0.1-5.5,0-8.3c0-1.1-0.4-1.3-1.3-1.3C98.5,59.6,95.3,59.6,92.1,59.6z M176.1,70c0,3.3,0,6.5,0,9.8c0,1,0.3,1.3,1.3,1.3
	c4.9,0,9.8,0,14.7,0c0.9,0,1.5-0.2,1.5-1.3c-0.1-2,0-4.1,0-6.1c0-3.9,0-4-3.9-4c-1.1,0-1.5-0.3-1.5-1.5c0.1-2.5,0-5,0.1-7.6
	c0-1.2-0.4-1.4-1.5-1.4c-3.1,0.1-6.3,0.1-9.4,0c-1.1,0-1.3,0.3-1.3,1.4C176.1,63.7,176.1,66.9,176.1,70z M15.4,81.8
	c3.6,0,5.7-2.2,5.5-5.5c0-0.5,0-0.6,0.5-0.7c2.4-0.5,3.6-2.5,4.5-4.5c1.4-2.9,0.5-4.2-2.7-4c-2.9,0.1-5.7,1-8.3,2.2
	c-1.5,0.7-2.8,0.1-3.1-1.5c-0.6-3.4-1.8-6.5-4.4-8.9c-1.2-1.1-2.3-1-3.1,0.2c-1.6,2.2-2.5,4.6-1.6,7.2C3,67.2,2.6,67.5,2,67.8
	c-1.4,0.9-2,2.2-1.9,3.7c0.4,4.4,4.5,6.8,7.9,4.8c1.1-0.6,2.6,0.2,2.8,1.4C11.2,80.3,13,81.8,15.4,81.8z"/>
<path class="st0" d="M96.4,21c2.3,4.1,0.9,7.7-3.7,9.9c-4.9,2.4-8.4,0.5-10.8-5.6c-1.5,0.7-1.5,0.7-2.6-0.7
	c-2.1,2.7-4.8,4.1-8.2,3.1c-3.3-1-5.4-3.3-6.1-6.8c-0.5-2.3,0.4-4.3,2-5.8c0.6-0.6,0.8-0.8,0.3-1.7c-2-3.9-1.8-7.8,0.1-11.7
	c0.9-1.9,2.4-2.1,4.3-1c4.7,2.7,7.5,6.9,9.3,11.9c0.3,0.8,0.2,2.3,1.8,1.4c2,1.5,2.9-0.5,4.2-1.3c3.7-2.3,7.4-4.7,11.8-5.3
	c3.3-0.4,4.4,0.8,3.9,4.1c-0.4,2.7-1.3,5.2-3.1,7.4C98.8,20,97.9,20.9,96.4,21z"/>
<path class="st0" d="M276.1,58.7c0.2,0.2,0.6,0.5,0.9,0.8c1.6,1.6,3.2,3.2,4.8,4.8c0.7,0.7,1.2,0.8,1.9,0c1.7-1.7,3.4-3.4,5.1-5.1
	c0.6-0.6,0.9-0.7,1.6,0c4.5,4.6,9.1,9.1,13.7,13.7c0.6,0.6,0.6,1,0,1.6c-2.3,2.2-4.5,4.4-6.7,6.7c-0.8,0.8-1.3,0.7-1.9,0
	c-1.6-1.7-3.3-3.3-4.9-5c-0.7-0.7-1.1-0.7-1.7,0c-1.6,1.7-3.3,3.3-4.9,5c-0.7,0.7-1.2,0.8-1.9,0c-1.6-1.7-3.4-3.2-5-4.9
	c-0.9-0.9-1.6-0.4-2.2,0.1c-1.6,1.5-3.1,3.1-4.6,4.7c-0.7,0.7-1.1,0.7-1.8,0c-2.1-2.2-4.3-4.4-6.5-6.5c-0.8-0.8-0.8-1.2,0-2
	c2.8-2.8,5.7-5.4,8.2-8.4c1.5-1.9,3.3-3.4,5.2-4.9C275.3,59.1,275.5,58.7,276.1,58.7z"/>
<path class="st0" d="M218.3,66c0-1.9,0.1-3.6,0-5.3c-0.1-1.2,0.4-1.5,1.5-1.5c3.1,0.1,6.1,0.1,9.2,0c1.4,0,1.6,0.5,1.6,1.7
	c-0.1,2.1,0.1,4.3,0.1,6.5c0,1.4,0.7,2.2,2,2.2s2-0.8,1.9-2.2c0-2.2,0-4.4,0-6.6c0-1.2,0.3-1.7,1.5-1.6c3,0.1,6,0,9,0
	c0.7,0,1.4-0.1,1.4,0.9c0,3.7,0.3,7.4-0.2,11c-1.2,8-9.6,12.8-17.8,10.6c-5-1.3-8.8-4-10-9.4C218,70.1,218.4,68,218.3,66z"/>
<path class="st0" d="M25.5,37.6c3.4,0.2,6.9,1.8,10.1,4.3c1.2,1,3.1,0.5,3.7-1c1.1-2.8,2.5-5.5,4.4-7.8c1.2-1.5,2.5-3.5,4.8-2.8
	c2.1,0.6,2.1,2.9,2.5,4.6c0.5,2.1,0.5,4.3-0.8,6.2c-0.2,0.3-0.3,0.6,0.1,0.7c2,0.9,2.5,2.5,2.3,4.6c-0.3,2.2-1.3,4.1-3.1,5.4
	c-2.2,1.5-4.5,1.4-7-0.5c-0.9-0.7-3,0-3.3,1.1c-0.8,2.6-2.6,4.2-5.1,4.3c-2.9,0.2-5.8-1.2-6.9-3.4c-0.3-0.7-0.7-1.5-0.5-2.3
	c0.6-1.7,0-2.6-1.5-3.7c-2-1.5-3-3.7-3.4-6.1C21.3,38.5,22.2,37.5,25.5,37.6z"/>
<path class="st0" d="M152.9,73.7c-0.3,0.3-0.5,0.6-0.7,0.8c-2.2,2.2-4.4,4.4-6.6,6.7c-0.7,0.7-1.2,0.8-1.9,0
	c-1.6-1.7-3.2-3.2-4.8-4.9c-0.7-0.8-1.2-0.9-2-0.1c-1.6,1.7-3.3,3.3-4.9,5c-0.6,0.7-1,0.7-1.6,0.1c-2.3-2.3-4.6-4.7-6.9-6.9
	c-0.6-0.6-0.5-0.9,0-1.5c4.6-4.6,9.2-9.2,13.8-13.8c0.5-0.5,0.8-0.5,1.3,0c4.6,4.6,9.2,9.2,13.8,13.8
	C152.6,73.2,152.7,73.4,152.9,73.7z"/>
<path class="st0" d="M92.1,59.6c3.2,0,6.4,0,9.6,0c1,0,1.4,0.2,1.3,1.3c-0.1,2.8-0.1,5.5,0,8.3c0,1-0.3,1.2-1.3,1.2
	c-1.3,0-3.1-0.6-3.9,0.3c-0.7,0.9-0.2,2.6-0.2,3.9c0,1.7,0,3.3,0,5c0,1-0.3,1.4-1.4,1.4c-2.9-0.1-5.8-0.1-8.7,0
	c-1.1,0-1.4-0.3-1.4-1.4c0-2.6,0-5.3,0-7.9c0-1-0.3-1.4-1.4-1.4c-1.3,0-3,0.6-3.7-0.2c-0.9-1-0.3-2.7-0.3-4.1c0-1.6,0.1-3.2,0-4.8
	c-0.1-1.2,0.2-1.7,1.6-1.7C85.7,59.7,88.9,59.6,92.1,59.6L92.1,59.6z"/>
<path class="st0" d="M176.1,70c0-3.1,0-6.3,0-9.4c0-1,0.3-1.4,1.3-1.4c3.1,0.1,6.3,0.1,9.4,0c1.1,0,1.5,0.2,1.5,1.4
	c-0.1,2.5,0,5-0.1,7.6c0,1.1,0.3,1.5,1.5,1.5c3.9,0,3.9,0,3.9,4c0,2,0,4.1,0,6.1c0,1.1-0.5,1.3-1.5,1.3c-4.9,0-9.8,0-14.7,0
	c-1,0-1.3-0.3-1.3-1.3C176.1,76.5,176.1,73.3,176.1,70z"/>
<path class="st0" d="M15.4,81.8c-2.5,0-4.2-1.5-4.7-4.1c-0.2-1.2-1.7-2-2.8-1.4c-3.4,2-7.5-0.4-7.9-4.8c-0.1-1.6,0.5-2.9,1.9-3.7
	c0.6-0.4,1-0.6,0.7-1.5c-0.9-2.7,0.1-5.1,1.6-7.2c0.9-1.2,2-1.3,3.1-0.2c2.6,2.4,3.8,5.5,4.4,8.9c0.3,1.6,1.5,2.2,3.1,1.5
	c2.6-1.2,5.4-2.1,8.3-2.2c3.2-0.1,4.1,1.1,2.7,4c-0.9,2-2.1,3.9-4.5,4.5c-0.5,0.1-0.5,0.3-0.5,0.7C21.1,79.6,19,81.7,15.4,81.8z"/>
</svg>
