<?xml version="1.0" encoding="utf-8"?>
<!-- Generator: Adobe Illustrator 21.0.0, SVG Export Plug-In . SVG Version: 6.00 Build 0)  -->
<svg version="1.1" id="Layer_1" xmlns="http://www.w3.org/2000/svg" xmlns:xlink="http://www.w3.org/1999/xlink" x="0px" y="0px"
	 viewBox="0 0 224.3 128.7" style="enable-background:new 0 0 224.3 128.7;" xml:space="preserve">
<style type="text/css">
	.st0{fill:#414042;}
</style>
<g>
	<g>
		<g>
			<g>
				<g>
					<path class="st0" d="M112.2,8.8c-0.8,0-1.5,0.7-1.5,1.5s0.7,1.5,1.5,1.5s1.5-0.7,1.5-1.5l0,0C113.6,9.5,113,8.8,112.2,8.8
						L112.2,8.8 M91.4,47.3c-0.2,0-0.4,0-0.6,0c-0.7-1.9-1.3-3.9-1.6-5.9h9.5C97.9,44.8,94.9,47.3,91.4,47.3 M125.7,41.4
						c0.7,3.4,3.7,5.9,7.3,5.9c0.2,0,0.4,0,0.6,0c0.7-1.9,1.2-3.9,1.6-5.9H125.7z M132.3,50.3c-3.9,8.5-11.2,14.9-20.1,17.8
						c-9-2.8-16.3-9.3-20.2-17.8c5.5-0.4,9.7-4.9,9.7-10.3v-1.5h-13c-0.1-0.5-0.1-1.1-0.1-1.6L86.9,6.6C95.1,2.3,102.8,0,112.2,0
						c8.8,0,17.5,2.3,25.2,6.6l-1.7,30.2c0,0.5-0.1,1.1-0.1,1.6h-13v1.5C122.6,45.4,126.9,49.9,132.3,50.3 M107.7,23.6h8.9v-3h-3
						v-6.2c2.3-0.8,3.5-3.4,2.7-5.7s-3.4-3.5-5.7-2.7c-2.3,0.8-3.5,3.4-2.7,5.7c0.4,1.3,1.5,2.3,2.7,2.7v6.2h-3L107.7,23.6
						L107.7,23.6z M116.6,29.6h8.9v3h3v-8.9h-3v3h-11.9v30.5l-1.5,1.5l-1.5-1.5V26.6H98.7v-3h-3v8.9h3v-3h8.9v28.7l4.5,4.4l4.4-4.4
						L116.6,29.6z"/>
					<polygon class="st0" points="6.4,108 3.3,108 0,93.4 3.2,93.4 4.8,103.7 6.4,93.4 9.6,93.4 					"/>
					<path class="st0" d="M15.1,96h-1.2v3.7h1.2c1.1,0,1.2-1,1.2-1.8C16.3,97,16.1,96,15.1,96z M16.6,108l-1.8-5.7h-1v5.7h-2.9V93.4
						h4.2c3.2,0,4.1,1.7,4.1,4.5c0,1.6-0.2,3-1.7,3.8l2.1,6.3H16.6z"/>
					<polygon class="st0" points="26.4,108 26.4,101.9 24,101.9 24,108 21.1,108 21.1,93.4 24,93.4 24,99.3 26.4,99.3 26.4,93.4 
						29.3,93.4 29.3,108 					"/>
					<path class="st0" d="M36.4,96.4c-0.3-0.5-1-0.7-1.5-0.5c-0.2,0.1-0.4,0.3-0.5,0.5c-0.4,1.4-0.5,2.8-0.4,4.3
						c-0.1,1.4,0,2.9,0.4,4.3c0.3,0.5,1,0.7,1.5,0.4c0.2-0.1,0.3-0.3,0.4-0.4c0.4-1.4,0.5-2.8,0.4-4.3
						C36.9,99.3,36.7,97.8,36.4,96.4z M38.6,106.7c-1.5,1.8-4.2,2-5.9,0.5c-0.2-0.1-0.3-0.3-0.5-0.5c-1-1.3-1.1-3.2-1.1-6
						s0.1-4.7,1.1-6c1.5-1.8,4.2-2,5.9-0.5c0.2,0.1,0.3,0.3,0.5,0.5c1,1.3,1.1,3.2,1.1,6C39.7,103.5,39.6,105.5,38.6,106.7z"/>
					<polygon class="st0" points="46.6,108 43.5,108 40.3,93.4 43.5,93.4 45.1,103.7 46.7,93.4 49.9,93.4 					"/>
					<polygon class="st0" points="57.2,108 54.1,100.8 54.1,108 51.2,108 51.2,93.4 53.7,93.4 56.8,100.6 56.8,93.4 59.7,93.4 
						59.7,108 					"/>
					<path class="st0" d="M66.7,96.4c-0.3-0.5-1-0.7-1.5-0.5c-0.2,0.1-0.4,0.3-0.5,0.5c-0.4,1.4-0.5,2.8-0.4,4.3
						c-0.1,1.4,0,2.9,0.4,4.3c0.3,0.5,1,0.7,1.5,0.4c0.2-0.1,0.3-0.3,0.4-0.4c0.4-1.4,0.5-2.8,0.4-4.3
						C67.2,99.3,67.1,97.8,66.7,96.4z M68.9,106.7c-1.5,1.8-4.2,2-5.9,0.5c-0.2-0.1-0.3-0.3-0.5-0.5c-1-1.3-1.1-3.2-1.1-6
						s0.1-4.7,1.1-6c1.5-1.8,4.2-2,5.9-0.5c0.2,0.1,0.3,0.3,0.5,0.5c1,1.3,1.1,3.2,1.1,6S70,105.5,68.9,106.7z"/>
					<path class="st0" d="M80.5,96.7c-0.2-0.4-0.6-0.7-1.1-0.6h-1.2v9.4h1.2c0.5,0,0.9-0.2,1.1-0.6c0.3-1.3,0.5-2.7,0.3-4.1
						C80.9,99.3,80.8,98,80.5,96.7z M82.7,106.6c-0.8,1-2,1.5-3.2,1.4h-4.1V93.4h4.1c1.2-0.1,2.4,0.5,3.2,1.4c1,1.2,1.1,3.2,1.1,5.9
						C83.8,103.4,83.7,105.4,82.7,106.6z"/>
					<path class="st0" d="M89.7,96h-1.2v3.7h1.2c1.1,0,1.2-1,1.2-1.8C90.8,97,90.8,96,89.7,96z M91.2,108l-1.8-5.7h-1v5.7h-2.9V93.4
						h4.2c3.2,0,4.1,1.7,4.1,4.5c0,1.6-0.2,3-1.7,3.8l2.1,6.3H91.2z"/>
					<path class="st0" d="M100.1,92.5H98l-2.2-3h2.1l1.2,1.6l1.2-1.6h2.1L100.1,92.5z M95.5,108v-2.2l3.9-9.8h-3.7v-2.6h6.7v2.2
						l-3.9,9.8h3.9v2.6H95.5z"/>
					<path class="st0" d="M108.6,97.7l-1.1,5.4h2.3L108.6,97.7z M110.8,108l-0.5-2.3h-3.4l-0.5,2.3h-3.1l3.8-14.6h2.9l3.8,14.6
						H110.8z"/>
					<polygon class="st0" points="119.4,108 116.3,108 113.1,93.4 116.3,93.4 117.9,103.7 119.5,93.4 122.7,93.4 					"/>
					<polygon class="st0" points="130,108 126.9,100.8 126.9,108 124,108 124,93.4 126.6,93.4 129.6,100.6 129.6,93.4 132.6,93.4 
						132.6,108 					"/>
					<path class="st0" d="M139.5,96.4c-0.3-0.5-1-0.7-1.5-0.5c-0.2,0.1-0.4,0.3-0.5,0.5c-0.4,1.4-0.5,2.8-0.4,4.3
						c-0.1,1.4,0,2.9,0.4,4.3c0.3,0.5,1,0.7,1.5,0.4c0.2-0.1,0.3-0.3,0.4-0.4c0.4-1.4,0.5-2.8,0.4-4.3
						C140,99.3,139.9,97.8,139.5,96.4z M141.7,106.7c-1.5,1.8-4.2,2-6,0.5c-0.2-0.1-0.3-0.3-0.5-0.5c-1-1.3-1.1-3.2-1.1-6
						s0.1-4.7,1.1-6c1.5-1.8,4.2-2,6-0.5c0.2,0.1,0.3,0.3,0.5,0.5c1,1.3,1.1,3.2,1.1,6S142.8,105.5,141.7,106.7z"/>
					<polygon class="st0" points="152.8,96 152.8,108 149.9,108 149.9,96 147.4,96 147.4,93.4 155.3,93.4 155.3,96 					"/>
					<path class="st0" d="M161.6,96.4c-0.2-0.4-0.6-0.6-1-0.6s-0.8,0.2-1,0.6c-0.3,1.4-0.5,2.8-0.4,4.3c-0.1,1.4,0,2.9,0.4,4.3
						c0.2,0.4,0.6,0.6,1,0.6s0.8-0.2,1-0.6c0.4-1.4,0.5-2.8,0.4-4.3C162.1,99.3,162,97.8,161.6,96.4z M163.9,106.7
						c-1.5,1.8-4.2,2-6,0.5c-0.2-0.1-0.3-0.3-0.5-0.5c-1-1.3-1.1-3.2-1.1-6s0.1-4.7,1.1-6c1.5-1.8,4.2-2,6-0.5
						c0.2,0.1,0.3,0.3,0.5,0.5c1,1.3,1.1,3.2,1.1,6C164.9,103.5,164.9,105.5,163.9,106.7z"/>
					<path class="st0" d="M170.8,92.5h-2.1l-2.2-3h2.1l1.2,1.6l1.2-1.6h2.1L170.8,92.5z M166.1,108v-2.2L170,96h-3.7v-2.6h6.7v2.2
						l-3.9,9.8h3.9v2.6H166.1z"/>
					<rect x="174.6" y="93.4" class="st0" width="2.9" height="14.6"/>
					<polygon class="st0" points="179.5,108 179.5,93.4 182.5,93.4 182.5,105.4 186.3,105.4 186.3,108 					"/>
					<path class="st0" d="M194.8,107.1c-0.9,0.8-2,1.1-3.2,1.1c-1.1,0.1-2.3-0.3-3.2-1c-0.8-0.9-1.1-2.1-1-3.2h2.9
						c-0.1,0.5,0.1,0.9,0.3,1.3c0.2,0.2,0.6,0.4,0.9,0.3c0.3,0,0.7-0.1,0.9-0.4c0.2-0.4,0.3-0.8,0.3-1.2c0-1.4-0.2-1.6-1.3-2.1
						l-1.9-0.8c-1.5-0.6-2.1-1.4-2.1-3.7c-0.1-1.2,0.4-2.4,1.3-3.3c0.8-0.6,1.7-1,2.7-0.9c1-0.1,2.1,0.3,2.9,0.9
						c0.8,0.9,1.3,2.2,1.1,3.4h-2.9c0.1-0.5,0-0.9-0.3-1.3c-0.2-0.3-0.5-0.4-0.9-0.4c-0.3,0-0.6,0.1-0.8,0.4s-0.3,0.7-0.2,1
						c0,0.9,0.2,1.2,1,1.5l1.8,0.7c1.9,0.8,2.4,1.6,2.4,4.2C195.7,105.3,195.6,106.4,194.8,107.1z"/>
					<polygon class="st0" points="202.3,96 202.3,108 199.3,108 199.3,96 196.8,96 196.8,93.4 204.7,93.4 204.7,96 					"/>
					<polygon class="st0" points="211.9,108 208.8,108 205.6,93.4 208.8,93.4 210.4,103.7 212,93.4 215.2,93.4 					"/>
					<path class="st0" d="M221.1,96.4c-0.3-0.5-1-0.7-1.5-0.5c-0.2,0.1-0.4,0.3-0.5,0.5c-0.4,1.4-0.5,2.8-0.4,4.3
						c-0.1,1.4,0,2.9,0.4,4.3c0.3,0.5,1,0.7,1.5,0.4c0.2-0.1,0.3-0.3,0.4-0.4c0.4-1.4,0.5-2.8,0.4-4.3
						C221.6,99.3,221.5,97.8,221.1,96.4z M223.4,106.7c-1.5,1.8-4.2,2-6,0.5c-0.2-0.1-0.3-0.3-0.5-0.5c-1-1.3-1.1-3.2-1.1-6
						s0.1-4.7,1.1-6c1.5-1.8,4.2-2,5.9-0.5c0.2,0.1,0.3,0.3,0.5,0.5c1,1.3,1,3.2,1,6C224.4,103.5,224.4,105.5,223.4,106.7z"/>
					<path class="st0" d="M63.5,118.5h-1.3v4.4h1.3c1.1,0,1.4-0.8,1.4-2.2S64.6,118.5,63.5,118.5z M65.2,128.5l-1.6-4.9h-1.4v4.9
						h-0.9v-11h2.2c1.3,0,2.4,0.5,2.4,3.1c0,1.7-0.5,2.5-1.4,2.9l1.7,5.1L65.2,128.5z"/>
					<polygon class="st0" points="68,128.5 68,117.6 71.8,117.6 71.8,118.5 68.9,118.5 68.9,122.7 71.4,122.7 71.4,123.5 
						68.9,123.5 68.9,127.7 71.8,127.7 71.8,128.5 					"/>
					<path class="st0" d="M75.7,118.4h-1.2v4.5h1.2c0.9,0,1.5-0.4,1.5-2.2C77.2,118.8,76.6,118.5,75.7,118.4L75.7,118.4z
						 M75.7,123.7h-1.2v4.9h-0.9v-11h2.2c1.3,0,2.4,0.5,2.4,3.1S77,123.7,75.7,123.7z"/>
					<path class="st0" d="M83.7,128c-0.4,0.4-1,0.6-1.6,0.6s-1.2-0.2-1.6-0.6c-0.4-0.5-0.7-1.1-0.7-1.8v-8.7h0.9v8.8
						c-0.1,0.8,0.4,1.4,1.2,1.5c0.8,0.1,1.4-0.4,1.5-1.2c0-0.1,0-0.2,0-0.3v-8.8h0.9v8.7C84.4,126.9,84.1,127.6,83.7,128z"/>
					<path class="st0" d="M88.3,123.3h-1v4.4h1c1,0,1.6-0.5,1.6-2.2C90,123.9,89.4,123.3,88.3,123.3L88.3,123.3z M88.3,118.5h-1v4.1
						h1c1,0,1.5-0.6,1.5-2.1C89.9,119,89.3,118.5,88.3,118.5z M90.2,127.9c-0.5,0.5-1.2,0.7-1.9,0.6h-2v-11h2
						c0.7-0.1,1.4,0.1,1.9,0.6c0.5,0.6,0.7,1.4,0.6,2.2c0.1,0.7-0.2,1.5-0.7,2.1c-0.2,0.2-0.4,0.3-0.7,0.4c0.3,0.1,0.6,0.2,0.8,0.4
						c0.5,0.6,0.8,1.4,0.7,2.2C90.9,126.9,90.7,127.4,90.2,127.9z"/>
					<polygon class="st0" points="92.8,128.5 92.8,117.6 93.7,117.6 93.7,127.7 96.6,127.7 96.6,128.5 					"/>
					<rect x="98" y="117.6" class="st0" width="0.9" height="11"/>
					<polygon class="st0" points="105.1,128.5 103,123.1 102,125.2 102,128.5 101.1,128.5 101.1,117.6 102,117.6 102,123.6 
						104.9,117.6 105.9,117.6 103.6,122.1 106.1,128.5 					"/>
					<polygon class="st0" points="107.4,128.5 107.4,117.6 111.2,117.6 111.2,118.5 108.3,118.5 108.3,122.7 110.8,122.7 
						110.8,123.5 108.3,123.5 108.3,127.7 111.2,127.7 111.2,128.5 					"/>
					<path class="st0" d="M119.6,128.1c-0.5,0.4-1.1,0.6-1.7,0.6s-1.3-0.2-1.7-0.6c-0.5-0.6-0.8-1.4-0.6-2.2h0.9
						c-0.1,0.6,0.1,1.2,0.4,1.6c0.3,0.3,0.6,0.4,1,0.4s0.8-0.1,1-0.4c0.4-0.5,0.5-1.1,0.4-1.7c0-1.4-0.2-1.9-1.2-2.2l-1.2-0.5
						c-1.1-0.5-1.5-1.1-1.5-2.7c-0.1-0.8,0.2-1.6,0.8-2.2c0.4-0.4,1-0.6,1.6-0.6s1.2,0.2,1.6,0.6c0.5,0.6,0.8,1.4,0.7,2.1h-0.9
						c0.1-0.5-0.1-1.1-0.4-1.5c-0.3-0.3-0.6-0.4-1-0.4s-0.7,0.1-1,0.4c-0.4,0.4-0.5,1-0.5,1.6c0,1.3,0.2,1.6,1.2,2.1l1.2,0.5
						c1.2,0.5,1.4,1.3,1.4,2.9C120.4,126.5,120.1,127.4,119.6,128.1z"/>
					<polygon class="st0" points="122.1,128.5 122.1,117.6 123,117.6 123,127.7 126,127.7 126,128.5 					"/>
					<path class="st0" d="M130.5,118.7c-0.3-0.3-0.6-0.4-1-0.4s-0.8,0.1-1,0.4c-0.4,0.5-0.5,1.2-0.5,4.4s0.1,3.9,0.5,4.4
						c0.3,0.3,0.6,0.4,1,0.4s0.8-0.1,1-0.4c0.4-0.5,0.5-1.2,0.5-4.4C131,119.9,130.9,119.2,130.5,118.7z M131.1,128
						c-0.4,0.4-1,0.7-1.6,0.6c-0.6,0-1.2-0.2-1.6-0.6c-0.7-0.7-0.8-1.5-0.8-5s0.1-4.2,0.8-5c0.4-0.4,1-0.7,1.6-0.6
						c0.6,0,1.2,0.2,1.6,0.6c0.7,0.7,0.8,1.5,0.8,5C131.9,126.5,131.8,127.3,131.1,128z"/>
					<polygon class="st0" points="136,128.5 135.1,128.5 132.8,117.6 133.8,117.6 135.6,126.9 137.4,117.6 138.4,117.6 					"/>
					<polygon class="st0" points="139.5,128.5 139.5,117.6 143.4,117.6 143.4,118.5 140.4,118.5 140.4,122.7 142.9,122.7 
						142.9,123.5 140.4,123.5 140.4,127.7 143.4,127.7 143.4,128.5 					"/>
					<polygon class="st0" points="149.1,128.5 146,120 146,128.5 145.1,128.5 145.1,117.6 146,117.6 149.1,126.1 149.1,117.6 
						150,117.6 150,128.5 					"/>
					<rect x="152.2" y="117.6" class="st0" width="0.9" height="11"/>
					<path class="st0" d="M157.7,128c-0.4,0.4-1,0.7-1.7,0.6c-0.7,0-1.3-0.3-1.7-0.8l0.7-0.6c0.3,0.3,0.7,0.6,1.1,0.6
						c0.8,0,1.4-0.6,1.4-1.7v-8.6h0.9v8.6C158.3,126.9,158.1,127.5,157.7,128z"/>
					<polygon class="st0" points="160.3,128.5 160.3,117.6 164.1,117.6 164.1,118.5 161.2,118.5 161.2,122.7 163.7,122.7 
						163.7,123.5 161.2,123.5 161.2,127.7 164.1,127.7 164.1,128.5 					"/>
				</g>
			</g>
		</g>
	</g>
</g>
</svg>
