<?xml version="1.0" encoding="utf-8"?>
<!-- Generator: Adobe Illustrator 21.0.0, SVG Export Plug-In . SVG Version: 6.00 Build 0)  -->
<svg version="1.1" id="Layer_1" xmlns="http://www.w3.org/2000/svg" xmlns:xlink="http://www.w3.org/1999/xlink" x="0px" y="0px"
	 viewBox="0 0 425 85.1" style="enable-background:new 0 0 425 85.1;" xml:space="preserve">
<style type="text/css">
	.st0{fill:#414042;}
</style>
<path class="st0" d="M297,67.7H284v2.9h4.9V84h3.3V70.6h4.8L297,67.7L297,67.7z M241.7,75.9c0-1.4,0.2-2.5,0.5-3.3
	c0.3-0.8,0.8-1.5,1.4-1.9s1.3-0.6,2.1-0.6s1.5,0.2,2.1,0.6c0.6,0.4,1,1,1.4,1.8c0.3,0.8,0.5,1.9,0.5,3.3c0,1.1-0.1,2.2-0.5,3.2
	c-0.2,0.7-0.7,1.4-1.3,1.8c-0.6,0.4-1.3,0.6-2.1,0.6c-0.7,0-1.4-0.2-2.1-0.6c-0.6-0.4-1-1-1.4-1.8S241.7,77.2,241.7,75.9 M239,71.4
	c-0.7,1.4-1,2.9-0.9,4.5c0,1.7,0.3,3.2,0.9,4.5c0.6,1.2,1.5,2.2,2.6,2.9s2.5,1,4,1c1.5,0,2.9-0.3,4-1s2-1.6,2.6-2.9
	c0.6-1.2,0.9-2.7,0.9-4.4c0-1.7-0.3-3.2-0.9-4.5c-0.6-1.2-1.5-2.2-2.6-2.9c-1.2-0.7-2.6-1.1-3.9-1c-1.5,0-2.9,0.3-4,1
	C240.5,69.1,239.6,70.1,239,71.4 M225.7,79.3h-3.4c0.1,0.8,0.3,1.5,0.7,2.2s0.9,1.1,1.6,1.5c0.6,0.4,1.4,0.7,2.1,0.9
	c0.8,0.2,1.6,0.3,2.4,0.3c1.2,0,2.3-0.2,3.4-0.6c1-0.4,1.8-1,2.3-1.8c0.9-1.4,1.1-3.2,0.4-4.7c-0.3-0.7-0.8-1.2-1.4-1.6
	c-0.8-0.5-1.7-0.8-2.6-1l-2.8-0.6c-0.6-0.1-1.2-0.3-1.6-0.7c-0.3-0.3-0.5-0.7-0.5-1.2c0-0.5,0.2-1,0.7-1.4c0.4-0.4,1.2-0.6,2.2-0.6
	c0.6,0,1.1,0.1,1.5,0.2s0.8,0.4,1.1,0.8c0.3,0.3,0.5,0.8,0.5,1.4h3.3c0-0.9-0.3-1.8-0.8-2.5c-0.5-0.8-1.3-1.4-2.1-1.8
	c-1.1-0.5-2.3-0.7-3.4-0.7c-1.2,0-2.3,0.2-3.3,0.6c-0.9,0.4-1.7,0.9-2.3,1.7c-0.6,0.8-0.9,1.7-0.8,2.6c0,0.9,0.2,1.6,0.5,2.2
	s0.8,1.1,1.5,1.5c0.6,0.4,1.4,0.7,2.3,0.8l3.1,0.7c0.7,0.2,1.2,0.4,1.6,0.7c0.4,0.3,0.6,0.7,0.6,1.3c0,0.5-0.1,0.8-0.4,1.2
	s-0.7,0.5-1.1,0.7c-1.1,0.3-2.2,0.3-3.2,0c-0.5-0.2-0.9-0.4-1.2-0.8C226,80.2,225.8,79.8,225.7,79.3 M216.9,44.3h3.7
	c1.1-0.1,2.1,0.2,3,0.9c0.8,0.6,1.1,1.5,1.1,2.6c0,1-0.4,2-1.1,2.7c-0.8,0.7-1.7,1-2.9,1h-3.8L216.9,44.3L216.9,44.3z M220.5,42.8
	h-5.4v16.3h1.8V53h3.8c1.1,0,2.1-0.2,3-0.6c1.8-0.8,2.9-2.6,2.8-4.5c0-1-0.2-2-0.8-2.8c-0.5-0.8-1.3-1.4-2.1-1.7
	C222.6,43,221.6,42.8,220.5,42.8 M195.3,69.2L186.2,83v1h11.5v-1.6h-9.1l9.2-13.8v-1h-11.2v1.6L195.3,69.2L195.3,69.2z M117.1,5.5
	l31.4,0V0h-31.4L117.1,5.5L117.1,5.5z M127.5,51.6l7.8,2.3c2.7,0.8,5.1,1.7,7.2,2.8c1.9,0.9,3.5,2.2,4.8,3.8
	c1.2,1.6,1.8,3.6,1.7,5.7c0,2.7-0.7,5-2.2,7c-1.4,2-3.5,3.6-6,4.7c-2.8,1.2-5.7,1.7-8.7,1.7c-2.7,0-5.5-0.4-8-1.4
	c-2.3-0.9-4.3-2.3-5.8-4.1c-1.2-1.4-2-3.1-2.3-5c0.1-0.6,0.1-1.1,0.1-1.7v-0.2c0-2-0.3-3.9-1-5.6c-0.7-1.7-1.7-3.2-3-4.5
	c-1.5-1.5-3.2-2.7-5.1-3.7c-2.3-1.2-4.8-2.2-7.3-3L92.3,48c-2.1-0.6-4.1-1.5-6.1-2.5c-1.6-0.8-3-1.9-4.3-3.2c-1.1-1.1-2-2.4-2.5-3.9
	c-0.6-1.5-0.9-3.1-0.8-4.6c0-2.9,0.8-5.5,2.3-7.7c1.6-2.3,3.7-4.1,6.2-5.3c2.8-1.3,5.8-2,8.9-1.9c5.1,0,9.1,1.5,12.2,4.4
	c1.8,1.7,3.2,3.8,4.1,6.1c-0.1,0.3-0.2,0.5-0.2,0.8c-0.4,1.5-0.6,3-0.6,4.6c0,4.3,1.4,7.8,4.3,10.5C118.4,47.9,122.4,50,127.5,51.6
	 M78.1,40.4c0.6,1.1,1.4,2.2,2.2,3.1c2.5,2.7,6.4,4.8,11.5,6.5l7.4,2.3c3,0.9,5.9,2.1,8.6,3.7c2,1.2,3.6,2.8,4.8,4.8
	c1.1,1.9,1.6,4.1,1.5,6.2v0.2c0,2.8-0.8,5.6-2.3,8c-1.6,2.4-3.9,4.3-6.6,5.5c-3.1,1.4-6.4,2.1-9.8,2c-3.6,0-6.7-0.6-9.4-1.8
	c-2.5-1.1-4.6-2.8-6.2-5c0,0-15.7-21-15.7-21c1.9-0.4,3.7-1,5.3-1.9c2.8-1.5,5.1-3.8,6.6-6.5C77,44.6,77.7,42.5,78.1,40.4
	 M76.3,36.7c0,3.3-0.7,6.3-2.1,8.8c-1.4,2.4-3.4,4.5-5.9,5.8c-2.7,1.4-5.6,2.1-8.7,2.1h-17V19.9h17c3.3,0,6.1,0.7,8.7,2.1
	c2.5,1.4,4.5,3.4,5.9,5.9C75.7,30.5,76.4,33.6,76.3,36.7 M40.6,81.8H2.4l38.2-61.6V81.8z M118.2,39c-0.8-1.4-1.2-3-1.1-4.6
	c0-2.4,0.7-4.5,2-6.4c1.4-1.9,3.3-3.5,5.4-4.4c2.3-1,5-1.6,8.1-1.6c4.3,0,7.9,1.1,10.8,3.3c2.8,2.1,4.6,5.3,4.8,8.8h5.8
	c-0.1-3.2-1.1-6.4-3-9c-1.9-2.7-4.5-4.8-7.5-6.2c-3.4-1.6-7.1-2.3-10.8-2.3c-4,0-7.7,0.8-10.9,2.3c-3.1,1.4-5.7,3.6-7.7,6.4
	c-0.3,0.5-0.6,1-0.9,1.5c-1.6-3.3-4.3-6-7.5-7.7c-3-1.6-6.4-2.3-9.8-2.2c-3.7,0-7,0.7-9.9,2.2c-2.8,1.4-5.2,3.5-6.9,6.1
	c-0.8,1.3-1.5,2.7-1.9,4.2c-1.4-3.9-4.2-7.1-7.8-9.1c-3-1.6-6.3-2.4-9.7-2.4H0.3v2.1h38L0,81.8v2.1h42.6V55.3h17
	c0.7,0,1.4,0,2.1-0.1c5.7,7.6,11.3,15.2,17,22.8c1.7,2,3.8,3.6,6.2,4.8c3.3,1.5,6.8,2.2,10.4,2.1c4.1,0,7.7-0.8,10.9-2.3
	c2.7-1.3,5.1-3.2,6.8-5.7c1.9,2.6,4.5,4.6,7.5,5.9c3.3,1.5,7.2,2.3,11.6,2.3c4.7,0,8.8-0.8,12.2-2.5c3.4-1.6,6-3.9,7.8-6.7
	c1.8-2.9,2.8-6.2,2.7-9.6c0-2.8-0.5-5.2-1.6-7.1c-1-2-2.5-3.7-4.2-5c-1.8-1.4-3.7-2.5-5.7-3.4c-2-0.9-4.1-1.6-6.3-2.2l-6.9-2
	c-1.6-0.5-3.2-1-4.7-1.7c-1.5-0.6-2.9-1.4-4.2-2.4C120,41.5,119,40.3,118.2,39 M188.6,32.6l9.2-13.8v-1h-11.2v1.5h8.8l-9.1,13.8v1
	h11.5v-1.6L188.6,32.6L188.6,32.6z M192.4,50.3h-3.7v-6.1h4.3c1.1,0,2,0.2,2.6,0.7c0.6,0.5,0.9,1.2,0.9,2.2c0,1-0.4,1.8-1.1,2.3
	C194.6,50.2,193.5,50.4,192.4,50.3 M198.3,59.1l-3.3-7.6c0.5-0.2,1.1-0.4,1.5-0.8c1.2-0.8,1.8-2.2,1.7-3.6c0-0.9-0.2-1.7-0.6-2.3
	c-0.4-0.7-1-1.2-1.7-1.5c-0.9-0.4-1.9-0.5-2.9-0.5h-6.2v16.3h1.8v-7.2h4.7l3.1,7.2L198.3,59.1L198.3,59.1z M210.2,27.9h-5.9l2.9-8.3
	L210.2,27.9L210.2,27.9z M212.4,34.2h1.8l-5.9-16.3h-2.1l-5.9,16.3h1.8l1.7-4.6h6.9L212.4,34.2L212.4,34.2z M203.5,57.5v-5.8h7.5
	v-1.6h-7.5v-5.7h8.3v-1.6h-10v16.3h10.3v-1.6L203.5,57.5L203.5,57.5z M210.2,77.7h-5.9l2.9-8.3L210.2,77.7z M212.4,84h1.8l-5.9-16.3
	h-2.1L200.3,84h1.8l1.7-4.7h6.9L212.4,84L212.4,84z M222.3,34.2l5.8-16.3h-1.8l-5.2,14.3L216,17.9h-1.8l5.8,16.3H222.3z M230.5,63.4
	l-1.5,1.7l-1.6-1.7h-2.4l3,3h2.3l2.9-2.9C233.1,63.4,230.5,63.4,230.5,63.4z M231,42.8h-1.8v10.6c0,1.3,0.2,2.4,0.6,3.3
	c0.4,0.9,1,1.6,1.9,2c1,0.5,2.2,0.7,3.3,0.7c1.4,0,2.4-0.2,3.3-0.7c0.8-0.4,1.5-1.1,1.9-1.9c0.4-0.8,0.6-1.9,0.6-3.1V42.8h-1.8v10.9
	c0,0.8-0.1,1.6-0.5,2.3c-0.3,0.6-0.8,1-1.4,1.3c-0.6,0.3-1.3,0.5-2.2,0.5c-1.3,0-2.3-0.3-2.9-1c-0.7-0.7-1-1.7-1-3L231,42.8
	L231,42.8z M241.5,26.1c0,1.5-0.2,2.8-0.6,3.8c-0.4,1-0.9,1.8-1.7,2.2c-0.7,0.5-1.6,0.7-2.7,0.7s-2-0.2-2.7-0.7s-1.3-1.2-1.7-2.2
	s-0.6-2.3-0.6-3.8s0.2-2.8,0.6-3.9c0.4-1,1-1.8,1.7-2.3s1.6-0.7,2.7-0.7c1.1,0,2,0.2,2.7,0.7c0.8,0.6,1.4,1.3,1.7,2.2
	C241.3,23.2,241.5,24.5,241.5,26.1 M242.6,30.6c0.6-1.2,0.9-2.8,0.9-4.5c0-1.8-0.3-3.3-0.9-4.6s-1.4-2.2-2.4-2.9
	c-1.1-0.7-2.4-1-3.7-1c-1.4,0-2.7,0.3-3.7,1c-1.1,0.7-1.9,1.7-2.4,2.9c-0.6,1.4-0.9,3-0.9,4.6c0,1.8,0.3,3.3,0.9,4.5
	c0.6,1.2,1.4,2.2,2.4,2.8s2.3,1,3.7,1c1.3,0,2.6-0.3,3.7-1C241.3,32.8,242.1,31.8,242.6,30.6 M246.5,44.3h3.4c1.1,0,2.1,0.2,3,0.7
	c0.8,0.5,1.2,1.2,1.2,2.2c0,0.6-0.1,1-0.4,1.4c-0.2,0.4-0.5,0.7-0.9,0.9c-0.4,0.2-0.8,0.4-1.3,0.4s-0.9,0.1-1.4,0.1h-3.7V44.3z
	 M246.5,51.6h3.7c0.8,0,1.5,0.1,2.1,0.3s1.1,0.5,1.5,1c0.4,0.5,0.6,1,0.6,1.8c0,1-0.4,1.7-1.1,2.2c-0.8,0.5-1.9,0.7-3.4,0.7h-3.4
	L246.5,51.6L246.5,51.6z M249.8,42.8h-5.1v16.3h5.2c2.1,0,3.6-0.4,4.6-1.1c1.1-0.7,1.6-1.8,1.6-3.3c0-0.5-0.1-0.9-0.2-1.3
	c-0.2-0.9-0.9-1.6-1.7-2c-0.5-0.3-1.1-0.5-1.6-0.6c1.1-0.4,1.9-0.9,2.4-1.5s0.7-1.4,0.7-2.3c0-1.4-0.5-2.4-1.5-3.2
	S251.7,42.8,249.8,42.8 M257.1,26c0,1.6-0.3,2.9-0.8,3.9c-0.5,0.9-1.3,1.7-2.4,2.1c-1.2,0.5-2.5,0.7-3.7,0.7h-1.4V19.5h1.5
	c1.4,0,2.7,0.2,3.7,0.6c1,0.4,1.8,1.1,2.3,2C256.9,23,257.1,24.3,257.1,26 M258,30.5c0.6-1.2,0.9-2.8,0.9-4.6c0-1.7-0.3-3.2-0.9-4.4
	c-0.6-1.2-1.5-2.1-2.7-2.7c-1.5-0.7-3.2-1-4.9-1c-1.2,0-2.3,0-3.5,0v16.3h3.2c2,0,3.6-0.3,4.9-0.9C256.4,32.7,257.4,31.7,258,30.5
	 M266.6,81.2h-7.1V67.7h-3.3V84h10.4V81.2L266.6,81.2z M259.5,59.1h9.7v-1.6h-7.9V42.8h-1.8L259.5,59.1z M272.2,59.1h1.8V42.8h-1.8
	V59.1z M279,68.1c-1.1-0.5-2.3-0.7-3.5-0.7c-1.2,0-2.3,0.2-3.2,0.6c-1,0.4-1.7,1-2.3,1.7c-0.6,0.8-0.9,1.7-0.8,2.6
	c0,0.9,0.2,1.6,0.5,2.2s0.9,1.1,1.5,1.5c0.6,0.4,1.4,0.7,2.3,0.8l3.1,0.7c0.7,0.2,1.2,0.4,1.7,0.7s0.6,0.7,0.6,1.3
	c0,0.5-0.1,0.9-0.4,1.2c-0.3,0.3-0.7,0.5-1.1,0.7c-1.1,0.3-2.2,0.3-3.2,0c-0.5-0.2-0.9-0.4-1.2-0.8c-0.3-0.4-0.6-0.8-0.6-1.2h-3.4
	c0.1,0.8,0.3,1.5,0.7,2.1s0.9,1.1,1.6,1.5s1.4,0.7,2.1,0.9c0.8,0.2,1.6,0.3,2.4,0.3c1.3,0,2.4-0.2,3.4-0.6c1-0.4,1.8-1,2.3-1.8
	c1-1.4,1.1-3.2,0.4-4.7c-0.3-0.7-0.8-1.2-1.4-1.6c-0.8-0.5-1.7-0.8-2.6-1l-2.8-0.6c-0.6-0.1-1.2-0.3-1.6-0.7
	c-0.3-0.3-0.5-0.7-0.5-1.2c0-0.5,0.2-1,0.7-1.4c0.5-0.4,1.2-0.6,2.1-0.6c0.6,0,1.1,0.1,1.5,0.2c0.5,0.2,0.8,0.4,1.1,0.8
	c0.3,0.3,0.5,0.8,0.5,1.4h3.3c0-0.9-0.3-1.8-0.8-2.5C280.6,69.1,279.9,68.5,279,68.1 M290.1,59.1l-6-9.9l5.6-6.5h-2.1l-7.7,8.7v-8.7
	h-1.8v16.3h1.8v-5.3l2.9-3.3l5.3,8.6L290.1,59.1L290.1,59.1z M293,59.1h10.3v-1.6l-8.5,0v-5.8h7.5v-1.6h-7.5v-5.7h8.3v-1.6h-10
	L293,59.1L293,59.1z M313.8,67.7h-3.2l-4.4,12.5l-4.4-12.5h-3.1l5.6,16.3h3.7L313.8,67.7z M315.1,48.6c-0.5-0.4-0.7-1-0.7-1.7
	c0-0.8,0.3-1.5,1-2c0.6-0.6,1.6-0.8,2.8-0.8c0.7,0,1.3,0.1,1.9,0.3s1.1,0.5,1.5,1c0.4,0.5,0.6,1.1,0.7,1.9h1.8
	c0-0.8-0.2-1.5-0.7-2.3c-0.5-0.7-1.1-1.3-1.9-1.7c-1-0.5-2.1-0.7-3.2-0.7c-1.1,0-2,0.2-2.9,0.6c-0.9,0.4-1.5,0.9-2,1.6
	s-0.7,1.5-0.7,2.4c0,0.7,0.1,1.4,0.5,2c0.3,0.5,0.8,1,1.3,1.3c0.6,0.3,1.2,0.6,2,0.8l3.4,0.9c0.9,0.3,1.6,0.6,2,1
	c0.4,0.4,0.6,1,0.6,1.6c0,0.6-0.2,1.2-0.5,1.6c-0.4,0.5-0.9,0.8-1.5,1c-1.3,0.5-2.8,0.5-4.1,0c-1.2-0.4-2.2-1.4-2.4-2.6H312
	c0.2,1.4,1,2.6,2.1,3.3c0.6,0.4,1.2,0.7,1.9,0.8c0.7,0.2,1.5,0.3,2.2,0.3c1.2,0,2.3-0.2,3.1-0.6c0.9-0.4,1.6-0.9,2.1-1.6
	s0.7-1.5,0.7-2.4c0-0.6-0.1-1.2-0.4-1.8c-0.3-0.6-0.7-1.1-1.2-1.5c-0.7-0.5-1.4-0.8-2.2-1l-3.4-0.9
	C316.3,49.4,315.7,49.1,315.1,48.6 M326.3,75.9c0,1.3-0.2,2.4-0.5,3.2c-0.2,0.7-0.7,1.4-1.4,1.8c-0.6,0.4-1.3,0.6-2.1,0.6
	c-0.8,0-1.5-0.2-2.1-0.6c-0.6-0.4-1.1-1.1-1.4-1.8c-0.4-1-0.5-2.1-0.5-3.2c0-1.4,0.2-2.5,0.5-3.3c0.3-0.8,0.8-1.5,1.4-1.9
	s1.3-0.6,2.1-0.6s1.5,0.2,2.1,0.6c0.6,0.4,1,1,1.4,1.8C326.2,73.4,326.3,74.6,326.3,75.9 M326.4,68.5c-1.2-0.7-2.6-1.1-4-1
	c-2.8-0.1-5.4,1.4-6.6,3.9c-0.7,1.4-1,2.9-0.9,4.5c0,1.7,0.3,3.2,0.9,4.5c0.6,1.2,1.5,2.2,2.6,2.9s2.5,1,4,1c1.5,0,2.9-0.3,4-1
	s2-1.6,2.6-2.9c0.6-1.2,0.9-2.7,0.9-4.4c0-1.8-0.3-3.2-0.9-4.5S327.5,69.1,326.4,68.5 M327.6,59.1h9.7v-1.6h-7.9V42.8h-1.8
	L327.6,59.1L327.6,59.1z M350.8,51c0,1.5-0.2,2.8-0.6,3.8c-0.4,1-0.9,1.7-1.7,2.2c-0.7,0.5-1.6,0.7-2.7,0.7c-1,0-1.9-0.2-2.7-0.7
	c-0.8-0.5-1.4-1.3-1.7-2.2c-0.4-1-0.6-2.3-0.6-3.8c0-1.5,0.2-2.8,0.6-3.8c0.4-1,1-1.8,1.7-2.3s1.6-0.8,2.7-0.8c1,0,2,0.2,2.7,0.7
	c0.8,0.6,1.4,1.4,1.7,2.3C350.6,48.1,350.8,49.4,350.8,51 M351.9,55.5c0.6-1.2,0.8-2.8,0.8-4.5c0-1.8-0.3-3.3-0.8-4.6
	c-0.5-1.2-1.3-2.2-2.4-2.8c-1-0.7-2.3-1-3.7-1s-2.7,0.3-3.7,1c-1.1,0.7-1.9,1.7-2.4,2.9c-0.6,1.4-0.9,3-0.9,4.6
	c0,1.8,0.3,3.3,0.9,4.5c0.5,1.2,1.3,2.2,2.4,2.8c1,0.7,2.3,1,3.7,1c1.3,0,2.6-0.3,3.7-1C350.6,57.7,351.4,56.7,351.9,55.5
	 M361.9,59.1l5.8-16.3H366l-5.2,14.3l-5.2-14.3h-1.8l5.9,16.3L361.9,59.1L361.9,59.1z M370.4,59.1h10.3v-1.6l-8.5,0v-5.8h7.5v-1.6
	h-7.5v-5.7h8.3v-1.6h-10V59.1L370.4,59.1z M394.6,59.1h1.6V42.8h-1.8V56l-9-13.2h-1.6v16.3h1.8V45.8L394.6,59.1L394.6,59.1z
	 M400.3,59.1h1.8V42.8h-1.8V59.1L400.3,59.1z M410.5,57.5c0.2-0.7,0.3-1.4,0.3-2.1V42.8H409v12.1c0,1-0.1,1.7-0.4,2.1
	c-0.3,0.4-0.8,0.6-1.5,0.6c-0.4,0-0.8-0.1-1.2-0.2c-0.3-0.2-0.6-0.3-0.8-0.3l-0.2,1.7c0.1,0.1,0.5,0.2,1,0.3s1,0.2,1.6,0.2
	c0.9,0,1.5-0.2,2-0.5S410.3,58.1,410.5,57.5 M416.5,57.5v-5.8h7.5v-1.6h-7.5v-5.7h8.3v-1.6h-10v16.3H425v-1.6L416.5,57.5L416.5,57.5
	z"/>
</svg>
