<?xml version="1.0" encoding="utf-8"?>
<!-- Generator: Adobe Illustrator 21.0.0, SVG Export Plug-In . SVG Version: 6.00 Build 0)  -->
<svg version="1.1" id="Layer_1" xmlns="http://www.w3.org/2000/svg" xmlns:xlink="http://www.w3.org/1999/xlink" x="0px" y="0px"
	 viewBox="0 0 285.7 150.2" style="enable-background:new 0 0 285.7 150.2;" xml:space="preserve">
<style type="text/css">
	.st0{fill:#414042;}
</style>
<title>Asset 1</title>
<g>
	<g id="Layer_1-2">
		<polygon class="st0" points="250.1,14 250.1,14.7 250,15.4 249.9,16.1 249.8,16.8 249.7,17.5 249.4,18.1 249.2,18.8 248.9,19.5 
			248.6,20.1 248.3,20.6 248,21.2 247.5,21.8 247.1,22.3 246.6,22.9 246.2,23.4 245.7,23.9 245.2,24.3 244.6,24.8 244,25.2 
			243.5,25.6 242.8,26 242.2,26.3 241.5,26.6 240.9,26.9 240.2,27.1 239.5,27.3 238.8,27.5 238,27.7 237.3,27.8 236.5,27.9 
			235.8,28 235,28 234.2,28 233.4,27.9 232.6,27.8 231.9,27.7 231.2,27.5 230.5,27.3 229.8,27.1 229.1,26.9 228.4,26.6 227.8,26.3 
			227.1,26 226.5,25.6 225.9,25.2 225.3,24.8 224.8,24.3 224.2,23.9 223.8,23.4 223.3,22.9 222.8,22.3 222.4,21.8 222,21.2 
			221.6,20.6 221.3,20.1 221,19.5 220.7,18.8 220.5,18.1 220.3,17.5 220.1,16.8 220,16.1 219.9,15.4 219.8,14.7 219.8,14 
			219.8,13.3 219.9,12.5 220,11.9 220.1,11.2 220.3,10.5 220.5,9.8 220.7,9.2 221,8.5 221.3,7.9 221.6,7.3 222,6.7 222.4,6.2 
			222.8,5.6 223.3,5.1 223.8,4.6 224.2,4.1 224.8,3.6 225.3,3.2 225.9,2.8 226.5,2.4 227.1,2 227.8,1.6 228.4,1.4 229.1,1.1 
			229.8,0.9 230.5,0.6 231.2,0.4 231.9,0.3 232.6,0.1 233.4,0 234.2,0 235,0 235.8,0 236.5,0 237.3,0.1 238,0.3 238.8,0.4 
			239.5,0.6 240.2,0.9 240.9,1.1 241.5,1.4 242.2,1.6 242.8,2 243.5,2.4 244,2.8 244.6,3.2 245.2,3.6 245.7,4.1 246.2,4.6 
			246.6,5.1 247.1,5.6 247.5,6.2 248,6.7 248.3,7.3 248.6,7.9 248.9,8.5 249.2,9.2 249.4,9.8 249.7,10.5 249.8,11.2 249.9,11.9 
			250,12.5 250.1,13.3 		"/>
		<polygon class="st0" points="285.7,60.5 285.7,61.2 285.6,61.9 285.5,62.6 285.4,63.3 285.2,64 285,64.6 284.8,65.3 284.5,65.9 
			284.2,66.5 283.8,67.1 283.5,67.7 283.1,68.2 282.7,68.8 282.3,69.3 281.8,69.8 281.3,70.3 280.7,70.8 280.2,71.2 279.6,71.6 
			279,72 278.4,72.4 277.8,72.7 277.1,73 276.4,73.3 275.8,73.6 275,73.8 274.3,73.9 273.6,74.1 272.8,74.3 272,74.3 271.3,74.4 
			270.5,74.4 269.7,74.4 269,74.3 268.2,74.3 267.5,74.1 266.7,73.9 266,73.8 265.3,73.6 264.6,73.3 264,73 263.3,72.7 262.7,72.4 
			262,72 261.5,71.6 260.9,71.2 260.3,70.8 259.8,70.3 259.3,69.8 258.8,69.3 258.4,68.8 257.9,68.2 257.6,67.7 257.2,67.1 
			256.8,66.5 256.5,65.9 256.2,65.3 256,64.6 255.9,64 255.6,63.3 255.5,62.6 255.4,61.9 255.4,61.2 255.4,60.5 255.4,59.8 
			255.4,59.1 255.5,58.4 255.6,57.7 255.9,57 256,56.3 256.2,55.7 256.5,55 256.8,54.4 257.2,53.9 257.6,53.3 257.9,52.7 
			258.4,52.2 258.8,51.7 259.3,51.2 259.8,50.7 260.3,50.2 260.9,49.7 261.5,49.3 262,49 262.7,48.6 263.3,48.2 264,47.9 
			264.6,47.7 265.3,47.4 266,47.2 266.7,47 267.5,46.8 268.2,46.7 269,46.6 269.7,46.6 270.5,46.6 271.3,46.6 272,46.6 272.8,46.7 
			273.6,46.8 274.3,47 275,47.2 275.8,47.4 276.4,47.7 277.1,47.9 277.8,48.2 278.4,48.6 279,49 279.6,49.3 280.2,49.7 280.7,50.2 
			281.3,50.7 281.8,51.2 282.3,51.7 282.7,52.2 283.1,52.7 283.5,53.3 283.8,53.9 284.2,54.4 284.5,55 284.8,55.7 285,56.3 
			285.2,57 285.4,57.7 285.5,58.4 285.6,59.1 285.7,59.8 		"/>
		<polygon class="st0" points="254.6,4.9 285.4,10.3 285.2,11.2 284.8,13.6 284.5,15.3 284.1,17.1 283.6,19.1 283.1,21.3 
			282.5,23.6 281.8,25.8 281.4,26.9 281,28 280.6,29.1 280.1,30.3 279.6,31.3 279.2,32.3 278.6,33.2 278.1,34.2 277.6,35 277,35.8 
			276.4,36.6 275.7,37.2 275.1,37.8 274.5,38.3 273.8,38.8 273.1,39.3 272.5,39.8 271.8,40.1 271.1,40.5 270.4,40.8 269,41.4 
			267.7,41.9 266.2,42.4 264.9,42.9 263.5,43.4 262.1,43.9 260.7,44.4 259.3,45.1 258.5,45.4 257.9,45.8 257.2,46.3 256.5,46.7 
			255.9,47.2 255.2,47.7 254.5,48.3 253.8,49 253.2,49.6 252.7,50.4 252.1,51.1 251.6,51.9 251.2,52.7 250.8,53.5 250.5,54.3 
			250.2,55.2 249.9,56 249.7,56.9 249.5,57.8 249.4,58.7 249.3,59.5 249.2,60.3 249,61.2 249,62 249,63.6 249,65 249,66.3 
			249.1,67.5 249.3,69.2 249.4,69.7 218.8,64.6 218.8,64.4 218.9,63.6 219.1,62.5 219.5,60.9 219.9,59 220.3,56.9 220.9,54.6 
			221.7,52.2 222,51 222.5,49.7 222.9,48.5 223.4,47.3 223.9,46 224.4,44.8 225,43.6 225.6,42.5 226.2,41.4 226.8,40.4 227.6,39.4 
			228.3,38.4 229,37.6 229.8,36.8 230.6,36.2 231.5,35.6 232.3,35.1 233.1,34.6 233.9,34.2 234.7,33.8 236.3,33 237.9,32.4 
			240.9,31.1 243.8,29.9 245.3,29.2 246.5,28.5 247.2,28.1 247.8,27.7 248.4,27.2 249,26.7 249.6,26.2 250.1,25.7 250.7,25.1 
			251.2,24.4 251.7,23.8 252.2,23.1 252.6,22.3 253,21.5 253.4,20.7 253.8,19.9 254.1,19 254.4,18.2 254.6,17.4 254.8,16.7 
			255,15.9 255.1,15.1 255.4,13.7 255.4,12.4 255.5,11 255.4,9.9 255.4,8.8 255.3,7.8 255.1,7 255,6.2 254.8,5.2 		"/>
		<polygon class="st0" points="0.8,101.3 13.8,101.3 13.8,102.7 1.9,116.6 14,116.6 14,118 0,118 0,116.5 11.9,102.6 0.8,102.6 		
			"/>
		<path class="st0" d="M15.7,109.6l0.1-0.5l0.1-0.5l0.1-0.5l0.2-0.4l0.2-0.3l0.3-0.3l0.3-0.3l0.4-0.3l0.3-0.2L18,106l0.5-0.2
			l0.4-0.2l0.5-0.1h0.5h0.5H21h0.9l0.8,0.1l0.4,0.1l0.4,0.2l0.4,0.2l0.4,0.2l0.3,0.2l0.3,0.3l0.3,0.3l0.3,0.4l0.2,0.4l0.1,0.5
			l0.1,0.6v0.6v6.5v0.2l0.1,0.2l0.1,0.1l0.1,0.1l0.2,0.1l0.2,0.1h0.2l0.3-0.1h0.3v1.3h-0.5h-0.5h-0.3h-0.3h-0.2l-0.2-0.1l-0.1-0.1
			l-0.1-0.1l-0.1-0.1l-0.1-0.1l-0.2-0.3l-0.1-0.3l-0.1-0.4v-0.5l0,0l-0.4,0.6l-0.5,0.5l-0.5,0.4l-0.5,0.3l-0.3,0.2l-0.3,0.1
			l-0.3,0.1l-0.4,0.1l-0.3,0.1h-0.4l-0.4,0.1h-0.9l-0.4-0.1l-0.5-0.1l-0.4-0.1l-0.3-0.1l-0.4-0.1l-0.3-0.2l-0.3-0.2l-0.3-0.3
			l-0.2-0.2l-0.2-0.3l-0.2-0.3l-0.2-0.3l-0.1-0.4v-0.4V115v-0.6l0.1-0.5l0.2-0.5l0.3-0.4l0.3-0.3l0.4-0.3l0.5-0.3l0.5-0.2l0.5-0.2
			l0.5-0.2l0.6-0.1l0.6-0.1l1.3-0.2l1.3-0.2h0.5l0.4-0.1l0.3-0.1l0.3-0.2l0.1-0.1l0.1-0.1l0.1-0.1l0.1-0.1l0.1-0.4v-0.8v-0.3
			l-0.1-0.3l-0.3-0.2l-0.1-0.2l-0.2-0.2l-0.2-0.2l-0.2-0.2l-0.2-0.1l-0.3-0.1l-0.3-0.1h-0.3l-0.6-0.1h-0.7h-0.4H20l-0.3,0.1
			l-0.3,0.1l-0.3,0.1l-0.3,0.1l-0.3,0.1l-0.3,0.2l-0.2,0.2l-0.2,0.2l-0.2,0.3l-0.2,0.2l-0.1,0.3l-0.1,0.3v0.3v0.4L15.7,109.6z
			 M24.2,111.3L24.2,111.3l-0.1,0.1l-0.2,0.2l-0.2,0.1h-0.2l-0.4,0.1h-0.4l-1,0.2l-1,0.1l-1,0.2l-1,0.3l-0.4,0.1l-0.4,0.2l-0.3,0.2
			l-0.3,0.2l-0.3,0.3l-0.2,0.3l-0.1,0.4v0.7v0.3l0.1,0.2l0.1,0.2l0.1,0.2l0.1,0.2l0.2,0.2l0.2,0.2l0.3,0.2l0.2,0.2l0.2,0.1l0.3,0.1
			l0.3,0.1h0.3h0.3h0.8h0.4l0.5-0.1l0.4-0.1l0.4-0.2l0.3-0.2l0.4-0.2l0.3-0.3l0.3-0.2l0.3-0.3l0.3-0.3L24,115l0.2-0.4l0.1-0.3
			l0.1-0.4v-2.4L24.2,111.3z"/>
		<polygon class="st0" points="27.5,105.8 29.2,105.8 33.3,116.4 33.4,116.4 37.5,105.8 39.1,105.8 34.2,118 32.5,118 		"/>
		<path class="st0" d="M52.4,111.9v0.7l-0.1,0.6l-0.2,0.6l-0.2,0.6l-0.2,0.5l-0.3,0.5l-0.3,0.5l-0.4,0.5l-0.5,0.4l-0.5,0.3l-0.5,0.3
			l-0.5,0.3l-0.6,0.2l-0.7,0.2l-0.7,0.1l-0.7,0.1l-0.7-0.1l-0.7-0.1l-0.6-0.2l-0.6-0.2l-0.5-0.3l-0.5-0.3l-0.4-0.3l-0.5-0.4
			l-0.4-0.5l-0.3-0.5l-0.3-0.5l-0.2-0.5l-0.2-0.6l-0.1-0.6l-0.1-0.6v-1.3l0.1-0.6l0.1-0.6l0.2-0.6l0.2-0.6l0.3-0.5l0.3-0.5l0.4-0.5
			L42,107l0.4-0.4l0.5-0.3l0.5-0.3l0.6-0.2l0.6-0.2l0.7-0.1H46h0.7l0.7,0.1l0.7,0.2l0.6,0.2l0.5,0.3l0.5,0.3l0.5,0.4l0.5,0.4
			l0.4,0.5l0.3,0.5l0.3,0.5l0.2,0.6l0.2,0.6l0.2,0.6l0.1,0.6V111.9z M41.6,111.9v0.5v0.5l0.1,0.5l0.1,0.5l0.2,0.5l0.2,0.4l0.2,0.4
			l0.3,0.4l0.3,0.3l0.3,0.3l0.4,0.3l0.4,0.2l0.5,0.2L45,117l0.5,0.1h1.1l0.5-0.1l0.5-0.2l0.4-0.2l0.4-0.2l0.4-0.3l0.3-0.3l0.3-0.3
			l0.3-0.4l0.3-0.4l0.2-0.4l0.2-0.5l0.1-0.5l0.1-0.5v-0.5v-0.5v-0.5v-0.5l-0.1-0.4l-0.1-0.5l-0.2-0.5L50,109l-0.3-0.4l-0.3-0.3
			l-0.3-0.3l-0.3-0.3l-0.4-0.3l-0.4-0.2l-0.4-0.2l-0.5-0.1l-0.5-0.1h-0.5h-0.5l-0.5,0.1l-0.5,0.1l-0.5,0.2l-0.4,0.2l-0.4,0.3L43,108
			l-0.3,0.3l-0.3,0.3l-0.2,0.4l-0.2,0.4l-0.2,0.5l-0.1,0.5l-0.1,0.4v0.5L41.6,111.9z"/>
		<path class="st0" d="M66.2,118h-1.5v-2.3l0,0l-0.1,0.3l-0.2,0.3l-0.2,0.3l-0.2,0.3l-0.3,0.2l-0.3,0.2l-0.3,0.2l-0.3,0.2l-0.3,0.2
			l-0.4,0.1l-0.3,0.1l-0.3,0.1l-0.4,0.1h-0.3l-0.4,0.1h-0.3l-0.8-0.1l-0.7-0.1L58,118l-0.6-0.2l-0.5-0.3l-0.5-0.3l-0.5-0.3l-0.3-0.4
			l-0.4-0.4l-0.3-0.5l-0.3-0.5l-0.2-0.5l-0.2-0.6l-0.1-0.6v-0.6v-0.7v-0.7v-0.6l0.1-0.6l0.2-0.6l0.2-0.5l0.3-0.5l0.3-0.5l0.4-0.5
			L56,107l0.5-0.4l0.5-0.3l0.5-0.3l0.6-0.2l0.6-0.2l0.7-0.1H60h0.3h0.4l0.3,0.1h0.4l0.3,0.2l0.3,0.1l0.3,0.2l0.3,0.1l0.3,0.2
			l0.3,0.2l0.3,0.2l0.3,0.2l0.2,0.3l0.2,0.3l0.1,0.3l0.2,0.3h0.1v-6.9h1.6L66.2,118z M60,117.1h0.6l0.6-0.1l0.5-0.2l0.4-0.2l0.5-0.2
			l0.4-0.3l0.3-0.3l0.3-0.4l0.2-0.4l0.3-0.4l0.2-0.4l0.1-0.5l0.1-0.4l0.1-0.5v-0.5V112v-0.5V111l-0.1-0.4l-0.1-0.5l-0.1-0.5
			l-0.2-0.4l-0.3-0.4l-0.2-0.3l-0.3-0.3l-0.3-0.3l-0.4-0.2l-0.5-0.3l-0.4-0.2l-0.5-0.1l-0.6-0.1H60h-0.5l-0.5,0l-0.5,0.1l-0.4,0.2
			l-0.4,0.3l-0.3,0.2l-0.3,0.3l-0.3,0.3l-0.3,0.3l-0.2,0.4l-0.2,0.4l-0.2,0.5l-0.1,0.5l-0.1,0.4v0.5v1v0.5l0.1,0.5l0.1,0.4l0.2,0.5
			l0.2,0.4l0.2,0.4l0.3,0.4l0.3,0.4l0.3,0.3l0.3,0.3l0.4,0.2l0.4,0.2L59,117l0.5,0.1H60z"/>
		<path class="st0" d="M76.7,101.3h8.2h0.5H86l0.5,0.1l0.5,0.1l0.4,0.2l0.5,0.2l0.5,0.2l0.4,0.2l0.3,0.3l0.3,0.3l0.3,0.4l0.3,0.3
			l0.2,0.4l0.1,0.5l0.1,0.5v0.5v0.5v0.4l-0.1,0.3l-0.1,0.3l-0.1,0.3l-0.1,0.3l-0.2,0.3l-0.2,0.3l-0.2,0.3l-0.3,0.2l-0.3,0.2
			l-0.3,0.2l-0.4,0.2l-0.3,0.2l-0.4,0.1l-0.4,0.1l0,0l0.4,0.1l0.4,0.1l0.3,0.1l0.3,0.2l0.3,0.2l0.3,0.2l0.2,0.2l0.2,0.2l0.2,0.2
			l0.1,0.3l0.1,0.3l0.1,0.3l0.2,0.7l0.1,0.8v1l0.1,1.2l0.1,0.6l0.1,0.5l0.1,0.3l0.1,0.2l0.1,0.2l0.1,0.2H89l-0.1-0.3l-0.1-0.3V117
			l-0.1-0.4v-0.7v-0.6l-0.1-0.9l-0.1-0.8l-0.1-0.4l-0.1-0.4l-0.1-0.4l-0.1-0.4l-0.2-0.3l-0.3-0.3l-0.3-0.2L87,111l-0.4-0.2l-0.5-0.1
			h-0.4h-7.2v7.5h-1.7v-16.9H76.7z M78.4,109.2h6.8h0.4l0.3-0.1l0.4-0.1l0.4-0.2l0.3-0.2l0.3-0.2l0.3-0.2l0.3-0.2l0.2-0.3l0.2-0.2
			l0.2-0.3l0.1-0.3l0.1-0.3v-0.3l0.1-0.4l-0.1-0.4v-0.4v-0.3l-0.1-0.3l-0.1-0.3l-0.2-0.3l-0.2-0.2l-0.2-0.3l-0.3-0.2l-0.2-0.2
			l-0.3-0.1l-0.4-0.1l-0.3-0.1l-0.5-0.1h-0.4h-6.9v6.6H78.4z"/>
		<path class="st0" d="M94.1,112.3v0.4v0.4l0.1,0.4l0.1,0.4l0.2,0.4l0.2,0.4l0.2,0.3l0.3,0.4l0.3,0.3l0.3,0.3l0.3,0.3l0.4,0.2
			l0.5,0.2l0.4,0.2l0.5,0.1h1h0.4l0.4-0.1l0.3-0.1l0.3-0.1l0.3-0.2l0.3-0.2l0.3-0.2l0.2-0.2l0.2-0.2l0.3-0.3l0.2-0.2l0.1-0.3
			l0.2-0.3l0.1-0.3l0.1-0.3h1.6l-0.1,0.5l-0.2,0.5l-0.2,0.4l-0.2,0.4l-0.3,0.4l-0.3,0.3l-0.3,0.3l-0.3,0.3l-0.4,0.3l-0.4,0.2
			l-0.5,0.2l-0.4,0.2l-0.5,0.1l-0.5,0.1l-0.5,0.1h-0.6l-0.8-0.1l-0.7-0.1l-0.6-0.2l-0.6-0.2l-0.5-0.3l-0.5-0.3l-0.4-0.3l-0.4-0.4
			l-0.3-0.5l-0.3-0.5l-0.3-0.5l-0.2-0.5l-0.1-0.6l-0.2-0.6v-0.6v-0.7v-0.6v-0.6l0.2-0.6l0.1-0.5l0.2-0.6l0.3-0.5l0.3-0.5l0.3-0.5
			l0.4-0.4l0.4-0.4l0.5-0.3l0.5-0.3l0.6-0.2l0.6-0.2l0.7-0.1h0.8h0.8l0.7,0.1l0.6,0.2l0.6,0.2l0.5,0.3l0.5,0.3l0.5,0.4l0.4,0.5
			l0.3,0.5l0.3,0.5l0.2,0.5l0.2,0.6l0.2,0.6l0.1,0.7v0.6v0.6L94.1,112.3z M102.6,111.1v-0.4l-0.1-0.4l-0.1-0.4l-0.2-0.3l-0.1-0.4
			l-0.2-0.4l-0.3-0.3l-0.3-0.3l-0.3-0.3l-0.3-0.2l-0.3-0.3l-0.3-0.2l-0.4-0.2l-0.4-0.1l-0.4-0.1h-0.5H98l-0.5,0.1L97,107l-0.3,0.2
			l-0.4,0.2l-0.4,0.3l-0.3,0.2l-0.3,0.3l-0.3,0.3l-0.3,0.3l-0.2,0.3l-0.2,0.4l-0.1,0.3l-0.2,0.4l-0.1,0.4v0.4L102.6,111.1
			L102.6,111.1z"/>
		<path class="st0" d="M106.3,105.9h1.4v2.3l0,0l0.2-0.3l0.1-0.3l0.2-0.3l0.3-0.2l0.2-0.3l0.3-0.2l0.3-0.2l0.3-0.2l0.3-0.2l0.4-0.1
			l0.3-0.1l0.4-0.1l0.4-0.1l0.3-0.1h0.4h0.4h0.7l0.7,0.1l0.6,0.2l0.5,0.2l0.5,0.3l0.5,0.3l0.4,0.4l0.4,0.4l0.3,0.5l0.3,0.5l0.3,0.5
			l0.2,0.5l0.2,0.6l0.1,0.6l0.1,0.6v1.3l-0.1,0.6l-0.1,0.6l-0.2,0.6l-0.2,0.5l-0.3,0.5l-0.3,0.5l-0.3,0.5l-0.4,0.4L116,117l-0.5,0.3
			l-0.5,0.3l-0.5,0.2l-0.6,0.2l-0.7,0.1l-0.7,0.1h-0.4l-0.4-0.1h-0.3L111,118l-0.3-0.1l-0.4-0.1l-0.3-0.1l-0.3-0.2l-0.3-0.2
			l-0.3-0.2l-0.3-0.2l-0.3-0.2l-0.3-0.3l-0.2-0.2l-0.2-0.3l-0.1-0.3l0,0v6.7h-1.6L106.3,105.9z M112.5,106.7h-0.6l-0.6,0.1l-0.5,0.1
			l-0.5,0.2l-0.5,0.2l-0.4,0.3l-0.3,0.3l-0.3,0.3l-0.2,0.4l-0.3,0.4l-0.1,0.4l-0.1,0.5l-0.1,0.4l-0.1,0.5v0.5v1v0.5l0.1,0.5l0.1,0.4
			l0.2,0.5l0.1,0.4l0.3,0.4l0.3,0.4l0.3,0.4l0.3,0.3l0.4,0.3l0.4,0.2l0.5,0.2l0.5,0.2l0.5,0.1h1.1l0.5-0.1l0.5-0.2l0.4-0.2l0.4-0.2
			l0.3-0.3l0.3-0.3l0.3-0.4l0.3-0.3l0.2-0.4l0.2-0.4l0.1-0.5l0.1-0.4v-0.5v-0.5v-0.5v-0.5v-0.5v-0.4l-0.1-0.5l-0.1-0.5l-0.2-0.4
			l-0.2-0.4l-0.2-0.3l-0.3-0.3l-0.3-0.3l-0.3-0.2l-0.4-0.3L114,107l-0.5-0.1l-0.5-0.1L112.5,106.7z"/>
		<polygon class="st0" points="131.4,118 129.9,118 129.9,115.8 129.9,115.8 129.7,116.1 129.5,116.3 129.4,116.6 129.1,116.8 
			128.9,117.1 128.6,117.3 128.3,117.5 128,117.6 127.8,117.8 127.4,117.9 127.1,118.1 126.8,118.1 126.4,118.2 126.1,118.2 
			125.7,118.3 125.4,118.3 124.8,118.3 124.2,118.2 123.7,118.1 123.2,118 122.8,117.8 122.4,117.6 122.1,117.3 121.8,117.1 
			121.6,116.8 121.3,116.4 121.1,116 121,115.6 120.9,115.2 120.8,114.7 120.8,114.2 120.7,113.7 120.7,105.8 122.3,105.8 
			122.3,113.8 122.3,114.1 122.4,114.5 122.5,114.8 122.6,115.2 122.7,115.4 122.8,115.8 123,116 123.2,116.2 123.4,116.4 
			123.7,116.6 123.9,116.7 124.3,116.8 124.6,117 125,117 125.4,117 125.8,117 126.3,117 126.8,117 127.3,116.8 127.7,116.7 
			128,116.4 128.3,116.2 128.6,115.9 128.9,115.5 129.1,115.2 129.3,114.8 129.5,114.4 129.6,114 129.7,113.6 129.7,113.1 
			129.8,112.7 129.8,112.2 129.8,105.8 131.4,105.8 		"/>
		<path class="st0" d="M134.4,101.3h1.5v6.9h0.1l0.1-0.3l0.2-0.3l0.2-0.3l0.3-0.2l0.2-0.2l0.3-0.2l0.3-0.2l0.3-0.2l0.3-0.1l0.3-0.2
			l0.3-0.1l0.3-0.2h0.4l0.3-0.1h0.4h0.4h0.7l0.7,0.1l0.6,0.2l0.5,0.2l0.5,0.3l0.5,0.3l0.5,0.4l0.3,0.4l0.4,0.5l0.3,0.5l0.3,0.5
			l0.2,0.5l0.2,0.6l0.1,0.6l0.1,0.6v1.3l-0.1,0.6l-0.1,0.6l-0.2,0.6l-0.2,0.5l-0.3,0.5l-0.3,0.5l-0.4,0.5l-0.3,0.4l-0.5,0.3
			l-0.5,0.3l-0.5,0.3l-0.5,0.2l-0.6,0.2l-0.7,0.1l-0.7,0.1h-0.4l-0.4-0.1h-0.3l-0.4-0.1l-0.4-0.1l-0.3-0.1l-0.4-0.2l-0.3-0.2
			l-0.3-0.2l-0.3-0.2l-0.3-0.2l-0.2-0.2l-0.3-0.3l-0.2-0.2L136,116l-0.2-0.3l0,0v2.2h-1.4L134.4,101.3L134.4,101.3z M140.6,106.8
			h-0.7l-0.5,0.1l-0.5,0.1l-0.5,0.2l-0.4,0.3l-0.4,0.2l-0.3,0.3l-0.3,0.3l-0.3,0.3l-0.2,0.4l-0.2,0.4l-0.2,0.5l-0.1,0.5l0,0.6
			l-0.1,0.5v1l0.1,0.5l0.1,0.5l0.1,0.4l0.2,0.5l0.2,0.4l0.2,0.4l0.3,0.4l0.3,0.4l0.3,0.3l0.4,0.3l0.4,0.2l0.5,0.2l0.5,0.2l0.5,0.1
			h1.2l0.5-0.1l0.5-0.2l0.4-0.2l0.4-0.2l0.3-0.3l0.3-0.3l0.3-0.4l0.3-0.4l0.2-0.4l0.1-0.4l0.2-0.5l0.1-0.4l0.1-0.5v-0.5v-1V111
			l-0.1-0.4l-0.1-0.5l-0.2-0.5l-0.1-0.4l-0.2-0.4l-0.3-0.3l-0.3-0.3l-0.3-0.3l-0.3-0.2l-0.4-0.3l-0.4-0.2l-0.5-0.1l-0.5-0.1
			L140.6,106.8z"/>
		<rect x="148.9" y="101.3" class="st0" width="1.6" height="16.7"/>
		<path class="st0" d="M153.6,101.3h1.6v2.3h-1.6V101.3z M153.6,105.9h1.6v12h-1.6V105.9z"/>
		<polygon class="st0" points="158.3,101.3 159.9,101.3 159.9,111.7 167.1,105.9 169.1,105.9 163.7,110.3 169.6,118 167.6,118 
			162.4,111.4 159.9,113.4 159.9,118 158.3,118 		"/>
		<path class="st0" d="M171.8,112.3v0.4v0.4l0.1,0.4l0.1,0.4l0.1,0.4l0.2,0.4l0.3,0.3l0.2,0.4l0.3,0.3l0.3,0.3l0.4,0.3l0.4,0.2
			l0.4,0.2l0.5,0.2l0.5,0.1h1h0.3l0.4-0.1l0.4-0.1l0.3-0.1l0.3-0.2l0.3-0.2l0.3-0.2l0.2-0.2l0.2-0.2l0.3-0.3l0.2-0.2l0.1-0.3
			l0.2-0.3l0.1-0.3l0.1-0.3h1.6l-0.1,0.5l-0.2,0.5l-0.2,0.4l-0.2,0.4l-0.3,0.4l-0.3,0.3l-0.3,0.3l-0.3,0.3l-0.4,0.3l-0.4,0.2
			l-0.4,0.2l-0.5,0.2l-0.5,0.1l-0.6,0.1l-0.6,0.1H176l-0.8-0.1l-0.7-0.1L174,118l-0.6-0.2l-0.6-0.3l-0.5-0.3l-0.4-0.3l-0.4-0.4
			l-0.3-0.5l-0.3-0.5l-0.3-0.5l-0.2-0.5l-0.2-0.6l-0.1-0.6v-0.6V112v-0.6v-0.6l0.1-0.6l0.2-0.5l0.2-0.6l0.3-0.5l0.3-0.5l0.3-0.5
			l0.4-0.4l0.4-0.4l0.5-0.3l0.6-0.3l0.6-0.2l0.6-0.2l0.7-0.1h0.8h0.8l0.7,0.1l0.7,0.2l0.6,0.2l0.5,0.3l0.5,0.3l0.4,0.4l0.4,0.5
			l0.3,0.5l0.3,0.5l0.2,0.5l0.2,0.6l0.1,0.6l0.1,0.7v0.6v0.6L171.8,112.3z M180.3,111.1v-0.4l-0.1-0.4l-0.1-0.4l-0.1-0.3l-0.2-0.4
			l-0.2-0.4l-0.2-0.3l-0.3-0.3l-0.3-0.3l-0.3-0.2l-0.4-0.3l-0.3-0.2l-0.4-0.2l-0.5-0.1l-0.4-0.1H176h-0.5l-0.5,0.1l-0.5,0.1
			l-0.4,0.2l-0.4,0.2l-0.3,0.3l-0.3,0.2l-0.3,0.3l-0.3,0.3l-0.2,0.3l-0.2,0.3l-0.2,0.4l-0.1,0.3l-0.2,0.4l-0.1,0.4v0.4L180.3,111.1
			L180.3,111.1z"/>
		<polygon class="st0" points="192.1,112.5 192.2,113.1 192.2,113.7 192.4,114.2 192.6,114.6 192.8,115 193.1,115.4 193.5,115.7 
			193.8,116 194.3,116.2 194.7,116.4 195.2,116.6 195.7,116.7 196.3,116.9 196.8,116.9 197.4,116.9 198,117 198.4,116.9 
			198.8,116.9 199.2,116.9 199.6,116.8 200,116.6 200.3,116.5 200.8,116.4 201.1,116.2 201.5,116 201.8,115.7 202,115.4 
			202.3,115.1 202.5,114.8 202.7,114.4 202.7,114 202.7,113.6 202.7,113.2 202.7,112.9 202.6,112.6 202.4,112.3 202.2,112.1 
			202,111.9 201.8,111.7 201.5,111.5 201,111.2 200.4,110.9 199.7,110.7 199.1,110.6 195,109.7 194.3,109.5 193.6,109.2 193.2,109 
			192.9,108.8 192.6,108.7 192.3,108.4 192,108.2 191.8,107.9 191.5,107.6 191.4,107.3 191.2,106.9 191.1,106.5 191,106.1 
			191,105.6 191,105.3 191.1,105 191.2,104.6 191.3,104.2 191.4,103.8 191.6,103.4 191.9,103 192.2,102.7 192.6,102.3 193.1,102 
			193.6,101.7 194.1,101.4 194.8,101.2 195.5,101 196.3,101 197.2,100.9 197.9,100.9 198.6,101 199.2,101.1 199.8,101.3 
			200.3,101.4 200.9,101.7 201.4,101.9 201.9,102.2 202.3,102.6 202.7,103 203,103.4 203.3,103.8 203.6,104.4 203.7,104.9 
			203.8,105.5 203.9,106.1 202.1,106.1 202.1,105.7 202,105.2 201.9,104.8 201.7,104.5 201.5,104.1 201.3,103.8 200.9,103.5 
			200.6,103.3 200.3,103 199.9,102.8 199.5,102.7 199.1,102.5 198.6,102.4 198.2,102.3 197.7,102.3 197.2,102.3 196.8,102.3 
			196.4,102.3 195.9,102.4 195.5,102.5 195.2,102.5 194.8,102.7 194.4,102.8 194.1,103 193.8,103.2 193.6,103.5 193.3,103.7 
			193.1,104 193,104.4 192.8,104.7 192.8,105.2 192.7,105.6 192.7,105.9 192.8,106.2 192.9,106.4 193,106.6 193.1,106.8 193.2,107 
			193.3,107.2 193.6,107.3 193.9,107.6 194.4,107.8 194.9,108 195.4,108.2 199.8,109.2 200.8,109.4 201.6,109.7 202,109.9 
			202.4,110.1 202.8,110.3 203.1,110.6 203.4,110.8 203.7,111.1 203.9,111.4 204.1,111.8 204.3,112.2 204.4,112.6 204.4,113.1 
			204.5,113.6 204.4,114.1 204.3,114.8 204.2,115.1 204,115.6 203.7,116 203.4,116.4 203.1,116.7 202.6,117.1 202,117.4 
			201.4,117.7 201,117.9 200.6,118 200.2,118.1 199.8,118.1 199.3,118.2 198.7,118.2 198.2,118.3 197.6,118.3 196.9,118.3 
			196.1,118.2 195.4,118.1 194.7,118 194,117.8 193.5,117.6 192.9,117.3 192.4,116.9 191.9,116.5 191.5,116.1 191.2,115.6 
			190.9,115.1 190.7,114.5 190.5,113.9 190.4,113.2 190.4,112.5 		"/>
		<rect x="207" y="101.3" class="st0" width="1.6" height="16.7"/>
		<path class="st0" d="M223.3,111.9v0.7v0.6l-0.2,0.6l-0.2,0.6l-0.2,0.5l-0.3,0.5l-0.3,0.5l-0.4,0.5l-0.5,0.4l-0.5,0.3l-0.5,0.3
			l-0.5,0.3l-0.6,0.2l-0.6,0.2l-0.7,0.1l-0.7,0.1l-0.8-0.1l-0.7-0.1l-0.7-0.2l-0.6-0.2l-0.6-0.3l-0.5-0.3l-0.5-0.3l-0.4-0.4
			l-0.4-0.5l-0.3-0.5l-0.3-0.5l-0.2-0.5l-0.2-0.6l-0.1-0.6l-0.1-0.6v-1.3l0.1-0.6l0.1-0.6l0.2-0.6l0.2-0.6l0.3-0.5l0.3-0.5l0.4-0.5
			l0.4-0.4l0.5-0.4l0.5-0.3l0.6-0.3l0.6-0.2l0.7-0.2l0.7-0.1h0.8h0.7l0.7,0.1l0.6,0.2l0.6,0.2l0.5,0.3l0.5,0.3l0.5,0.4l0.5,0.4
			l0.4,0.5l0.3,0.5l0.3,0.5l0.2,0.6l0.2,0.6l0.2,0.6v0.6V111.9z M212.6,111.9v0.5l0.1,0.5l0.1,0.5l0.1,0.5l0.2,0.5l0.2,0.4l0.3,0.4
			l0.3,0.4l0.3,0.3l0.4,0.3l0.3,0.3l0.4,0.2l0.5,0.2l0.5,0.2l0.6,0.1h1.1l0.6-0.1l0.4-0.2l0.5-0.2l0.4-0.2l0.4-0.3l0.3-0.3l0.3-0.3
			l0.3-0.4l0.3-0.4l0.2-0.4l0.1-0.5l0.2-0.5l0.1-0.5v-0.5v-0.5v-0.5v-0.5l-0.1-0.4l-0.2-0.5l-0.1-0.5l-0.2-0.4l-0.3-0.4l-0.3-0.3
			l-0.3-0.3l-0.3-0.3l-0.4-0.3l-0.4-0.2l-0.5-0.2l-0.4-0.1l-0.6-0.1h-0.5H217l-0.6,0.1l-0.5,0.1l-0.5,0.2l-0.4,0.2l-0.3,0.3L214,108
			l-0.3,0.3l-0.3,0.3l-0.3,0.4l-0.2,0.4l-0.2,0.5l-0.1,0.5l-0.1,0.4l-0.1,0.5L212.6,111.9z"/>
		<polygon class="st0" points="224.2,105.8 225.9,105.8 230,116.4 230.1,116.4 234.1,105.8 235.8,105.8 230.9,118 229.2,118 		"/>
		<path class="st0" d="M238.4,112.3v0.4l0.1,0.4l0.1,0.4l0.1,0.4l0.1,0.4l0.2,0.4l0.3,0.3l0.2,0.4l0.3,0.3l0.3,0.3l0.4,0.3l0.4,0.2
			l0.4,0.2l0.5,0.2l0.5,0.1h1h0.4l0.4-0.1l0.4-0.1l0.3-0.1l0.3-0.2l0.3-0.2l0.3-0.2l0.2-0.2l0.3-0.2l0.2-0.3l0.2-0.2l0.2-0.3
			l0.1-0.3l0.1-0.3l0.1-0.3h1.6l-0.2,0.5l-0.1,0.5l-0.2,0.4l-0.2,0.4l-0.3,0.4l-0.3,0.3l-0.3,0.3l-0.3,0.3l-0.4,0.3l-0.4,0.2
			l-0.4,0.2l-0.5,0.2l-0.5,0.1l-0.5,0.1l-0.6,0.1h-0.6l-0.8-0.1l-0.7-0.1l-0.6-0.2l-0.6-0.2l-0.5-0.3l-0.5-0.3l-0.4-0.3l-0.4-0.4
			l-0.3-0.5l-0.3-0.5l-0.2-0.5l-0.2-0.5l-0.2-0.6l-0.1-0.6v-0.6v-0.7v-0.6v-0.6l0.1-0.6l0.2-0.5l0.2-0.6l0.2-0.5l0.3-0.5l0.3-0.5
			l0.4-0.4l0.4-0.4l0.5-0.3l0.5-0.4l0.6-0.2l0.6-0.2l0.7-0.1h0.8h0.8l0.7,0.1l0.7,0.2l0.6,0.2l0.5,0.3l0.5,0.3l0.4,0.4l0.4,0.5
			l0.3,0.5l0.3,0.5l0.2,0.5l0.2,0.6l0.1,0.6l0.1,0.7v0.6v0.6L238.4,112.3z M246.8,111.1v-0.4l-0.1-0.4l-0.1-0.4l-0.1-0.3l-0.1-0.4
			l-0.3-0.4l-0.2-0.3l-0.3-0.3l-0.3-0.3l-0.3-0.2l-0.3-0.3l-0.4-0.2L244,107l-0.4-0.1l-0.5-0.1h-0.5h-0.5l-0.5,0.1l-0.4,0.1
			l-0.4,0.2l-0.4,0.2l-0.3,0.3l-0.3,0.2l-0.3,0.3l-0.3,0.3l-0.2,0.3l-0.2,0.3l-0.2,0.4l-0.1,0.3l-0.1,0.4l-0.1,0.4l-0.1,0.4
			L246.8,111.1z"/>
		<polygon class="st0" points="250.6,105.9 252.1,105.9 252.1,107.9 252.2,107.9 252.3,107.6 252.4,107.4 252.6,107.1 252.8,106.9 
			253,106.7 253.3,106.5 253.5,106.3 253.8,106.1 254.1,106 254.3,105.9 254.6,105.8 255,105.6 255.3,105.6 255.6,105.5 
			255.9,105.5 256.3,105.5 257,105.5 257.5,105.6 258.1,105.7 258.5,105.8 259,106 259.4,106.2 259.7,106.4 260,106.7 260.2,107.1 
			260.5,107.4 260.6,107.8 260.8,108.2 260.9,108.7 261,109.1 261,109.6 261,110.2 261,118 259.4,118 259.4,110.4 259.4,109.7 
			259.3,109 259.2,108.7 259.1,108.3 258.9,108.1 258.8,107.8 258.5,107.6 258.3,107.4 258.1,107.1 257.8,107 257.4,106.9 
			257,106.8 256.6,106.7 256.1,106.7 255.7,106.8 255.3,106.8 254.9,106.9 254.5,107.1 254.1,107.2 253.8,107.4 253.5,107.6 
			253.2,107.9 252.9,108.2 252.8,108.5 252.6,108.8 252.4,109.2 252.3,109.6 252.2,110 252.2,110.5 252.1,110.9 252.1,118 
			250.6,118 		"/>
		<path class="st0" d="M264.1,101.3h1.6v2.3h-1.6V101.3z M264.1,105.9h1.6v12h-1.6V105.9z"/>
		<path class="st0" d="M268.8,105.9h1.6V119v0.7l-0.1,0.7v0.3l-0.1,0.3l-0.1,0.2l-0.2,0.3l-0.2,0.2l-0.2,0.2l-0.3,0.2l-0.2,0.2
			l-0.3,0.1l-0.3,0.1l-0.4,0.1h-1h-0.6v-1.2h1.4l0.3-0.1l0.3-0.2l0.2-0.2l0.1-0.2v-0.3l0.1-0.3L268.8,105.9L268.8,105.9z
			 M268.8,101.3h1.6v2.3h-1.6V101.3z"/>
		<path class="st0" d="M274.4,112.3v0.4v0.4l0.1,0.4l0.1,0.4l0.1,0.4l0.2,0.4l0.3,0.3l0.2,0.4l0.3,0.3l0.3,0.3l0.4,0.3l0.4,0.2
			l0.4,0.2l0.5,0.2l0.5,0.1h1h0.4l0.4-0.1l0.4-0.1l0.3-0.1l0.3-0.2l0.3-0.2l0.3-0.2l0.2-0.2l0.3-0.2l0.2-0.3l0.2-0.2l0.2-0.3
			l0.1-0.3l0.1-0.3l0.1-0.3h1.6l-0.2,0.5l-0.1,0.5l-0.2,0.4l-0.2,0.4l-0.3,0.4l-0.3,0.3l-0.3,0.3l-0.4,0.3l-0.4,0.3l-0.4,0.2
			l-0.4,0.2l-0.5,0.2l-0.5,0.1l-0.5,0.1l-0.6,0.1h-0.6l-0.8-0.1l-0.7-0.1l-0.7-0.2l-0.6-0.2l-0.5-0.3l-0.5-0.3l-0.4-0.3l-0.4-0.4
			l-0.3-0.5l-0.3-0.5l-0.2-0.5l-0.2-0.5l-0.2-0.6l-0.1-0.6v-0.6v-0.7v-0.6v-0.6l0.1-0.6l0.2-0.5l0.2-0.6l0.2-0.5l0.3-0.5l0.3-0.5
			l0.4-0.4l0.4-0.4l0.5-0.3l0.6-0.4l0.6-0.2l0.7-0.2l0.7-0.1h0.8h0.8l0.7,0.1l0.7,0.2l0.6,0.2l0.5,0.3l0.5,0.3l0.4,0.4l0.4,0.5
			l0.3,0.5l0.3,0.5l0.3,0.5l0.2,0.6l0.1,0.6l0.1,0.7v0.6v0.6L274.4,112.3z M282.8,111.1v-0.4l-0.1-0.4l-0.1-0.4l-0.1-0.3l-0.1-0.4
			l-0.3-0.4l-0.2-0.3l-0.3-0.3l-0.3-0.3l-0.3-0.2l-0.3-0.3l-0.4-0.2L280,107l-0.5-0.1l-0.5-0.1h-0.5H278l-0.5,0.1l-0.4,0.1l-0.4,0.2
			l-0.4,0.2l-0.3,0.3l-0.3,0.2l-0.3,0.3l-0.3,0.3l-0.2,0.3l-0.2,0.3l-0.2,0.4l-0.1,0.3l-0.1,0.4l-0.1,0.4v0.4L282.8,111.1z"/>
		<polygon class="st0" points="115,144.5 124,144.5 124,145.8 113.2,145.8 113.2,144.6 121.6,135 113.7,135 113.7,133.8 
			123.6,133.8 123.6,134.8 		"/>
		<path class="st0" d="M125.7,137.5V137l0.1-0.5l0.1-0.5l0.2-0.4l0.3-0.4l0.3-0.3l0.3-0.3l0.3-0.2l0.4-0.3l0.4-0.2l0.4-0.2l0.5-0.1
			l0.5-0.1l0.5-0.1h0.5h0.5h0.8l0.9,0.1l0.5,0.1l0.3,0.1l0.4,0.2l0.4,0.2l0.3,0.2l0.3,0.3l0.3,0.3l0.3,0.4l0.2,0.4l0.1,0.5v0.5v0.6
			v6.6v0.1l0.1,0.2l0.1,0.1l0.1,0.1l0.2,0.1h0.2h0.6l0.3-0.1v1.3h-0.5h-0.5H136h-0.3h-0.2l-0.3-0.1l-0.2-0.1l-0.1-0.1l-0.2-0.1
			l-0.1-0.1l-0.2-0.4l-0.1-0.4V144v-0.5l0,0l-0.4,0.6l-0.5,0.5l-0.5,0.4l-0.5,0.4l-0.3,0.1l-0.3,0.1l-0.3,0.1l-0.4,0.1l-0.4,0.1
			h-0.4h-0.4H129h-0.4l-0.4-0.1l-0.4-0.1l-0.4-0.1l-0.3-0.1l-0.3-0.2l-0.3-0.2l-0.3-0.3l-0.2-0.2l-0.3-0.3l-0.2-0.3l-0.1-0.4
			l-0.2-0.4v-0.4v-0.5v-0.6l0.2-0.5l0.2-0.5l0.3-0.4l0.3-0.3l0.4-0.3l0.4-0.3l0.5-0.2l0.5-0.2l0.5-0.2l0.6-0.1l0.6-0.1l1.3-0.2
			l1.3-0.1h0.5l0.4-0.1l0.3-0.1l0.3-0.1l0.1-0.1l0.1-0.1l0.1-0.1l0.1-0.1l0.1-0.4v-0.4v-0.4v-0.3l-0.1-0.3l-0.1-0.3l-0.1-0.2
			l-0.2-0.2l-0.2-0.2l-0.2-0.2l-0.3-0.1l-0.3-0.1l-0.3-0.1h-0.3l-0.6-0.1H131h-0.3h-0.4H130l-0.3,0.1l-0.3,0.1l-0.3,0.1l-0.3,0.1
			l-0.2,0.2l-0.2,0.2l-0.2,0.2L128,136l-0.1,0.2l-0.2,0.3l-0.1,0.3v0.4v0.4L125.7,137.5z M134.2,139.2L134.2,139.2l-0.1,0.1
			l-0.1,0.1l-0.1,0.1h-0.3l-0.3,0.1h-0.4l-1.1,0.1l-1.1,0.2l-1,0.1l-0.9,0.3l-0.5,0.1l-0.4,0.1l-0.3,0.2l-0.3,0.2l-0.2,0.3l-0.2,0.4
			l-0.1,0.3v0.4v0.3v0.3l0.1,0.2l0.1,0.2l0.1,0.2l0.1,0.2l0.2,0.2l0.2,0.2l0.2,0.1l0.3,0.1l0.2,0.1l0.3,0.1h0.3l0.3,0.1h0.3h0.3h0.5
			h0.4l0.5-0.1l0.4-0.1l0.4-0.1l0.4-0.2l0.3-0.2l0.3-0.3l0.3-0.2l0.3-0.3l0.2-0.3l0.2-0.3l0.2-0.4l0.1-0.4v-0.4v-0.5L134.2,139.2z"
			/>
		<polygon class="st0" points="146.8,144.5 155.9,144.5 155.9,145.8 144.8,145.8 144.8,144.6 153.5,135 145.4,135 145.4,133.8 
			155.5,133.8 155.5,134.8 		"/>
		<path class="st0" d="M157.6,137.5V137l0.1-0.5l0.1-0.5l0.2-0.4l0.2-0.4l0.3-0.3l0.3-0.3l0.4-0.2l0.3-0.3l0.4-0.2l0.5-0.2l0.5-0.1
			l0.5-0.1l0.5-0.1h0.6h0.5h0.9l0.8,0.1l0.4,0.1l0.4,0.1l0.4,0.2l0.3,0.2l0.3,0.2l0.3,0.3l0.3,0.3l0.2,0.4l0.2,0.4l0.2,0.5l0.1,0.5
			v0.6v6.6v0.1l0.1,0.2l0.1,0.1l0.2,0.1l0.1,0.1h0.2h0.5l0.3-0.1v1.3h-0.5H168h-0.3h-0.2h-0.3l-0.2-0.1l-0.2-0.1l-0.2-0.1l-0.1-0.1
			l-0.1-0.1l-0.1-0.4l-0.1-0.4l-0.1-0.4v-0.5l0,0l-0.4,0.6l-0.4,0.5l-0.5,0.4l-0.5,0.4l-0.3,0.1l-0.3,0.1l-0.3,0.1L163,146l-0.4,0.1
			h-0.4h-0.4h-1h-0.4L160,146l-0.4-0.1l-0.4-0.1l-0.4-0.1l-0.3-0.2l-0.3-0.2l-0.3-0.3l-0.3-0.2l-0.2-0.3l-0.2-0.3l-0.2-0.4l-0.1-0.4
			V143v-0.5V142l0.1-0.5l0.2-0.5l0.3-0.4l0.3-0.3l0.3-0.3l0.5-0.3l0.5-0.2l0.5-0.2l0.5-0.2l0.6-0.1l0.6-0.1l1.3-0.2l1.3-0.1h0.5
			l0.4-0.1l0.4-0.1l0.3-0.1l0.1-0.1l0.2-0.1l0.1-0.1v0l0.1-0.4v-0.8v-0.3l-0.1-0.3l-0.1-0.3l-0.2-0.2l-0.2-0.2l-0.2-0.2l-0.3-0.2
			l-0.2-0.1l-0.3-0.1l-0.3-0.1H164l-0.6-0.1h-0.7h-0.4H162h-0.4l-0.3,0.1l-0.3,0.1l-0.3,0.1l-0.3,0.1l-0.2,0.2l-0.3,0.2l-0.2,0.2
			l-0.1,0.2l-0.2,0.2l-0.1,0.3l-0.1,0.3v0.4l-0.1,0.4L157.6,137.5z M166,139.2L166,139.2l-0.1,0.1l-0.1,0.1l-0.2,0.1h-0.2l-0.4,0.1
			h-0.4l-1,0.1l-1.1,0.2l-1,0.1l-1,0.3l-0.4,0.1l-0.4,0.1l-0.3,0.2l-0.3,0.2l-0.3,0.3l-0.2,0.4l-0.1,0.3v0.7v0.3l0.1,0.2l0.1,0.2
			l0.1,0.2l0.2,0.2l0.2,0.2l0.2,0.2l0.3,0.1l0.2,0.1l0.3,0.1l0.3,0.1h0.3l0.3,0.1h0.3h0.3h0.5h0.5l0.4-0.1l0.4-0.1l0.4-0.1l0.3-0.2
			l0.4-0.2l0.3-0.3l0.3-0.2l0.3-0.3l0.2-0.3l0.2-0.3l0.2-0.4l0.1-0.3l0.1-0.4L166,139.2L166,139.2z"/>
		<path class="st0" d="M170.9,133.8h1.4v2.3l0,0l0.1-0.3l0.2-0.3l0.2-0.3l0.3-0.2l0.2-0.3l0.3-0.2l0.3-0.2l0.3-0.2l0.3-0.1l0.3-0.1
			l0.3-0.1l0.4-0.1l0.3-0.1l0.4-0.1h0.4h0.4h0.7l0.7,0.1l0.6,0.1l0.6,0.3l0.5,0.2l0.5,0.3l0.4,0.4l0.4,0.4l0.3,0.4l0.3,0.5l0.3,0.5
			l0.2,0.6l0.2,0.6l0.1,0.6l0.1,0.6v1.2l-0.1,0.6l-0.1,0.6l-0.2,0.6l-0.2,0.5l-0.3,0.5l-0.3,0.5l-0.3,0.5l-0.4,0.4l-0.4,0.3
			l-0.5,0.3l-0.5,0.3l-0.6,0.2l-0.6,0.1l-0.7,0.1h-1.1h-0.4H176l-0.4-0.1l-0.4-0.1l-0.3-0.1l-0.3-0.1l-0.3-0.2l-0.3-0.1l-0.2-0.2
			l-0.3-0.2l-0.2-0.2l-0.3-0.3l-0.2-0.2l-0.2-0.4l-0.2-0.3l0,0v6.7h-1.6L170.9,133.8z M177.1,134.7h-0.7l-0.5,0.1l-0.5,0.1l-0.5,0.1
			l-0.4,0.3l-0.4,0.2l-0.3,0.3l-0.3,0.3l-0.2,0.4L173,137l-0.1,0.4l-0.1,0.4l-0.1,0.5l-0.1,0.5v0.5v1v0.5l0.1,0.5l0.1,0.5l0.1,0.4
			l0.2,0.4l0.3,0.4l0.3,0.4l0.3,0.4l0.3,0.3l0.4,0.3l0.4,0.2l0.4,0.2l0.5,0.1l0.5,0.1h0.7h0.5l0.4-0.1l0.5-0.1l0.5-0.2l0.4-0.2
			l0.3-0.3l0.3-0.3l0.3-0.4l0.3-0.4l0.2-0.4l0.2-0.4l0.2-0.4l0.1-0.5v-0.5v-0.5v-0.5v-0.5v-0.5v-0.4l-0.1-0.5l-0.2-0.4l-0.2-0.5
			l-0.2-0.4l-0.3-0.4L180,136l-0.3-0.3l-0.3-0.2l-0.4-0.3l-0.5-0.2l-0.5-0.1l-0.4-0.1L177.1,134.7z"/>
		<path class="st0" d="M197.2,139.8v0.6l-0.1,0.7l-0.1,0.6l-0.2,0.6l-0.2,0.5l-0.3,0.5l-0.3,0.5l-0.4,0.5l-0.4,0.4l-0.5,0.3
			l-0.5,0.4l-0.5,0.3l-0.6,0.2l-0.6,0.1l-0.8,0.1h-1.4l-0.7-0.1l-0.6-0.1l-0.6-0.2l-0.6-0.3l-0.4-0.4l-0.5-0.3l-0.4-0.4l-0.4-0.5
			l-0.3-0.5l-0.3-0.5l-0.2-0.5l-0.2-0.6l-0.2-0.6v-0.7v-0.6v-0.6v-0.6l0.2-0.6l0.2-0.6l0.2-0.6l0.3-0.5l0.3-0.5l0.4-0.4l0.4-0.4
			l0.5-0.4l0.4-0.3l0.6-0.2l0.6-0.3l0.6-0.1l0.7-0.1h0.7h0.7l0.8,0.1l0.6,0.1l0.6,0.3l0.5,0.2l0.5,0.3l0.5,0.4l0.4,0.4l0.4,0.4
			l0.3,0.5l0.3,0.5l0.2,0.6l0.2,0.6l0.1,0.6l0.1,0.6V139.8z M186.4,139.8v0.5v0.5l0.1,0.5l0.2,0.5l0.2,0.5l0.2,0.4l0.3,0.4l0.3,0.4
			l0.3,0.4l0.3,0.3l0.4,0.3l0.4,0.2l0.4,0.2l0.5,0.1l0.5,0.1h0.5h0.6l0.5-0.1l0.5-0.1l0.5-0.2l0.4-0.2l0.4-0.3l0.4-0.3l0.3-0.4
			l0.3-0.4l0.2-0.4l0.2-0.4l0.2-0.5l0.1-0.5l0.1-0.5v-0.5v-1v-0.5l-0.1-0.4l-0.1-0.5l-0.2-0.5l-0.2-0.4l-0.2-0.4l-0.3-0.4l-0.3-0.3
			l-0.4-0.4l-0.4-0.3l-0.4-0.2l-0.5-0.2l-0.5-0.1l-0.5-0.1H191h-0.5l-0.5,0.1l-0.5,0.1l-0.4,0.2l-0.4,0.2l-0.4,0.3l-0.3,0.4
			l-0.3,0.3l-0.3,0.4l-0.3,0.4l-0.2,0.4l-0.2,0.5l-0.2,0.5l-0.1,0.4v0.5V139.8z"/>
		<polygon class="st0" points="207.2,137.3 207.2,137 207.2,136.7 207.1,136.4 206.9,136.1 206.8,135.9 206.6,135.7 206.4,135.5 
			206.2,135.4 205.9,135.2 205.7,135.1 205.4,134.9 205.1,134.9 204.5,134.7 203.8,134.7 203.3,134.7 202.8,134.8 202.2,134.9 
			201.8,135.1 201.6,135.3 201.4,135.4 201.2,135.6 201.1,135.8 200.9,136 200.8,136.2 200.8,136.5 200.8,136.7 200.8,137 
			200.8,137.2 200.9,137.4 201,137.6 201.1,137.7 201.3,137.9 201.5,138.1 201.7,138.2 202.1,138.4 202.6,138.6 203,138.7 
			203.5,138.8 205.6,139.2 206.2,139.4 206.9,139.6 207.2,139.7 207.6,139.9 207.8,140.1 208.1,140.2 208.4,140.4 208.6,140.7 
			208.8,140.9 208.9,141.2 209.1,141.6 209.2,141.8 209.3,142.2 209.3,142.6 209.3,143.1 209.2,143.5 209,143.9 208.8,144.2 
			208.6,144.6 208.3,144.9 207.9,145.1 207.6,145.4 207.2,145.6 206.8,145.7 206.4,145.9 205.9,146 205.5,146.1 205,146.1 
			204.5,146.2 204.1,146.2 203.5,146.2 203,146.1 202.5,146 202,145.9 201.5,145.8 201.1,145.6 200.7,145.4 200.3,145.2 200,144.9 
			199.7,144.6 199.5,144.2 199.3,143.9 199.1,143.4 198.9,143 198.8,142.5 198.7,141.9 200.3,141.9 200.3,142.3 200.4,142.7 
			200.5,142.9 200.6,143.3 200.8,143.5 201,143.8 201.3,144 201.5,144.2 201.7,144.4 202.1,144.5 202.4,144.7 202.7,144.8 
			203,144.9 203.4,144.9 203.8,144.9 204.2,145 204.8,144.9 205.3,144.9 205.9,144.7 206.5,144.4 206.7,144.3 207,144.2 
			207.2,143.9 207.3,143.7 207.5,143.5 207.6,143.2 207.7,143 207.7,142.7 207.7,142.4 207.7,142.2 207.6,142 207.5,141.8 
			207.3,141.6 207.2,141.4 207,141.3 206.8,141.2 206.4,140.9 205.9,140.7 205.4,140.6 204.9,140.5 202.8,140.1 202.1,139.9 
			201.4,139.6 201.1,139.5 200.8,139.4 200.5,139.2 200.2,139.1 200,138.8 199.8,138.6 199.6,138.4 199.4,138.1 199.3,137.8 
			199.3,137.6 199.2,137.2 199.2,136.8 199.2,136.4 199.3,136 199.4,135.6 199.6,135.3 199.8,135 200.1,134.7 200.4,134.4 
			200.8,134.2 201.1,134 201.5,133.9 201.9,133.7 202.3,133.6 202.8,133.6 203.2,133.5 203.6,133.5 204.1,133.4 204.5,133.5 
			205,133.5 205.5,133.6 205.9,133.7 206.3,133.8 206.7,134 207.1,134.2 207.4,134.4 207.7,134.7 208,135 208.2,135.3 208.4,135.6 
			208.6,136 208.7,136.4 208.8,136.8 208.8,137.3 		"/>
		<rect x="211.7" y="129.2" class="st0" width="1.6" height="16.6"/>
		<path class="st0" d="M228,139.8v0.6v0.7l-0.1,0.6l-0.2,0.6l-0.2,0.5l-0.3,0.5l-0.3,0.5l-0.4,0.5l-0.5,0.4l-0.4,0.3l-0.5,0.4
			l-0.6,0.3l-0.6,0.2l-0.6,0.1l-0.7,0.1h-1.4l-0.7-0.1l-0.7-0.1l-0.6-0.2l-0.6-0.3l-0.4-0.4l-0.5-0.3l-0.4-0.4l-0.4-0.5l-0.3-0.5
			l-0.3-0.5l-0.2-0.5l-0.2-0.6l-0.2-0.6l-0.1-0.7v-1.3l0.1-0.6l0.2-0.6l0.2-0.6l0.2-0.6l0.3-0.5l0.3-0.5l0.4-0.4l0.4-0.4l0.5-0.4
			l0.4-0.3l0.6-0.2l0.6-0.3l0.7-0.1l0.7-0.1h0.7h0.7l0.7,0.1l0.6,0.1l0.6,0.3l0.6,0.2l0.5,0.3l0.4,0.4l0.5,0.4l0.4,0.4l0.3,0.5
			l0.3,0.5l0.2,0.6l0.2,0.6l0.1,0.6v0.6V139.8z M217.2,139.8v0.5l0.1,0.5l0.1,0.5l0.1,0.5l0.2,0.5l0.2,0.4l0.3,0.4l0.3,0.4l0.3,0.4
			l0.4,0.3l0.4,0.3l0.4,0.2l0.5,0.2l0.5,0.1l0.6,0.1h0.5h0.5l0.6-0.1l0.4-0.1l0.5-0.2l0.4-0.2l0.4-0.3l0.3-0.3l0.3-0.4l0.3-0.4
			l0.2-0.4l0.2-0.4l0.2-0.5l0.1-0.5l0.1-0.5v-0.5v-0.5v-0.5v-0.5l-0.1-0.4l-0.1-0.5l-0.2-0.5L226,137l-0.2-0.4l-0.3-0.4L225,136
			l-0.3-0.4l-0.4-0.3l-0.4-0.2l-0.5-0.2l-0.4-0.1l-0.6-0.1h-0.5h-0.5l-0.6,0.1l-0.5,0.1l-0.5,0.2l-0.4,0.2l-0.4,0.3l-0.4,0.4
			l-0.3,0.3l-0.3,0.4l-0.3,0.4l-0.2,0.4l-0.2,0.5l-0.1,0.5l-0.1,0.4l-0.1,0.5L217.2,139.8z"/>
		<polygon class="st0" points="228.8,133.8 230.6,133.8 234.7,144.3 234.8,144.3 238.8,133.8 240.5,133.8 235.6,145.8 233.9,145.8 
					"/>
		<path class="st0" d="M242,137.5l0.1-0.5l0.1-0.5l0.1-0.5l0.2-0.4l0.2-0.4l0.3-0.3l0.3-0.3l0.3-0.2l0.3-0.3l0.4-0.2l0.4-0.2
			l0.5-0.1l0.4-0.1l0.5-0.1h0.5h0.6h0.9l0.8,0.1l0.4,0.1l0.4,0.1l0.3,0.2l0.4,0.2l0.4,0.2l0.3,0.3l0.3,0.3l0.2,0.4l0.2,0.4l0.2,0.5
			l0.1,0.5v0.6v6.6v0.1l0.1,0.2l0.1,0.1l0.1,0.1l0.2,0.1h0.2h0.5l0.3-0.1v1.3h-0.5h-0.5h-0.3H252h-0.2l-0.2-0.1l-0.2-0.1l-0.1-0.1
			l-0.1-0.1l-0.1-0.1l-0.2-0.4l-0.1-0.4V144v-0.5l0,0l-0.4,0.6l-0.4,0.5l-0.5,0.4l-0.5,0.4l-0.3,0.1l-0.3,0.1l-0.4,0.1l-0.3,0.1
			l-0.4,0.1h-0.4h-0.4h-0.9h-0.5l-0.4-0.1l-0.4-0.1l-0.4-0.1l-0.4-0.1l-0.3-0.2l-0.3-0.2l-0.3-0.3l-0.3-0.2l-0.2-0.3l-0.2-0.3
			l-0.2-0.4l-0.1-0.4l-0.1-0.4v-0.5v-0.6l0.1-0.5l0.2-0.5l0.3-0.4l0.3-0.3l0.4-0.3l0.5-0.3l0.4-0.2l0.5-0.2l0.5-0.2l0.6-0.1l0.6-0.1
			l1.2-0.2l1.3-0.1h0.5l0.4-0.1l0.3-0.1l0.3-0.1l0.1-0.1l0.1-0.1l0.2-0.1l0.1-0.1l0.1-0.4v-0.4v-0.4v-0.3l-0.1-0.3l-0.2-0.3
			l-0.1-0.2l-0.2-0.2l-0.2-0.2l-0.2-0.2l-0.2-0.1l-0.3-0.1l-0.3-0.1h-0.3l-0.6-0.1H247h-0.4h-0.3H246l-0.3,0.1l-0.3,0.1l-0.3,0.1
			l-0.3,0.1l-0.3,0.2l-0.2,0.2l-0.2,0.2L244,136l-0.2,0.2l-0.1,0.3l-0.1,0.3l-0.1,0.4v0.4L242,137.5z M250.4,139.2L250.4,139.2
			l-0.1,0.1l-0.2,0.1l-0.2,0.1h-0.2l-0.4,0.1h-0.4l-1,0.1l-1,0.2l-1,0.1l-0.9,0.3l-0.4,0.1l-0.4,0.1l-0.4,0.2l-0.3,0.2l-0.3,0.3
			l-0.2,0.4l-0.1,0.3v0.4v0.3v0.3v0.2l0.1,0.2l0.1,0.2l0.2,0.2l0.2,0.2l0.2,0.2l0.3,0.1l0.2,0.1l0.2,0.1l0.3,0.1h0.3l0.3,0.1h0.3
			h0.3h0.4h0.4l0.4-0.1l0.4-0.1l0.4-0.1l0.3-0.2l0.4-0.2l0.3-0.3l0.3-0.2l0.3-0.3l0.2-0.3l0.2-0.3l0.2-0.4l0.1-0.4l0.1-0.4
			L250.4,139.2L250.4,139.2z"/>
		<polygon class="st0" points="255.1,133.8 256.7,133.8 256.7,135.9 256.8,135.9 256.9,135.6 257,135.4 257.2,135.1 257.4,134.9 
			257.6,134.7 257.9,134.5 258.1,134.3 258.4,134.1 258.7,134 259,133.9 259.3,133.7 259.6,133.6 260,133.6 260.3,133.5 
			260.6,133.5 261,133.4 261.7,133.5 262.3,133.5 262.8,133.6 263.3,133.8 263.8,133.9 264.1,134.2 264.5,134.4 264.8,134.7 
			265,135 265.3,135.4 265.5,135.7 265.6,136.2 265.7,136.6 265.8,137.1 265.8,137.6 265.8,138.1 265.8,145.8 264.2,145.8 
			264.2,138.3 264.2,137.6 264,136.9 264,136.6 263.9,136.2 263.7,136 263.5,135.7 263.3,135.5 263.1,135.3 262.8,135.1 262.5,135 
			262.1,134.9 261.8,134.7 261.3,134.7 260.8,134.7 260.4,134.7 260,134.7 259.5,134.9 259.1,135 258.8,135.2 258.4,135.4 
			258.1,135.6 257.9,135.9 257.6,136.2 257.4,136.5 257.2,136.8 257,137.1 256.9,137.5 256.8,138 256.8,138.3 256.7,138.8 
			256.7,145.8 255.1,145.8 		"/>
		<path class="st0" d="M268.8,133.8h1.6v13.1v0.7l-0.1,0.6v0.3l-0.1,0.3l-0.1,0.3l-0.2,0.2l-0.2,0.3l-0.2,0.2l-0.3,0.2l-0.2,0
			l-0.3,0.1l-0.3,0.1H268h-1h-0.6V149h0.5h0.4h0.5l0.3-0.1l0.3-0.2l0.2-0.2l0.1-0.2V148l0.1-0.4V133.8L268.8,133.8z M268.8,129.2
			h1.6v2.3h-1.6V129.2z"/>
		<path class="st0" d="M274.4,140.2v0.4v0.4l0.1,0.4l0.1,0.4l0.1,0.4l0.2,0.4l0.3,0.4l0.2,0.4l0.3,0.4l0.3,0.3l0.4,0.3l0.4,0.2
			l0.4,0.2l0.5,0.1l0.5,0.1h0.5h0.5h0.4h0.4l0.4-0.1l0.3-0.2l0.3-0.1l0.3-0.1l0.3-0.2l0.2-0.2l0.3-0.2l0.2-0.3l0.2-0.2l0.1-0.3
			l0.1-0.4l0.1-0.3l0.1-0.3h1.6l-0.1,0.5l-0.2,0.5l-0.2,0.4l-0.2,0.4l-0.3,0.4l-0.3,0.4l-0.3,0.4l-0.4,0.3l-0.4,0.3l-0.3,0.2
			l-0.5,0.2l-0.5,0.1l-0.5,0.1l-0.5,0.1h-0.6h-1.3l-0.7-0.1l-0.7-0.1l-0.6-0.2l-0.5-0.3l-0.5-0.3l-0.4-0.3l-0.4-0.4l-0.3-0.5
			l-0.3-0.5l-0.2-0.5l-0.2-0.5l-0.2-0.6l-0.1-0.6v-0.7v-0.6v-0.6V139l0.1-0.6l0.2-0.5l0.2-0.6l0.2-0.5l0.3-0.5l0.3-0.5l0.4-0.4
			l0.4-0.4l0.5-0.3l0.5-0.3l0.6-0.2l0.7-0.2l0.7-0.1h0.8h0.8l0.7,0.1l0.7,0.2l0.6,0.2l0.5,0.3l0.5,0.3l0.4,0.4l0.4,0.5l0.3,0.5
			l0.3,0.5l0.3,0.5l0.2,0.6l0.1,0.6l0.1,0.6v0.6v0.6L274.4,140.2z M282.8,139v-0.4l-0.1-0.4l-0.1-0.4l-0.1-0.3l-0.1-0.4l-0.3-0.4
			l-0.2-0.4l-0.3-0.3l-0.3-0.3l-0.3-0.2l-0.3-0.3l-0.4-0.2l-0.3-0.1l-0.5-0.1H279h-0.5H278h-0.5l-0.4,0.1l-0.4,0.1l-0.4,0.2
			l-0.3,0.2l-0.3,0.2l-0.3,0.3l-0.3,0.4l-0.2,0.3l0.1,0.4l-0.2,0.4l-0.1,0.3l-0.1,0.4l-0.1,0.4v0.4L282.8,139z"/>
	</g>
</g>
</svg>
